<svg xmlns:xlink="http://www.w3.org/1999/xlink" width="168.972" xmlns="http://www.w3.org/2000/svg" height="168.972" id="screenshot-fbf06378-181e-80bb-8002-69ba90e12c6f" viewBox="-9.486 -9.486 168.972 168.972" style="-webkit-print-color-adjust: exact;" fill="none" version="1.1"><g id="shape-fbf06378-181e-80bb-8002-69ba90e12c6f" rx="0" ry="0" style="fill: rgb(0, 0, 0);"><g id="shape-fbf06378-181e-80bb-8002-69ba90e19766"><g class="fills" id="fills-fbf06378-181e-80bb-8002-69ba90e19766"><path fill="#f5f5f500" stroke="#f5f5f500" stroke-linecap="round" stroke-linejoin="round" rx="0" ry="0" d="M15.555,83.144C20.053,115.974,50.314,138.943,83.144,134.445C115.974,129.947,138.943,99.686,134.445,66.856C129.947,34.026,99.686,11.057,66.856,15.555C34.026,20.053,11.057,50.314,15.555,83.144ZZ" style="fill: rgba(245, 245, 245, 0);"/></g></g><g id="shape-fbf06378-181e-80bb-8002-69ba90e1f8ba"><g class="fills" id="fills-fbf06378-181e-80bb-8002-69ba90e1f8ba"><path rx="0" ry="0" d="M44.662,126.151C45.051,128.991,61.335,129.106,81.033,126.407C100.731,123.708,116.384,119.218,115.995,116.378C115.606,113.539,99.322,113.424,79.624,116.123C59.926,118.822,44.273,123.312,44.662,126.151ZZ" style="opacity: 0.15; fill: rgb(0, 0, 0);"/></g></g><g id="shape-fbf06378-181e-80bb-8002-69ba90e1f8bb"><g class="fills" id="fills-fbf06378-181e-80bb-8002-69ba90e1f8bb"><path rx="0" ry="0" d="M102.709,18.659C102.320,15.818,99.702,13.831,96.862,14.220L32.585,23.026C31.638,23.155,30.975,24.028,31.105,24.976L44.726,124.397C44.855,125.344,45.728,126.007,46.676,125.877L110.956,117.070C113.796,116.680,115.783,114.063,115.393,111.222Z" style="fill: rgb(106, 119, 132);"/></g></g><g id="shape-fbf06378-181e-80bb-8002-69ba90e22f2c"><g class="fills" id="fills-fbf06378-181e-80bb-8002-69ba90e22f2c"><path rx="0" ry="0" d="M102.709,18.659C102.320,15.818,99.702,13.831,96.862,14.220L32.585,23.026C31.638,23.155,30.975,24.028,31.105,24.976L31.809,30.118C31.680,29.171,32.343,28.299,33.289,28.169L97.570,19.363C100.410,18.973,103.027,20.960,103.416,23.800Z" style="fill: rgb(130, 146, 162);"/></g></g><g id="shape-fbf06378-181e-80bb-8002-69ba90e22f2d"><g class="fills" id="fills-fbf06378-181e-80bb-8002-69ba90e22f2d"><path fill="none" stroke-linecap="round" stroke-linejoin="round" rx="0" ry="0" d="M102.709,18.659C102.320,15.818,99.702,13.831,96.862,14.220L32.585,23.026C31.638,23.155,30.975,24.028,31.105,24.976L44.726,124.397C44.855,125.344,45.728,126.007,46.676,125.877L110.956,117.070C113.796,116.680,115.783,114.063,115.393,111.222Z" style="fill: none;"/></g><g id="strokes-fbf06378-181e-80bb-8002-69ba90e22f2d" class="strokes"><g class="stroke-shape"><path stroke-linecap="round" stroke-linejoin="round" rx="0" ry="0" d="M102.709,18.659C102.320,15.818,99.702,13.831,96.862,14.220L32.585,23.026C31.638,23.155,30.975,24.028,31.105,24.976L44.726,124.397C44.855,125.344,45.728,126.007,46.676,125.877L110.956,117.070C113.796,116.680,115.783,114.063,115.393,111.222Z" style="fill: none; stroke-width: 1; stroke: rgb(0, 0, 0);"/></g></g></g><g id="shape-fbf06378-181e-80bb-8002-69ba90e25525"><g class="fills" id="fills-fbf06378-181e-80bb-8002-69ba90e25525"><path stroke-linecap="round" stroke-linejoin="round" rx="0" ry="0" d="M40.298,21.969L54.388,124.819" style="fill: rgb(106, 119, 132);"/></g><g id="strokes-fbf06378-181e-80bb-8002-69ba90e25525" class="strokes"><g class="stroke-shape"><path stroke-linecap="round" stroke-linejoin="round" rx="0" ry="0" d="M40.298,21.969L54.388,124.819" style="fill: none; stroke-width: 1; stroke: rgb(0, 0, 0);"/></g></g></g><g id="shape-fbf06378-181e-80bb-8002-69ba90e25526"><g class="fills" id="fills-fbf06378-181e-80bb-8002-69ba90e25526"><path stroke-linecap="round" stroke-linejoin="round" rx="0" ry="0" d="M35.919,60.115L107.056,50.369L111.049,79.509L39.911,89.255Z" style="fill: rgb(255, 98, 66);"/></g><g id="strokes-fbf06378-181e-80bb-8002-69ba90e25526" class="strokes"><g class="stroke-shape"><path stroke-linecap="round" stroke-linejoin="round" rx="0" ry="0" d="M35.919,60.115L107.056,50.369L111.049,79.509L39.911,89.255Z" style="fill: none; stroke-width: 1; stroke: rgb(0, 0, 0);"/></g></g></g><g id="shape-fbf06378-181e-80bb-8002-69ba90e2b5d2"><g class="fills" id="fills-fbf06378-181e-80bb-8002-69ba90e2b5d2"><path stroke-linecap="round" stroke-linejoin="round" rx="0" ry="0" d="M87.437,15.511L91.723,14.924L105.814,117.772L101.528,118.359Z" style="fill: rgb(173, 196, 217);"/></g><g id="strokes-fbf06378-181e-80bb-8002-69ba90e2b5d2" class="strokes"><g class="stroke-shape"><path stroke-linecap="round" stroke-linejoin="round" rx="0" ry="0" d="M87.437,15.511L91.723,14.924L105.814,117.772L101.528,118.359Z" style="fill: none; stroke-width: 1; stroke: rgb(0, 0, 0);"/></g></g></g><g id="shape-fbf06378-181e-80bb-8002-69ba90e2b5d3"><g class="fills" id="fills-fbf06378-181e-80bb-8002-69ba90e2b5d3"><path stroke-linecap="round" stroke-linejoin="round" rx="0" ry="0" d="M55.210,67.077C51.431,63.629,46.362,65.361,44.122,66.407C43.436,66.727,43.038,67.456,43.140,68.207L44.531,78.361C44.603,78.889,44.913,79.354,45.372,79.623C45.831,79.891,46.388,79.935,46.883,79.739C49.395,78.743,53.746,77.739,57.088,80.791Z" style="fill: rgb(255, 255, 255);"/></g><g id="strokes-fbf06378-181e-80bb-8002-69ba90e2b5d3" class="strokes"><g class="stroke-shape"><path stroke-linecap="round" stroke-linejoin="round" rx="0" ry="0" d="M55.210,67.077C51.431,63.629,46.362,65.361,44.122,66.407C43.436,66.727,43.038,67.456,43.140,68.207L44.531,78.361C44.603,78.889,44.913,79.354,45.372,79.623C45.831,79.891,46.388,79.935,46.883,79.739C49.395,78.743,53.746,77.739,57.088,80.791Z" style="fill: none; stroke-width: 1; stroke: rgb(0, 0, 0);"/></g></g></g><g id="shape-fbf06378-181e-80bb-8002-69ba90e2d2d3"><g class="fills" id="fills-fbf06378-181e-80bb-8002-69ba90e2d2d3"><path stroke-linecap="round" stroke-linejoin="round" rx="0" ry="0" d="M55.210,67.077C57.921,62.740,63.270,63.045,65.708,63.449C66.455,63.573,67.035,64.169,67.139,64.919L68.530,75.073C68.602,75.600,68.428,76.131,68.057,76.513C67.687,76.895,67.162,77.086,66.633,77.030C63.946,76.746,59.485,76.950,57.089,80.788Z" style="fill: rgb(255, 255, 255);"/></g><g id="strokes-fbf06378-181e-80bb-8002-69ba90e2d2d3" class="strokes"><g class="stroke-shape"><path stroke-linecap="round" stroke-linejoin="round" rx="0" ry="0" d="M55.210,67.077C57.921,62.740,63.270,63.045,65.708,63.449C66.455,63.573,67.035,64.169,67.139,64.919L68.530,75.073C68.602,75.600,68.428,76.131,68.057,76.513C67.687,76.895,67.162,77.086,66.633,77.030C63.946,76.746,59.485,76.950,57.089,80.788Z" style="fill: none; stroke-width: 1; stroke: rgb(0, 0, 0);"/></g></g></g><g id="shape-fbf06378-181e-80bb-8002-69ba90e2d2d4"><g class="fills" id="fills-fbf06378-181e-80bb-8002-69ba90e2d2d4"><path stroke-linecap="round" stroke-linejoin="round" rx="0" ry="0" d="M73.912,69.755C74.080,70.980,74.888,72.022,76.033,72.489C77.178,72.956,78.485,72.777,79.461,72.019C80.438,71.261,80.937,70.040,80.769,68.815C80.601,67.590,79.793,66.548,78.648,66.081C77.503,65.614,76.196,65.793,75.219,66.551C74.243,67.308,73.744,68.530,73.912,69.755ZZ" style="fill: rgb(255, 255, 255);"/></g><g id="strokes-fbf06378-181e-80bb-8002-69ba90e2d2d4" class="strokes"><g class="stroke-shape"><path stroke-linecap="round" stroke-linejoin="round" rx="0" ry="0" d="M73.912,69.755C74.080,70.980,74.888,72.022,76.033,72.489C77.178,72.956,78.485,72.777,79.461,72.019C80.438,71.261,80.937,70.040,80.769,68.815C80.601,67.590,79.793,66.548,78.648,66.081C77.503,65.614,76.196,65.793,75.219,66.551C74.243,67.308,73.744,68.530,73.912,69.755ZZ" style="fill: none; stroke-width: 1; stroke: rgb(0, 0, 0);"/></g></g></g></g></svg>