<svg xmlns:xlink="http://www.w3.org/1999/xlink" width="402" xmlns="http://www.w3.org/2000/svg" height="402" id="screenshot-fbf06378-181e-80bb-8002-69b869cffd14" viewBox="-1 -1 402 402" style="-webkit-print-color-adjust: exact;" fill="none" version="1.1"><g id="shape-fbf06378-181e-80bb-8002-69b869cffd14" rx="0" ry="0" style="fill: rgb(0, 0, 0);"><g id="shape-fbf06378-181e-80bb-8002-69b869d029e0"><g class="fills" id="fills-fbf06378-181e-80bb-8002-69b869d029e0"><ellipse cy="201.06138613861413" transform="matrix(1.000000, 0.000000, 0.000000, 1.000000, 0.000000, 0.000000)" stroke-miterlimit="10" stroke="#f5f5f500" style="fill: rgba(245, 245, 245, 0);" ry="158.41584158415844" fill="#f5f5f500" rx="158.41584158415844" cx="201.98019801980217"/></g><g id="strokes-fbf06378-181e-80bb-8002-69b869d029e0" class="strokes"><g class="stroke-shape"><ellipse stroke="#f5f5f500" stroke-miterlimit="10" rx="158.41584158415844" ry="158.41584158415844" cx="201.98019801980217" cy="201.06138613861413" transform="matrix(1.000000, 0.000000, 0.000000, 1.000000, 0.000000, 0.000000)" style="fill: none; stroke-width: 2;"/></g></g></g><g id="shape-fbf06378-181e-80bb-8002-69b869d07366"><g class="fills" id="fills-fbf06378-181e-80bb-8002-69b869d07366"><ellipse rx="40" ry="5.798019801980445" cx="201.98019801980217" cy="360.0752475247523" transform="matrix(1.000000, 0.000000, 0.000000, 1.000000, 0.000000, 0.000000)" style="opacity: 0.15; fill: rgb(0, 0, 0);"/></g><g id="strokes-fbf06378-181e-80bb-8002-69b869d07366" class="strokes"><g class="stroke-shape"><ellipse rx="40" ry="5.798019801980445" cx="201.98019801980217" cy="360.0752475247523" transform="matrix(1.000000, 0.000000, 0.000000, 1.000000, 0.000000, 0.000000)" style="opacity: 0.15; fill: none; stroke-width: 2;"/></g></g></g><g id="shape-fbf06378-181e-80bb-8002-69b869d07367"><g class="fills" id="fills-fbf06378-181e-80bb-8002-69b869d07367"><path rx="0" ry="0" d="M187.810,331.731L216.154,331.731L216.154,347.925L187.810,347.925Z" style="fill: rgb(248, 248, 248);"/></g><g id="strokes-fbf06378-181e-80bb-8002-69b869d07367" class="strokes"><g class="stroke-shape"><path rx="0" ry="0" d="M187.810,331.731L216.154,331.731L216.154,347.925L187.810,347.925Z" style="fill: none; stroke-width: 2;"/></g></g></g><g id="shape-fbf06378-181e-80bb-8002-69b869d09414"><g class="fills" id="fills-fbf06378-181e-80bb-8002-69b869d09414"><path stroke-linecap="round" stroke-linejoin="round" fill="#f5f5f500" rx="0" ry="0" d="M231.073,360.075C232.583,360.083,233.979,359.272,234.720,357.956C235.460,356.639,235.429,355.025,234.638,353.739C232.433,350.121,228.502,347.914,224.265,347.917L179.711,347.917C175.474,347.914,171.543,350.121,169.339,353.739C168.545,355.025,168.512,356.640,169.253,357.958C169.994,359.275,171.392,360.086,172.903,360.075Z" style="fill: rgba(245, 245, 245, 0);"/></g><g id="strokes-fbf06378-181e-80bb-8002-69b869d09414" class="strokes"><g class="stroke-shape"><path stroke-linecap="round" stroke-linejoin="round" rx="0" ry="0" d="M231.073,360.075C232.583,360.083,233.979,359.272,234.720,357.956C235.460,356.639,235.429,355.025,234.638,353.739C232.433,350.121,228.502,347.914,224.265,347.917L179.711,347.917C175.474,347.914,171.543,350.121,169.339,353.739C168.545,355.025,168.512,356.640,169.253,357.958C169.994,359.275,171.392,360.086,172.903,360.075Z" style="fill: none; stroke-width: 2; stroke: rgb(0, 0, 0);"/></g></g></g><g id="shape-fbf06378-181e-80bb-8002-69b869d0e5f0"><g class="fills" id="fills-fbf06378-181e-80bb-8002-69b869d0e5f0"><path rx="0" ry="0" d="M187.810,331.731L216.154,331.731L216.154,337.806L187.810,337.806Z" style="fill: rgb(173, 196, 217);"/></g><g id="strokes-fbf06378-181e-80bb-8002-69b869d0e5f0" class="strokes"><g class="stroke-shape"><path rx="0" ry="0" d="M187.810,331.731L216.154,331.731L216.154,337.806L187.810,337.806Z" style="fill: none; stroke-width: 2;"/></g></g></g><g id="shape-fbf06378-181e-80bb-8002-69b869d0e5f1"><g class="fills" id="fills-fbf06378-181e-80bb-8002-69b869d0e5f1"><path fill="none" stroke-linecap="round" stroke-linejoin="round" rx="0" ry="0" d="M187.810,331.731L216.154,331.731L216.154,347.925L187.810,347.925Z" style="fill: none;"/></g><g id="strokes-fbf06378-181e-80bb-8002-69b869d0e5f1" class="strokes"><g class="stroke-shape"><path stroke-linecap="round" stroke-linejoin="round" rx="0" ry="0" d="M187.810,331.731L216.154,331.731L216.154,347.925L187.810,347.925Z" style="fill: none; stroke-width: 2; stroke: rgb(0, 0, 0);"/></g></g></g><g id="shape-fbf06378-181e-80bb-8002-69b869d0e5f2"><g class="fills" id="fills-fbf06378-181e-80bb-8002-69b869d0e5f2"><path fill="#f5f5f500" stroke-linecap="round" stroke-linejoin="round" rx="0" ry="0" d="M276.887,331.731L127.073,331.731C123.852,331.731,120.762,330.451,118.484,328.173C116.206,325.895,114.927,322.806,114.927,319.584L114.927,311.489L289.034,311.489L289.034,319.584C289.034,322.806,287.754,325.895,285.476,328.173C283.198,330.451,280.109,331.731,276.887,331.731ZZ" style="fill: rgba(245, 245, 245, 0);"/></g><g id="strokes-fbf06378-181e-80bb-8002-69b869d0e5f2" class="strokes"><g class="stroke-shape"><path stroke-linecap="round" stroke-linejoin="round" rx="0" ry="0" d="M276.887,331.731L127.073,331.731C123.852,331.731,120.762,330.451,118.484,328.173C116.206,325.895,114.927,322.806,114.927,319.584L114.927,311.489L289.034,311.489L289.034,319.584C289.034,322.806,287.754,325.895,285.476,328.173C283.198,330.451,280.109,331.731,276.887,331.731ZZ" style="fill: none; stroke-width: 2; stroke: rgb(0, 0, 0);"/></g></g></g><g id="shape-fbf06378-181e-80bb-8002-69b869d10f7e"><g class="fills" id="fills-fbf06378-181e-80bb-8002-69b869d10f7e"><path rx="0" ry="0" d="M201.980,321.414C202.060,321.414,202.132,321.462,202.163,321.536C202.194,321.610,202.177,321.695,202.120,321.752C202.064,321.809,201.978,321.825,201.904,321.795C201.830,321.764,201.782,321.692,201.782,321.612C201.782,321.503,201.871,321.414,201.980,321.414ZM201.980,317.453C200.298,317.453,198.782,318.467,198.138,320.021C197.495,321.574,197.850,323.363,199.040,324.552C200.229,325.742,202.018,326.097,203.572,325.454C205.125,324.810,206.139,323.294,206.139,321.612C206.140,320.509,205.702,319.450,204.922,318.670C204.142,317.890,203.083,317.452,201.980,317.453ZZ" style="fill: rgb(0, 0, 0);"/></g><g id="strokes-fbf06378-181e-80bb-8002-69b869d10f7e" class="strokes"><g class="stroke-shape"><path rx="0" ry="0" d="M201.980,321.414C202.060,321.414,202.132,321.462,202.163,321.536C202.194,321.610,202.177,321.695,202.120,321.752C202.064,321.809,201.978,321.825,201.904,321.795C201.830,321.764,201.782,321.692,201.782,321.612C201.782,321.503,201.871,321.414,201.980,321.414ZM201.980,317.453C200.298,317.453,198.782,318.467,198.138,320.021C197.495,321.574,197.850,323.363,199.040,324.552C200.229,325.742,202.018,326.097,203.572,325.454C205.125,324.810,206.139,323.294,206.139,321.612C206.140,320.509,205.702,319.450,204.922,318.670C204.142,317.890,203.083,317.452,201.980,317.453ZZ" style="fill: none; stroke-width: 2;"/></g></g></g><g id="shape-fbf06378-181e-80bb-8002-69b869d171e0"><g class="fills" id="fills-fbf06378-181e-80bb-8002-69b869d171e0"><path rx="0" ry="0" d="M114.927,222.408C114.929,213.464,122.180,206.214,131.125,206.214L272.836,206.214C281.780,206.214,289.031,213.464,289.034,222.408L289.034,311.489L114.927,311.489Z" style="fill: rgb(106, 119, 132);"/></g><g id="strokes-fbf06378-181e-80bb-8002-69b869d171e0" class="strokes"><g class="stroke-shape"><path rx="0" ry="0" d="M114.927,222.408C114.929,213.464,122.180,206.214,131.125,206.214L272.836,206.214C281.780,206.214,289.031,213.464,289.034,222.408L289.034,311.489L114.927,311.489Z" style="fill: none; stroke-width: 2;"/></g></g></g><g id="shape-fbf06378-181e-80bb-8002-69b869d171e1"><g class="fills" id="fills-fbf06378-181e-80bb-8002-69b869d171e1"><path fill="none" stroke-linecap="round" stroke-linejoin="round" rx="0" ry="0" d="M114.927,222.408C114.929,213.464,122.180,206.214,131.125,206.214L272.836,206.214C281.780,206.214,289.031,213.464,289.034,222.408L289.034,311.489L114.927,311.489Z" style="fill: none;"/></g><g id="strokes-fbf06378-181e-80bb-8002-69b869d171e1" class="strokes"><g class="stroke-shape"><path stroke-linecap="round" stroke-linejoin="round" rx="0" ry="0" d="M114.927,222.408C114.929,213.464,122.180,206.214,131.125,206.214L272.836,206.214C281.780,206.214,289.031,213.464,289.034,222.408L289.034,311.489L114.927,311.489Z" style="fill: none; stroke-width: 2; stroke: rgb(0, 0, 0);"/></g></g></g><g id="shape-fbf06378-181e-80bb-8002-69b869d171e2" rx="0" ry="0" style="fill: rgb(0, 0, 0);"><g id="shape-fbf06378-181e-80bb-8002-69b869d19b2a"><g class="fills" id="fills-fbf06378-181e-80bb-8002-69b869d19b2a"><path stroke-linecap="round" stroke-linejoin="round" fill="none" rx="0" ry="0" d="M131.125,217.430L131.125,249.822M131.125,261.038L131.125,300.269" style="fill: none;"/></g><g id="strokes-fbf06378-181e-80bb-8002-69b869d19b2a" class="strokes"><g class="stroke-shape"><path stroke-linecap="round" stroke-linejoin="round" rx="0" ry="0" d="M131.125,217.430L131.125,249.822M131.125,261.038L131.125,300.269" style="fill: none; stroke-width: 2; stroke: rgb(130, 146, 162);"/></g></g></g><g id="shape-fbf06378-181e-80bb-8002-69b869d19b2b"><g class="fills" id="fills-fbf06378-181e-80bb-8002-69b869d19b2b"><path stroke-linecap="round" stroke-linejoin="round" rx="0" ry="0" d="M261.184,229.703C263.999,229.625,266.241,227.321,266.241,224.505C266.241,221.689,263.999,219.385,261.184,219.307L146.828,219.307C144.936,219.255,143.166,220.234,142.205,221.864C141.244,223.493,141.244,225.517,142.205,227.146C143.166,228.776,144.936,229.755,146.828,229.703Z" style="fill: rgb(74, 207, 255);"/></g><g id="strokes-fbf06378-181e-80bb-8002-69b869d19b2b" class="strokes"><g class="stroke-shape"><path stroke-linecap="round" stroke-linejoin="round" rx="0" ry="0" d="M261.184,229.703C263.999,229.625,266.241,227.321,266.241,224.505C266.241,221.689,263.999,219.385,261.184,219.307L146.828,219.307C144.936,219.255,143.166,220.234,142.205,221.864C141.244,223.493,141.244,225.517,142.205,227.146C143.166,228.776,144.936,229.755,146.828,229.703Z" style="fill: none; stroke-width: 2; stroke: rgb(0, 0, 0);"/></g></g></g><g id="shape-fbf06378-181e-80bb-8002-69b869d1f151"><g class="fills" id="fills-fbf06378-181e-80bb-8002-69b869d1f151"><path stroke-linecap="round" stroke-linejoin="round" rx="0" ry="0" d="M219.600,274.954C222.415,274.877,224.657,272.572,224.657,269.756C224.657,266.940,222.415,264.636,219.600,264.558L146.828,264.558C144.936,264.506,143.166,265.485,142.205,267.115C141.244,268.745,141.244,270.768,142.205,272.398C143.166,274.028,144.936,275.007,146.828,274.954Z" style="fill: rgb(255, 229, 0);"/></g><g id="strokes-fbf06378-181e-80bb-8002-69b869d1f151" class="strokes"><g class="stroke-shape"><path stroke-linecap="round" stroke-linejoin="round" rx="0" ry="0" d="M219.600,274.954C222.415,274.877,224.657,272.572,224.657,269.756C224.657,266.940,222.415,264.636,219.600,264.558L146.828,264.558C144.936,264.506,143.166,265.485,142.205,267.115C141.244,268.745,141.244,270.768,142.205,272.398C143.166,274.028,144.936,275.007,146.828,274.954Z" style="fill: none; stroke-width: 2; stroke: rgb(0, 0, 0);"/></g></g></g><g id="shape-fbf06378-181e-80bb-8002-69b869d1f152"><g class="fills" id="fills-fbf06378-181e-80bb-8002-69b869d1f152"><path stroke-linecap="round" stroke-linejoin="round" rx="0" ry="0" d="M245.588,297.588C247.479,297.640,249.250,296.661,250.211,295.031C251.172,293.402,251.172,291.379,250.211,289.749C249.250,288.119,247.479,287.140,245.588,287.192L219.600,287.192C217.709,287.140,215.938,288.119,214.977,289.749C214.016,291.379,214.016,293.402,214.977,295.031C215.938,296.661,217.709,297.640,219.600,297.588Z" style="fill: rgb(255, 98, 66);"/></g><g id="strokes-fbf06378-181e-80bb-8002-69b869d1f152" class="strokes"><g class="stroke-shape"><path stroke-linecap="round" stroke-linejoin="round" rx="0" ry="0" d="M245.588,297.588C247.479,297.640,249.250,296.661,250.211,295.031C251.172,293.402,251.172,291.379,250.211,289.749C249.250,288.119,247.479,287.140,245.588,287.192L219.600,287.192C217.709,287.140,215.938,288.119,214.977,289.749C214.016,291.379,214.016,293.402,214.977,295.031C215.938,296.661,217.709,297.640,219.600,297.588Z" style="fill: none; stroke-width: 2; stroke: rgb(0, 0, 0);"/></g></g></g><g id="shape-fbf06378-181e-80bb-8002-69b869d23d55"><g class="fills" id="fills-fbf06378-181e-80bb-8002-69b869d23d55"><path stroke-linecap="round" stroke-linejoin="round" rx="0" ry="0" d="M198.812,297.588C201.627,297.510,203.868,295.206,203.868,292.390C203.868,289.574,201.627,287.270,198.812,287.192L146.828,287.192C144.936,287.140,143.166,288.119,142.205,289.749C141.244,291.379,141.244,293.402,142.205,295.031C143.166,296.661,144.936,297.640,146.828,297.588Z" style="fill: rgb(255, 98, 66);"/></g><g id="strokes-fbf06378-181e-80bb-8002-69b869d23d55" class="strokes"><g class="stroke-shape"><path stroke-linecap="round" stroke-linejoin="round" rx="0" ry="0" d="M198.812,297.588C201.627,297.510,203.868,295.206,203.868,292.390C203.868,289.574,201.627,287.270,198.812,287.192L146.828,287.192C144.936,287.140,143.166,288.119,142.205,289.749C141.244,291.379,141.244,293.402,142.205,295.031C143.166,296.661,144.936,297.640,146.828,297.588Z" style="fill: none; stroke-width: 2; stroke: rgb(0, 0, 0);"/></g></g></g><g id="shape-fbf06378-181e-80bb-8002-69b869d23d56"><g class="fills" id="fills-fbf06378-181e-80bb-8002-69b869d23d56"><path stroke-linecap="round" stroke-linejoin="round" rx="0" ry="0" d="M172.816,252.321C174.707,252.373,176.478,251.394,177.439,249.764C178.400,248.134,178.400,246.111,177.439,244.481C176.478,242.852,174.707,241.873,172.816,241.925L146.828,241.925C144.936,241.873,143.166,242.852,142.205,244.481C141.244,246.111,141.244,248.134,142.205,249.764C143.166,251.394,144.936,252.373,146.828,252.321Z" style="fill: rgb(109, 214, 39);"/></g><g id="strokes-fbf06378-181e-80bb-8002-69b869d23d56" class="strokes"><g class="stroke-shape"><path stroke-linecap="round" stroke-linejoin="round" rx="0" ry="0" d="M172.816,252.321C174.707,252.373,176.478,251.394,177.439,249.764C178.400,248.134,178.400,246.111,177.439,244.481C176.478,242.852,174.707,241.873,172.816,241.925L146.828,241.925C144.936,241.873,143.166,242.852,142.205,244.481C141.244,246.111,141.244,248.134,142.205,249.764C143.166,251.394,144.936,252.373,146.828,252.321Z" style="fill: none; stroke-width: 2; stroke: rgb(0, 0, 0);"/></g></g></g><g id="shape-fbf06378-181e-80bb-8002-69b869d27a30"><g class="fills" id="fills-fbf06378-181e-80bb-8002-69b869d27a30"><path stroke-linecap="round" stroke-linejoin="round" rx="0" ry="0" d="M240.396,252.321C243.211,252.243,245.453,249.939,245.453,247.123C245.453,244.307,243.211,242.002,240.396,241.925L193.608,241.925C190.793,242.002,188.551,244.307,188.551,247.123C188.551,249.939,190.793,252.243,193.608,252.321Z" style="fill: rgb(109, 214, 39);"/></g><g id="strokes-fbf06378-181e-80bb-8002-69b869d27a30" class="strokes"><g class="stroke-shape"><path stroke-linecap="round" stroke-linejoin="round" rx="0" ry="0" d="M240.396,252.321C243.211,252.243,245.453,249.939,245.453,247.123C245.453,244.307,243.211,242.002,240.396,241.925L193.608,241.925C190.793,242.002,188.551,244.307,188.551,247.123C188.551,249.939,190.793,252.243,193.608,252.321Z" style="fill: none; stroke-width: 2; stroke: rgb(0, 0, 0);"/></g></g></g></g><g id="shape-fbf06378-181e-80bb-8002-69b869d2f46e"><g class="fills" id="fills-fbf06378-181e-80bb-8002-69b869d2f46e"><path rx="0" ry="0" d="M297.881,38.087L106.079,38.087C100.694,38.087,96.329,42.453,96.329,47.838L96.329,67.327L307.632,67.327L307.632,47.838C307.632,45.252,306.604,42.772,304.776,40.943C302.947,39.114,300.467,38.087,297.881,38.087ZZ" style="fill: rgb(255, 255, 255);"/></g><g id="strokes-fbf06378-181e-80bb-8002-69b869d2f46e" class="strokes"><g class="stroke-shape"><path rx="0" ry="0" d="M297.881,38.087L106.079,38.087C100.694,38.087,96.329,42.453,96.329,47.838L96.329,67.327L307.632,67.327L307.632,47.838C307.632,45.252,306.604,42.772,304.776,40.943C302.947,39.114,300.467,38.087,297.881,38.087ZZ" style="fill: none; stroke-width: 2;"/></g></g></g><g id="shape-fbf06378-181e-80bb-8002-69b869d2f46f"><g class="fills" id="fills-fbf06378-181e-80bb-8002-69b869d2f46f"><path fill="none" stroke-linecap="round" stroke-linejoin="round" rx="0" ry="0" d="M297.881,38.087L106.079,38.087C100.694,38.087,96.329,42.453,96.329,47.838L96.329,67.327L307.632,67.327L307.632,47.838C307.632,45.252,306.604,42.772,304.776,40.943C302.947,39.114,300.467,38.087,297.881,38.087ZZ" style="fill: none;"/></g><g id="strokes-fbf06378-181e-80bb-8002-69b869d2f46f" class="strokes"><g class="stroke-shape"><path stroke-linecap="round" stroke-linejoin="round" rx="0" ry="0" d="M297.881,38.087L106.079,38.087C100.694,38.087,96.329,42.453,96.329,47.838L96.329,67.327L307.632,67.327L307.632,47.838C307.632,45.252,306.604,42.772,304.776,40.943C302.947,39.114,300.467,38.087,297.881,38.087ZZ" style="fill: none; stroke-width: 2; stroke: rgb(0, 0, 0);"/></g></g></g><g id="shape-fbf06378-181e-80bb-8002-69b869d36889"><g class="fills" id="fills-fbf06378-181e-80bb-8002-69b869d36889"><path rx="0" ry="0" d="M307.632,67.327L307.632,123.057C307.629,125.353,305.769,127.214,303.473,127.216L277.450,127.216C275.153,127.216,273.291,129.078,273.291,131.374L273.291,148.008C273.289,150.304,271.428,152.164,269.133,152.166L234.966,152.166C232.671,152.164,230.810,150.304,230.808,148.008L230.808,120.978C230.808,118.682,228.946,116.820,226.650,116.820L194.396,116.820C192.099,116.820,190.238,118.682,190.238,120.978L190.238,158.416C190.235,160.712,188.375,162.572,186.079,162.574L167.236,162.574C164.940,162.572,163.079,160.712,163.077,158.416L163.077,135.533C163.077,133.236,161.215,131.374,158.919,131.374L126.491,131.374C124.194,131.374,122.333,133.236,122.333,135.533L122.333,150.099C122.330,152.395,120.470,154.255,118.174,154.257L100.487,154.257C98.191,154.255,96.331,152.395,96.329,150.099L96.329,67.327Z" style="fill: rgb(0, 184, 240);"/></g><g id="strokes-fbf06378-181e-80bb-8002-69b869d36889" class="strokes"><g class="stroke-shape"><path rx="0" ry="0" d="M307.632,67.327L307.632,123.057C307.629,125.353,305.769,127.214,303.473,127.216L277.450,127.216C275.153,127.216,273.291,129.078,273.291,131.374L273.291,148.008C273.289,150.304,271.428,152.164,269.133,152.166L234.966,152.166C232.671,152.164,230.810,150.304,230.808,148.008L230.808,120.978C230.808,118.682,228.946,116.820,226.650,116.820L194.396,116.820C192.099,116.820,190.238,118.682,190.238,120.978L190.238,158.416C190.235,160.712,188.375,162.572,186.079,162.574L167.236,162.574C164.940,162.572,163.079,160.712,163.077,158.416L163.077,135.533C163.077,133.236,161.215,131.374,158.919,131.374L126.491,131.374C124.194,131.374,122.333,133.236,122.333,135.533L122.333,150.099C122.330,152.395,120.470,154.255,118.174,154.257L100.487,154.257C98.191,154.255,96.331,152.395,96.329,150.099L96.329,67.327Z" style="fill: none; stroke-width: 2;"/></g></g></g><g id="shape-fbf06378-181e-80bb-8002-69b869d3af09"><g class="fills" id="fills-fbf06378-181e-80bb-8002-69b869d3af09"><path rx="0" ry="0" d="M235.596,67.327L96.329,67.327L96.329,150.099C96.331,152.395,98.191,154.255,100.487,154.257L118.174,154.257C120.470,154.255,122.330,152.395,122.333,150.099L122.333,135.533C122.333,133.236,124.194,131.374,126.491,131.374L158.919,131.374C161.215,131.374,163.077,133.236,163.077,135.533L163.077,139.861Z" style="fill: rgb(74, 207, 255);"/></g><g id="strokes-fbf06378-181e-80bb-8002-69b869d3af09" class="strokes"><g class="stroke-shape"><path rx="0" ry="0" d="M235.596,67.327L96.329,67.327L96.329,150.099C96.331,152.395,98.191,154.255,100.487,154.257L118.174,154.257C120.470,154.255,122.330,152.395,122.333,150.099L122.333,135.533C122.333,133.236,124.194,131.374,126.491,131.374L158.919,131.374C161.215,131.374,163.077,133.236,163.077,135.533L163.077,139.861Z" style="fill: none; stroke-width: 2;"/></g></g></g><g id="shape-fbf06378-181e-80bb-8002-69b869d3cb5d"><g class="fills" id="fills-fbf06378-181e-80bb-8002-69b869d3cb5d"><path fill="none" stroke-linecap="round" stroke-linejoin="round" rx="0" ry="0" d="M307.632,67.327L307.632,123.057C307.629,125.353,305.769,127.214,303.473,127.216L277.450,127.216C275.153,127.216,273.291,129.078,273.291,131.374L273.291,148.008C273.289,150.304,271.428,152.164,269.133,152.166L234.966,152.166C232.671,152.164,230.810,150.304,230.808,148.008L230.808,120.978C230.808,118.682,228.946,116.820,226.650,116.820L194.396,116.820C192.099,116.820,190.238,118.682,190.238,120.978L190.238,158.416C190.235,160.712,188.375,162.572,186.079,162.574L167.236,162.574C164.940,162.572,163.079,160.712,163.077,158.416L163.077,135.533C163.077,133.236,161.215,131.374,158.919,131.374L126.491,131.374C124.194,131.374,122.333,133.236,122.333,135.533L122.333,150.099C122.330,152.395,120.470,154.255,118.174,154.257L100.487,154.257C98.191,154.255,96.331,152.395,96.329,150.099L96.329,67.327Z" style="fill: none;"/></g><g id="strokes-fbf06378-181e-80bb-8002-69b869d3cb5d" class="strokes"><g class="stroke-shape"><path stroke-linecap="round" stroke-linejoin="round" rx="0" ry="0" d="M307.632,67.327L307.632,123.057C307.629,125.353,305.769,127.214,303.473,127.216L277.450,127.216C275.153,127.216,273.291,129.078,273.291,131.374L273.291,148.008C273.289,150.304,271.428,152.164,269.133,152.166L234.966,152.166C232.671,152.164,230.810,150.304,230.808,148.008L230.808,120.978C230.808,118.682,228.946,116.820,226.650,116.820L194.396,116.820C192.099,116.820,190.238,118.682,190.238,120.978L190.238,158.416C190.235,160.712,188.375,162.572,186.079,162.574L167.236,162.574C164.940,162.572,163.079,160.712,163.077,158.416L163.077,135.533C163.077,133.236,161.215,131.374,158.919,131.374L126.491,131.374C124.194,131.374,122.333,133.236,122.333,135.533L122.333,150.099C122.330,152.395,120.470,154.255,118.174,154.257L100.487,154.257C98.191,154.255,96.331,152.395,96.329,150.099L96.329,67.327Z" style="fill: none; stroke-width: 2; stroke: rgb(0, 0, 0);"/></g></g></g><g id="shape-fbf06378-181e-80bb-8002-69b869d42c55" rx="0" ry="0" style="fill: rgb(0, 0, 0);"><g id="shape-fbf06378-181e-80bb-8002-69b869d42c56"><g class="fills" id="fills-fbf06378-181e-80bb-8002-69b869d42c56"><rect width="19.065346534653145" height="19.0653465346536" x="124.39603960396062" stroke-linejoin="round" transform="matrix(1.000000, 0.000000, 0.000000, 1.000000, 0.000000, 0.000000)" style="fill: rgb(156, 235, 96);" ry="1.05" stroke-linecap="round" rx="1.05" y="164.0316831683167"/></g><g id="strokes-fbf06378-181e-80bb-8002-69b869d42c56" class="strokes"><g class="stroke-shape"><rect width="19.065346534653145" height="19.0653465346536" x="124.39603960396062" stroke-linejoin="round" transform="matrix(1.000000, 0.000000, 0.000000, 1.000000, 0.000000, 0.000000)" style="fill: none; stroke-width: 2; stroke: rgb(0, 0, 0);" ry="1.05" stroke-linecap="round" rx="1.05" y="164.0316831683167"/></g></g></g><g id="shape-fbf06378-181e-80bb-8002-69b869d42c57"><g class="fills" id="fills-fbf06378-181e-80bb-8002-69b869d42c57"><rect width="24.28118811881177" height="24.281188118812224" x="199.95643564356442" stroke-linejoin="round" transform="matrix(1.000000, 0.000000, 0.000000, 1.000000, 0.000000, 0.000000)" style="fill: rgb(74, 207, 255);" ry="1.05" stroke-linecap="round" rx="1.05" y="160.92673267326745"/></g><g id="strokes-fbf06378-181e-80bb-8002-69b869d42c57" class="strokes"><g class="stroke-shape"><rect width="24.28118811881177" height="24.281188118812224" x="199.95643564356442" stroke-linejoin="round" transform="matrix(1.000000, 0.000000, 0.000000, 1.000000, 0.000000, 0.000000)" style="fill: none; stroke-width: 2; stroke: rgb(0, 0, 0);" ry="1.05" stroke-linecap="round" rx="1.05" y="160.92673267326745"/></g></g></g><g id="shape-fbf06378-181e-80bb-8002-69b869d42c58"><g class="fills" id="fills-fbf06378-181e-80bb-8002-69b869d42c58"><rect width="20.063366336633862" height="20.063366336633862" x="266.48712871287125" stroke-linejoin="round" transform="matrix(1.000000, 0.000000, 0.000000, 1.000000, 0.000000, 0.000000)" style="fill: rgb(255, 229, 0);" ry="1.05" stroke-linecap="round" rx="1.05" y="163.03366336633644"/></g><g id="strokes-fbf06378-181e-80bb-8002-69b869d42c58" class="strokes"><g class="stroke-shape"><rect width="20.063366336633862" height="20.063366336633862" x="266.48712871287125" stroke-linejoin="round" transform="matrix(1.000000, 0.000000, 0.000000, 1.000000, 0.000000, 0.000000)" style="fill: none; stroke-width: 2; stroke: rgb(0, 0, 0);" ry="1.05" stroke-linecap="round" rx="1.05" y="163.03366336633644"/></g></g></g><g id="shape-fbf06378-181e-80bb-8002-69b869d42c59"><g class="fills" id="fills-fbf06378-181e-80bb-8002-69b869d42c59"><rect width="15.51683168316822" height="15.516831683167766" x="235.5960396039609" stroke-linejoin="round" transform="matrix(1.000000, 0.000000, 0.000000, 1.000000, 0.000000, 0.000000)" style="fill: rgb(255, 134, 110);" ry="1.05" stroke-linecap="round" rx="1.05" y="194.30495049504907"/></g><g id="strokes-fbf06378-181e-80bb-8002-69b869d42c59" class="strokes"><g class="stroke-shape"><rect width="15.51683168316822" height="15.516831683167766" x="235.5960396039609" stroke-linejoin="round" transform="matrix(1.000000, 0.000000, 0.000000, 1.000000, 0.000000, 0.000000)" style="fill: none; stroke-width: 2; stroke: rgb(0, 0, 0);" ry="1.05" stroke-linecap="round" rx="1.05" y="194.30495049504907"/></g></g></g><g id="shape-fbf06378-181e-80bb-8002-69b869d44e72"><g class="fills" id="fills-fbf06378-181e-80bb-8002-69b869d44e72"><rect width="15.516831683168675" height="15.516831683167766" x="156.62178217821793" stroke-linejoin="round" transform="matrix(1.000000, 0.000000, 0.000000, 1.000000, 0.000000, 0.000000)" style="fill: rgb(255, 134, 110);" ry="1.05" stroke-linecap="round" rx="1.05" y="197.26732673267315"/></g><g id="strokes-fbf06378-181e-80bb-8002-69b869d44e72" class="strokes"><g class="stroke-shape"><rect width="15.516831683168675" height="15.516831683167766" x="156.62178217821793" stroke-linejoin="round" transform="matrix(1.000000, 0.000000, 0.000000, 1.000000, 0.000000, 0.000000)" style="fill: none; stroke-width: 2; stroke: rgb(0, 0, 0);" ry="1.05" stroke-linecap="round" rx="1.05" y="197.26732673267315"/></g></g></g></g><g id="shape-fbf06378-181e-80bb-8002-69b869d44e73" rx="0" ry="0" style="fill: rgb(0, 0, 0);"><g id="shape-fbf06378-181e-80bb-8002-69b869d44e74"><g class="fills" id="fills-fbf06378-181e-80bb-8002-69b869d44e74"><ellipse stroke-linecap="round" stroke-linejoin="round" rx="5.504950495049343" ry="5.504950495049343" cx="113.29108910891091" cy="52.71683168316849" transform="matrix(1.000000, 0.000000, 0.000000, 1.000000, 0.000000, 0.000000)" style="fill: rgb(255, 98, 66);"/></g><g id="strokes-fbf06378-181e-80bb-8002-69b869d44e74" class="strokes"><g class="stroke-shape"><ellipse stroke-linecap="round" stroke-linejoin="round" rx="5.504950495049343" ry="5.504950495049343" cx="113.29108910891091" cy="52.71683168316849" transform="matrix(1.000000, 0.000000, 0.000000, 1.000000, 0.000000, 0.000000)" style="fill: none; stroke-width: 2; stroke: rgb(255, 98, 66);"/></g></g></g><g id="shape-fbf06378-181e-80bb-8002-69b869d44e75"><g class="fills" id="fills-fbf06378-181e-80bb-8002-69b869d44e75"><ellipse stroke-linecap="round" stroke-linejoin="round" rx="5.50495049504957" ry="5.504950495049343" cx="134.7524752475249" cy="52.71683168316849" transform="matrix(1.000000, 0.000000, 0.000000, 1.000000, 0.000000, 0.000000)" style="fill: rgb(255, 229, 0);"/></g><g id="strokes-fbf06378-181e-80bb-8002-69b869d44e75" class="strokes"><g class="stroke-shape"><ellipse stroke-linecap="round" stroke-linejoin="round" rx="5.50495049504957" ry="5.504950495049343" cx="134.7524752475249" cy="52.71683168316849" transform="matrix(1.000000, 0.000000, 0.000000, 1.000000, 0.000000, 0.000000)" style="fill: none; stroke-width: 2; stroke: rgb(255, 229, 0);"/></g></g></g><g id="shape-fbf06378-181e-80bb-8002-69b869d44e76"><g class="fills" id="fills-fbf06378-181e-80bb-8002-69b869d44e76"><ellipse stroke-linecap="round" stroke-linejoin="round" rx="5.50495049504957" ry="5.504950495049343" cx="156.21386138613866" cy="52.71683168316849" transform="matrix(1.000000, 0.000000, 0.000000, 1.000000, 0.000000, 0.000000)" style="fill: rgb(109, 214, 39);"/></g><g id="strokes-fbf06378-181e-80bb-8002-69b869d44e76" class="strokes"><g class="stroke-shape"><ellipse stroke-linecap="round" stroke-linejoin="round" rx="5.50495049504957" ry="5.504950495049343" cx="156.21386138613866" cy="52.71683168316849" transform="matrix(1.000000, 0.000000, 0.000000, 1.000000, 0.000000, 0.000000)" style="fill: none; stroke-width: 2; stroke: rgb(109, 214, 39);"/></g></g></g></g></g></svg>