<svg xmlns:xlink="http://www.w3.org/1999/xlink" width="473.25" xmlns="http://www.w3.org/2000/svg" height="473.25" id="screenshot-6d4b4d25-c835-809c-8002-6ec8bf9477de" viewBox="-1.125 -1.125 473.25 473.25" style="-webkit-print-color-adjust: exact;" fill="none" version="1.1"><g id="shape-6d4b4d25-c835-809c-8002-6ec8bf9477de" rx="0" ry="0" style="fill: rgb(0, 0, 0);"><g id="shape-6d4b4d25-c835-809c-8002-6ec8bf94ac17"><g class="fills" id="fills-6d4b4d25-c835-809c-8002-6ec8bf94ac17"><rect rx="1.05" ry="1.05" x="98.85185185185219" y="105.38305185185209" transform="matrix(1.000000, 0.000000, 0.000000, 1.000000, 0.000000, 0.000000)" width="276.7851851851847" height="23.30577777777745" style="fill: rgb(130, 146, 162);"/></g><g id="strokes-6d4b4d25-c835-809c-8002-6ec8bf94ac17" class="strokes"><g class="stroke-shape"><rect rx="1.05" ry="1.05" x="98.85185185185219" y="105.38305185185209" transform="matrix(1.000000, 0.000000, 0.000000, 1.000000, 0.000000, 0.000000)" width="276.7851851851847" height="23.30577777777745" style="fill: none; stroke-width: 2.25;"/></g></g></g><g id="shape-6d4b4d25-c835-809c-8002-6ec8bf94cce9"><g class="fills" id="fills-6d4b4d25-c835-809c-8002-6ec8bf94cce9"><path rx="0" ry="0" d="M370.753,105.383L103.736,105.383C102.441,105.383,101.198,105.898,100.282,106.814C99.366,107.730,98.852,108.972,98.852,110.267L98.852,121.255C98.852,119.960,99.366,118.717,100.282,117.801C101.198,116.885,102.441,116.371,103.736,116.371L370.753,116.371C373.450,116.371,375.637,118.558,375.637,121.255L375.637,110.249C375.627,107.559,373.443,105.383,370.753,105.383ZZ" style="fill: rgb(173, 196, 217);"/></g><g id="strokes-6d4b4d25-c835-809c-8002-6ec8bf94cce9" class="strokes"><g class="stroke-shape"><path rx="0" ry="0" d="M370.753,105.383L103.736,105.383C102.441,105.383,101.198,105.898,100.282,106.814C99.366,107.730,98.852,108.972,98.852,110.267L98.852,121.255C98.852,119.960,99.366,118.717,100.282,117.801C101.198,116.885,102.441,116.371,103.736,116.371L370.753,116.371C373.450,116.371,375.637,118.558,375.637,121.255L375.637,110.249C375.627,107.559,373.443,105.383,370.753,105.383ZZ" style="fill: none; stroke-width: 2.25;"/></g></g></g><g id="shape-6d4b4d25-c835-809c-8002-6ec8bf94ccea"><g class="fills" id="fills-6d4b4d25-c835-809c-8002-6ec8bf94ccea"><rect width="276.7851851851847" height="23.30577777777745" x="98.85185185185219" stroke-linejoin="round" transform="matrix(1.000000, 0.000000, 0.000000, 1.000000, 0.000000, 0.000000)" style="fill: none;" ry="1.05" fill="none" stroke-linecap="round" rx="1.05" y="105.38305185185209"/></g><g id="strokes-6d4b4d25-c835-809c-8002-6ec8bf94ccea" class="strokes"><g class="stroke-shape"><rect width="276.7851851851847" height="23.30577777777745" x="98.85185185185219" stroke-linejoin="round" transform="matrix(1.000000, 0.000000, 0.000000, 1.000000, 0.000000, 0.000000)" style="fill: none; stroke-width: 2.25; stroke: rgb(0, 0, 0);" ry="1.05" stroke-linecap="round" rx="1.05" y="105.38305185185209"/></g></g></g><g id="shape-6d4b4d25-c835-809c-8002-6ec8bf953b38"><g class="fills" id="fills-6d4b4d25-c835-809c-8002-6ec8bf953b38"><path rx="0" ry="0" d="M364.635,305.092C364.635,307.789,362.449,309.976,359.751,309.976L114.738,309.976C112.040,309.976,109.853,307.789,109.853,305.092L109.853,128.689L364.635,128.689Z" style="fill: rgb(255, 255, 255);"/></g><g id="strokes-6d4b4d25-c835-809c-8002-6ec8bf953b38" class="strokes"><g class="stroke-shape"><path rx="0" ry="0" d="M364.635,305.092C364.635,307.789,362.449,309.976,359.751,309.976L114.738,309.976C112.040,309.976,109.853,307.789,109.853,305.092L109.853,128.689L364.635,128.689Z" style="fill: none; stroke-width: 2.25;"/></g></g></g><g id="shape-6d4b4d25-c835-809c-8002-6ec8bf953b3a"><g class="fills" id="fills-6d4b4d25-c835-809c-8002-6ec8bf953b3a"><path stroke-linecap="round" stroke-linejoin="round" fill="none" rx="0" ry="0" d="M364.635,305.092C364.635,307.789,362.449,309.976,359.751,309.976L114.738,309.976C112.040,309.976,109.853,307.789,109.853,305.092L109.853,128.689L364.635,128.689ZM237.244,309.976L237.244,335.059" style="fill: none;"/></g><g id="strokes-6d4b4d25-c835-809c-8002-6ec8bf953b3a" class="strokes"><g class="stroke-shape"><path stroke-linecap="round" stroke-linejoin="round" rx="0" ry="0" d="M364.635,305.092C364.635,307.789,362.449,309.976,359.751,309.976L114.738,309.976C112.040,309.976,109.853,307.789,109.853,305.092L109.853,128.689L364.635,128.689ZM237.244,309.976L237.244,335.059" style="fill: none; stroke-width: 2.25; stroke: rgb(0, 0, 0);"/></g></g></g><g id="shape-6d4b4d25-c835-809c-8002-6ec8bf953b3b"><g class="fills" id="fills-6d4b4d25-c835-809c-8002-6ec8bf953b3b"><ellipse cy="346.89324444444435" stroke-linejoin="round" transform="matrix(1.000000, 0.000000, 0.000000, 1.000000, 0.000000, 0.000000)" style="fill: none;" ry="11.838962962963137" fill="none" stroke-linecap="round" rx="11.838962962962455" cx="237.24444444444418"/></g><g id="strokes-6d4b4d25-c835-809c-8002-6ec8bf953b3b" class="strokes"><g class="stroke-shape"><ellipse stroke-linecap="round" stroke-linejoin="round" rx="11.838962962962455" ry="11.838962962963137" cx="237.24444444444418" cy="346.89324444444435" transform="matrix(1.000000, 0.000000, 0.000000, 1.000000, 0.000000, 0.000000)" style="fill: none; stroke-width: 2.25; stroke: rgb(0, 0, 0);"/></g></g></g><g id="shape-6d4b4d25-c835-809c-8002-6ec8bf95520b"><g class="fills" id="fills-6d4b4d25-c835-809c-8002-6ec8bf95520b"><ellipse rx="68.8381037037035" ry="8.424503703703522" cx="237.24444444444464" cy="382.14032592592616" transform="matrix(1.000000, 0.000000, 0.000000, 1.000000, 0.000000, 0.000000)" style="opacity: 0.15; fill: rgb(0, 0, 0);"/></g><g id="strokes-6d4b4d25-c835-809c-8002-6ec8bf95520b" class="strokes"><g class="stroke-shape"><ellipse rx="68.8381037037035" ry="8.424503703703522" cx="237.24444444444464" cy="382.14032592592616" transform="matrix(1.000000, 0.000000, 0.000000, 1.000000, 0.000000, 0.000000)" style="opacity: 0.15; fill: none; stroke-width: 2.25;"/></g></g></g><g id="shape-6d4b4d25-c835-809c-8002-6ec8bf95520c" rx="0" ry="0" style="fill: rgb(0, 0, 0);"><g id="shape-6d4b4d25-c835-809c-8002-6ec8bf95d22b"><g class="fills" id="fills-6d4b4d25-c835-809c-8002-6ec8bf95d22b"><path stroke-linecap="round" stroke-linejoin="round" rx="0" ry="0" d="M221.121,266.551C217.977,266.559,215.040,264.982,213.309,262.358C211.578,259.733,211.285,256.413,212.529,253.526L243.548,181.320C245.582,176.576,251.078,174.380,255.822,176.415C260.566,178.449,262.762,183.944,260.727,188.688L229.708,260.890C228.238,264.326,224.859,266.554,221.121,266.551ZZM205.095,236.444C205.548,235.389,205.210,234.161,204.281,233.486L187.795,221.493L211.334,207.794C214.991,205.668,216.765,201.352,215.658,197.269C214.552,193.187,210.842,190.356,206.612,190.368C204.967,190.372,203.351,190.804,201.923,191.619L165.997,212.552C163.266,214.139,161.522,216.998,161.360,220.152C161.197,223.306,162.639,226.328,165.192,228.187L195.815,250.465C196.420,250.912,197.197,251.057,197.923,250.858C198.649,250.660,199.243,250.139,199.537,249.446ZM308.483,228.169C311.037,226.307,312.478,223.282,312.314,220.126C312.150,216.970,310.402,214.111,307.669,212.525L278.506,195.555C277.297,194.853,275.846,194.702,274.518,195.140C273.191,195.578,272.114,196.564,271.561,197.848L267.156,208.082C266.668,209.224,267.107,210.550,268.179,211.175L285.880,221.475L261.560,239.152C257.382,242.190,256.455,248.038,259.490,252.219C260.948,254.226,263.146,255.571,265.597,255.956C268.048,256.342,270.552,255.737,272.557,254.275Z" style="fill: rgb(0, 184, 240);"/></g><g id="strokes-6d4b4d25-c835-809c-8002-6ec8bf95d22b" class="strokes"><g class="stroke-shape"><path stroke-linecap="round" stroke-linejoin="round" rx="0" ry="0" d="M221.121,266.551C217.977,266.559,215.040,264.982,213.309,262.358C211.578,259.733,211.285,256.413,212.529,253.526L243.548,181.320C245.582,176.576,251.078,174.380,255.822,176.415C260.566,178.449,262.762,183.944,260.727,188.688L229.708,260.890C228.238,264.326,224.859,266.554,221.121,266.551ZZM205.095,236.444C205.548,235.389,205.210,234.161,204.281,233.486L187.795,221.493L211.334,207.794C214.991,205.668,216.765,201.352,215.658,197.269C214.552,193.187,210.842,190.356,206.612,190.368C204.967,190.372,203.351,190.804,201.923,191.619L165.997,212.552C163.266,214.139,161.522,216.998,161.360,220.152C161.197,223.306,162.639,226.328,165.192,228.187L195.815,250.465C196.420,250.912,197.197,251.057,197.923,250.858C198.649,250.660,199.243,250.139,199.537,249.446ZM308.483,228.169C311.037,226.307,312.478,223.282,312.314,220.126C312.150,216.970,310.402,214.111,307.669,212.525L278.506,195.555C277.297,194.853,275.846,194.702,274.518,195.140C273.191,195.578,272.114,196.564,271.561,197.848L267.156,208.082C266.668,209.224,267.107,210.550,268.179,211.175L285.880,221.475L261.560,239.152C257.382,242.190,256.455,248.038,259.490,252.219C260.948,254.226,263.146,255.571,265.597,255.956C268.048,256.342,270.552,255.737,272.557,254.275Z" style="fill: none; stroke-width: 2.25; stroke: rgb(0, 0, 0);"/></g></g></g><g id="shape-6d4b4d25-c835-809c-8002-6ec8bf96347f"><g class="fills" id="fills-6d4b4d25-c835-809c-8002-6ec8bf96347f"><path stroke-linecap="round" stroke-linejoin="round" rx="0" ry="0" d="M221.121,266.551C217.977,266.559,215.040,264.982,213.309,262.358C211.578,259.733,211.285,256.413,212.529,253.526L243.548,181.320C245.582,176.576,251.078,174.380,255.822,176.415C260.566,178.449,262.762,183.944,260.727,188.688L229.708,260.890C228.238,264.326,224.859,266.554,221.121,266.551ZZ" style="fill: rgb(0, 184, 240);"/></g><g id="strokes-6d4b4d25-c835-809c-8002-6ec8bf96347f" class="strokes"><g class="stroke-shape"><path stroke-linecap="round" stroke-linejoin="round" rx="0" ry="0" d="M221.121,266.551C217.977,266.559,215.040,264.982,213.309,262.358C211.578,259.733,211.285,256.413,212.529,253.526L243.548,181.320C245.582,176.576,251.078,174.380,255.822,176.415C260.566,178.449,262.762,183.944,260.727,188.688L229.708,260.890C228.238,264.326,224.859,266.554,221.121,266.551ZZ" style="fill: none; stroke-width: 2.25; stroke: rgb(0, 0, 0);"/></g></g></g></g></g></svg>