<svg xmlns:xlink="http://www.w3.org/1999/xlink" width="402" xmlns="http://www.w3.org/2000/svg" height="402" id="screenshot-a3165952-13bd-806b-8002-6c55a736de0e" viewBox="-1 -1 402 402" style="-webkit-print-color-adjust: exact;" fill="none" version="1.1"><g id="shape-a3165952-13bd-806b-8002-6c55a736de0e" rx="0" ry="0" style="fill: rgb(0, 0, 0);"><g id="shape-a3165952-13bd-806b-8002-6c55a7375f2e"><g class="fills" id="fills-a3165952-13bd-806b-8002-6c55a7375f2e"><path rx="0" ry="0" d="M43.564,207.430C43.564,294.920,114.490,365.846,201.980,365.846C289.471,365.846,360.396,294.920,360.396,207.430C360.396,119.939,289.471,49.014,201.980,49.014C114.490,49.014,43.564,119.939,43.564,207.430ZZ" style="fill: rgb(245, 245, 245);"/></g><g id="strokes-a3165952-13bd-806b-8002-6c55a7375f2e" class="strokes"><g class="stroke-shape"><path rx="0" ry="0" d="M43.564,207.430C43.564,294.920,114.490,365.846,201.980,365.846C289.471,365.846,360.396,294.920,360.396,207.430C360.396,119.939,289.471,49.014,201.980,49.014C114.490,49.014,43.564,119.939,43.564,207.430ZZ" style="fill: none; stroke-width: 2; stroke: rgb(245, 245, 245);"/></g></g></g><g id="shape-a3165952-13bd-806b-8002-6c55a737987f"><g class="fills" id="fills-a3165952-13bd-806b-8002-6c55a737987f"><path rx="0" ry="0" d="M142.238,333.232C142.238,337.718,168.100,341.354,200.004,341.354C231.907,341.354,257.770,337.718,257.770,333.232C257.770,328.746,231.907,325.109,200.004,325.109C168.100,325.109,142.238,328.746,142.238,333.232ZZ" style="opacity: 0.15; fill: rgb(0, 0, 0);"/></g><g id="strokes-a3165952-13bd-806b-8002-6c55a737987f" class="strokes"><g class="stroke-shape"><path rx="0" ry="0" d="M142.238,333.232C142.238,337.718,168.100,341.354,200.004,341.354C231.907,341.354,257.770,337.718,257.770,333.232C257.770,328.746,231.907,325.109,200.004,325.109C168.100,325.109,142.238,328.746,142.238,333.232ZZ" style="opacity: 0.15; fill: none; stroke-width: 2;"/></g></g></g><g id="shape-a3165952-13bd-806b-8002-6c55a7379880"><g class="fills" id="fills-a3165952-13bd-806b-8002-6c55a7379880"><path rx="0" ry="0" d="M153.613,266.244L180.056,260.437L182.960,273.658L156.517,279.466Z" style="fill: rgb(245, 245, 245);"/></g><g id="strokes-a3165952-13bd-806b-8002-6c55a7379880" class="strokes"><g class="stroke-shape"><path rx="0" ry="0" d="M153.613,266.244L180.056,260.437L182.960,273.658L156.517,279.466Z" style="fill: none; stroke-width: 2;"/></g></g></g><g id="shape-a3165952-13bd-806b-8002-6c55a7379881"><g class="fills" id="fills-a3165952-13bd-806b-8002-6c55a7379881"><path rx="0" ry="0" d="M166.840,263.340L180.061,260.436L182.965,273.658L169.744,276.562Z" style="fill: rgb(245, 245, 245);"/></g><g id="strokes-a3165952-13bd-806b-8002-6c55a7379881" class="strokes"><g class="stroke-shape"><path rx="0" ry="0" d="M166.840,263.340L180.061,260.436L182.965,273.658L169.744,276.562Z" style="fill: none; stroke-width: 2;"/></g></g></g><g id="shape-a3165952-13bd-806b-8002-6c55a7379882"><g class="fills" id="fills-a3165952-13bd-806b-8002-6c55a7379882"><path rx="0" ry="0" d="M126.900,144.596L153.343,138.788L180.060,260.435L153.617,266.243Z" style="fill: rgb(109, 214, 39);"/></g><g id="strokes-a3165952-13bd-806b-8002-6c55a7379882" class="strokes"><g class="stroke-shape"><path rx="0" ry="0" d="M126.900,144.596L153.343,138.788L180.060,260.435L153.617,266.243Z" style="fill: none; stroke-width: 2;"/></g></g></g><g id="shape-a3165952-13bd-806b-8002-6c55a737e7ff"><g class="fills" id="fills-a3165952-13bd-806b-8002-6c55a737e7ff"><path rx="0" ry="0" d="M140.120,141.696L153.341,138.792L180.058,260.440L166.836,263.343Z" style="fill: rgb(156, 235, 96);"/></g><g id="strokes-a3165952-13bd-806b-8002-6c55a737e7ff" class="strokes"><g class="stroke-shape"><path rx="0" ry="0" d="M140.120,141.696L153.341,138.792L180.058,260.440L166.836,263.343Z" style="fill: none; stroke-width: 2;"/></g></g></g><g id="shape-a3165952-13bd-806b-8002-6c55a737e800"><g class="fills" id="fills-a3165952-13bd-806b-8002-6c55a737e800"><path rx="0" ry="0" d="M153.347,138.788L133.152,109.960L126.899,144.598L153.347,138.788ZZ" style="fill: rgb(255, 218, 143);"/></g><g id="strokes-a3165952-13bd-806b-8002-6c55a737e800" class="strokes"><g class="stroke-shape"><path rx="0" ry="0" d="M153.347,138.788L133.152,109.960L126.899,144.598L153.347,138.788ZZ" style="fill: none; stroke-width: 2;"/></g></g></g><g id="shape-a3165952-13bd-806b-8002-6c55a737e801"><g class="fills" id="fills-a3165952-13bd-806b-8002-6c55a737e801"><path rx="0" ry="0" d="M153.347,138.788L133.152,109.960L140.123,141.691L153.347,138.788ZZ" style="fill: rgb(255, 251, 229);"/></g><g id="strokes-a3165952-13bd-806b-8002-6c55a737e801" class="strokes"><g class="stroke-shape"><path rx="0" ry="0" d="M153.347,138.788L133.152,109.960L140.123,141.691L153.347,138.788ZZ" style="fill: none; stroke-width: 2;"/></g></g></g><g id="shape-a3165952-13bd-806b-8002-6c55a737e802"><g class="fills" id="fills-a3165952-13bd-806b-8002-6c55a737e802"><path rx="0" ry="0" d="M184.709,281.584C185.746,286.308,184.184,291.226,180.612,294.486C177.040,297.746,172.000,298.853,167.390,297.389C162.781,295.925,159.302,292.114,158.265,287.390L156.523,279.469L182.970,273.663Z" style="fill: rgb(255, 98, 66);"/></g><g id="strokes-a3165952-13bd-806b-8002-6c55a737e802" class="strokes"><g class="stroke-shape"><path rx="0" ry="0" d="M184.709,281.584C185.746,286.308,184.184,291.226,180.612,294.486C177.040,297.746,172.000,298.853,167.390,297.389C162.781,295.925,159.302,292.114,158.265,287.390L156.523,279.469L182.970,273.663Z" style="fill: none; stroke-width: 2;"/></g></g></g><g id="shape-a3165952-13bd-806b-8002-6c55a7382ec7"><g class="fills" id="fills-a3165952-13bd-806b-8002-6c55a7382ec7"><path rx="0" ry="0" d="M174.392,297.719C177.900,296.949,180.959,294.816,182.894,291.789C184.829,288.763,185.482,285.092,184.709,281.584L182.966,273.663L169.743,276.570Z" style="fill: rgb(255, 134, 110);"/></g><g id="strokes-a3165952-13bd-806b-8002-6c55a7382ec7" class="strokes"><g class="stroke-shape"><path rx="0" ry="0" d="M174.392,297.719C177.900,296.949,180.959,294.816,182.894,291.789C184.829,288.763,185.482,285.092,184.709,281.584L182.966,273.663L169.743,276.570Z" style="fill: none; stroke-width: 2;"/></g></g></g><g id="shape-a3165952-13bd-806b-8002-6c55a7382ec8"><g class="fills" id="fills-a3165952-13bd-806b-8002-6c55a7382ec8"><path fill="none" stroke-linecap="round" stroke-linejoin="round" rx="0" ry="0" d="M184.709,281.584C185.746,286.308,184.184,291.226,180.612,294.486C177.040,297.746,172.000,298.853,167.390,297.389C162.781,295.925,159.302,292.114,158.265,287.390L156.523,279.469L182.970,273.663Z" style="fill: none;"/></g><g id="strokes-a3165952-13bd-806b-8002-6c55a7382ec8" class="strokes"><g class="stroke-shape"><path stroke-linecap="round" stroke-linejoin="round" rx="0" ry="0" d="M184.709,281.584C185.746,286.308,184.184,291.226,180.612,294.486C177.040,297.746,172.000,298.853,167.390,297.389C162.781,295.925,159.302,292.114,158.265,287.390L156.523,279.469L182.970,273.663Z" style="fill: none; stroke-width: 2; stroke: rgb(0, 0, 0);"/></g></g></g><g id="shape-a3165952-13bd-806b-8002-6c55a7382ec9"><g class="fills" id="fills-a3165952-13bd-806b-8002-6c55a7382ec9"><path fill="none" stroke-linecap="round" stroke-linejoin="round" rx="0" ry="0" d="M153.613,266.244L180.056,260.437L182.960,273.658L156.517,279.466Z" style="fill: none;"/></g><g id="strokes-a3165952-13bd-806b-8002-6c55a7382ec9" class="strokes"><g class="stroke-shape"><path stroke-linecap="round" stroke-linejoin="round" rx="0" ry="0" d="M153.613,266.244L180.056,260.437L182.960,273.658L156.517,279.466Z" style="fill: none; stroke-width: 2; stroke: rgb(0, 0, 0);"/></g></g></g><g id="shape-a3165952-13bd-806b-8002-6c55a7387e42"><g class="fills" id="fills-a3165952-13bd-806b-8002-6c55a7387e42"><path fill="none" stroke-linecap="round" stroke-linejoin="round" rx="0" ry="0" d="M126.900,144.596L153.343,138.788L180.060,260.435L153.617,266.243Z" style="fill: none;"/></g><g id="strokes-a3165952-13bd-806b-8002-6c55a7387e42" class="strokes"><g class="stroke-shape"><path stroke-linecap="round" stroke-linejoin="round" rx="0" ry="0" d="M126.900,144.596L153.343,138.788L180.060,260.435L153.617,266.243Z" style="fill: none; stroke-width: 2; stroke: rgb(0, 0, 0);"/></g></g></g><g id="shape-a3165952-13bd-806b-8002-6c55a7387e43"><g class="fills" id="fills-a3165952-13bd-806b-8002-6c55a7387e43"><path fill="none" stroke-linecap="round" stroke-linejoin="round" rx="0" ry="0" d="M153.347,138.788L133.152,109.960L126.899,144.598L153.347,138.788ZZ" style="fill: none;"/></g><g id="strokes-a3165952-13bd-806b-8002-6c55a7387e43" class="strokes"><g class="stroke-shape"><path stroke-linecap="round" stroke-linejoin="round" rx="0" ry="0" d="M153.347,138.788L133.152,109.960L126.899,144.598L153.347,138.788ZZ" style="fill: none; stroke-width: 2; stroke: rgb(0, 0, 0);"/></g></g></g><g id="shape-a3165952-13bd-806b-8002-6c55a7387e44"><g class="fills" id="fills-a3165952-13bd-806b-8002-6c55a7387e44"><path rx="0" ry="0" d="M202.709,44.610C202.711,41.022,205.620,38.115,209.208,38.115L236.832,38.115C240.422,38.115,243.332,41.024,243.335,44.614L243.335,272.582C243.330,276.171,240.421,279.079,236.832,279.081L209.212,279.081C207.488,279.081,205.835,278.396,204.616,277.178C203.398,275.959,202.713,274.306,202.713,272.582Z" style="fill: rgb(245, 245, 245);"/></g><g id="strokes-a3165952-13bd-806b-8002-6c55a7387e44" class="strokes"><g class="stroke-shape"><path rx="0" ry="0" d="M202.709,44.610C202.711,41.022,205.620,38.115,209.208,38.115L236.832,38.115C240.422,38.115,243.332,41.024,243.335,44.614L243.335,272.582C243.330,276.171,240.421,279.079,236.832,279.081L209.212,279.081C207.488,279.081,205.835,278.396,204.616,277.178C203.398,275.959,202.713,274.306,202.713,272.582Z" style="fill: none; stroke-width: 2;"/></g></g></g><g id="shape-a3165952-13bd-806b-8002-6c55a738b491"><g class="fills" id="fills-a3165952-13bd-806b-8002-6c55a738b491"><path rx="0" ry="0" d="M223.283,38.115C226.872,38.115,229.782,41.025,229.782,44.614L229.782,272.582C229.780,276.169,226.874,279.077,223.287,279.081L236.832,279.081C240.419,279.077,243.326,276.170,243.331,272.582L243.331,44.614C243.329,41.025,240.420,38.117,236.832,38.115Z" style="fill: rgb(255, 255, 255);"/></g><g id="strokes-a3165952-13bd-806b-8002-6c55a738b491" class="strokes"><g class="stroke-shape"><path rx="0" ry="0" d="M223.283,38.115C226.872,38.115,229.782,41.025,229.782,44.614L229.782,272.582C229.780,276.169,226.874,279.077,223.287,279.081L236.832,279.081C240.419,279.077,243.326,276.170,243.331,272.582L243.331,44.614C243.329,41.025,240.420,38.117,236.832,38.115Z" style="fill: none; stroke-width: 2;"/></g></g></g><g id="shape-a3165952-13bd-806b-8002-6c55a738c264"><g class="fills" id="fills-a3165952-13bd-806b-8002-6c55a738c264"><path fill="none" stroke-linecap="round" stroke-linejoin="round" rx="0" ry="0" d="M202.709,44.610C202.711,41.022,205.620,38.115,209.208,38.115L236.832,38.115C240.422,38.115,243.332,41.024,243.335,44.614L243.335,272.582C243.330,276.171,240.421,279.079,236.832,279.081L209.212,279.081C207.488,279.081,205.835,278.396,204.616,277.178C203.398,275.959,202.713,274.306,202.713,272.582Z" style="fill: none;"/></g><g id="strokes-a3165952-13bd-806b-8002-6c55a738c264" class="strokes"><g class="stroke-shape"><path stroke-linecap="round" stroke-linejoin="round" rx="0" ry="0" d="M202.709,44.610C202.711,41.022,205.620,38.115,209.208,38.115L236.832,38.115C240.422,38.115,243.332,41.024,243.335,44.614L243.335,272.582C243.330,276.171,240.421,279.079,236.832,279.081L209.212,279.081C207.488,279.081,205.835,278.396,204.616,277.178C203.398,275.959,202.713,274.306,202.713,272.582Z" style="fill: none; stroke-width: 2; stroke: rgb(0, 0, 0);"/></g></g></g><g id="shape-a3165952-13bd-806b-8002-6c55a738c265"><g class="fills" id="fills-a3165952-13bd-806b-8002-6c55a738c265"><path fill="none" stroke-linecap="round" stroke-linejoin="round" rx="0" ry="0" d="M243.319,73.311L227.077,73.311" style="fill: none;"/></g><g id="strokes-a3165952-13bd-806b-8002-6c55a738c265" class="strokes"><g class="stroke-shape"><path stroke-linecap="round" stroke-linejoin="round" rx="0" ry="0" d="M243.319,73.311L227.077,73.311" style="fill: none; stroke-width: 2; stroke: rgb(0, 0, 0);"/></g></g></g><g id="shape-a3165952-13bd-806b-8002-6c55a738c266"><g class="fills" id="fills-a3165952-13bd-806b-8002-6c55a738c266"><path fill="none" stroke-linecap="round" stroke-linejoin="round" rx="0" ry="0" d="M243.319,54.356L224.368,54.356" style="fill: none;"/></g><g id="strokes-a3165952-13bd-806b-8002-6c55a738c266" class="strokes"><g class="stroke-shape"><path stroke-linecap="round" stroke-linejoin="round" rx="0" ry="0" d="M243.319,54.356L224.368,54.356" style="fill: none; stroke-width: 2; stroke: rgb(0, 0, 0);"/></g></g></g><g id="shape-a3165952-13bd-806b-8002-6c55a738c267"><g class="fills" id="fills-a3165952-13bd-806b-8002-6c55a738c267"><path fill="none" stroke-linecap="round" stroke-linejoin="round" rx="0" ry="0" d="M243.319,111.216L227.077,111.216" style="fill: none;"/></g><g id="strokes-a3165952-13bd-806b-8002-6c55a738c267" class="strokes"><g class="stroke-shape"><path stroke-linecap="round" stroke-linejoin="round" rx="0" ry="0" d="M243.319,111.216L227.077,111.216" style="fill: none; stroke-width: 2; stroke: rgb(0, 0, 0);"/></g></g></g><g id="shape-a3165952-13bd-806b-8002-6c55a738c268"><g class="fills" id="fills-a3165952-13bd-806b-8002-6c55a738c268"><path fill="none" stroke-linecap="round" stroke-linejoin="round" rx="0" ry="0" d="M243.319,92.261L224.368,92.261" style="fill: none;"/></g><g id="strokes-a3165952-13bd-806b-8002-6c55a738c268" class="strokes"><g class="stroke-shape"><path stroke-linecap="round" stroke-linejoin="round" rx="0" ry="0" d="M243.319,92.261L224.368,92.261" style="fill: none; stroke-width: 2; stroke: rgb(0, 0, 0);"/></g></g></g><g id="shape-a3165952-13bd-806b-8002-6c55a738c269"><g class="fills" id="fills-a3165952-13bd-806b-8002-6c55a738c269"><path fill="none" stroke-linecap="round" stroke-linejoin="round" rx="0" ry="0" d="M243.319,149.121L227.077,149.121" style="fill: none;"/></g><g id="strokes-a3165952-13bd-806b-8002-6c55a738c269" class="strokes"><g class="stroke-shape"><path stroke-linecap="round" stroke-linejoin="round" rx="0" ry="0" d="M243.319,149.121L227.077,149.121" style="fill: none; stroke-width: 2; stroke: rgb(0, 0, 0);"/></g></g></g><g id="shape-a3165952-13bd-806b-8002-6c55a7390059"><g class="fills" id="fills-a3165952-13bd-806b-8002-6c55a7390059"><path fill="none" stroke-linecap="round" stroke-linejoin="round" rx="0" ry="0" d="M243.319,187.026L227.077,187.026" style="fill: none;"/></g><g id="strokes-a3165952-13bd-806b-8002-6c55a7390059" class="strokes"><g class="stroke-shape"><path stroke-linecap="round" stroke-linejoin="round" rx="0" ry="0" d="M243.319,187.026L227.077,187.026" style="fill: none; stroke-width: 2; stroke: rgb(0, 0, 0);"/></g></g></g><g id="shape-a3165952-13bd-806b-8002-6c55a739005a"><g class="fills" id="fills-a3165952-13bd-806b-8002-6c55a739005a"><path fill="none" stroke-linecap="round" stroke-linejoin="round" rx="0" ry="0" d="M243.319,130.166L224.368,130.166" style="fill: none;"/></g><g id="strokes-a3165952-13bd-806b-8002-6c55a739005a" class="strokes"><g class="stroke-shape"><path stroke-linecap="round" stroke-linejoin="round" rx="0" ry="0" d="M243.319,130.166L224.368,130.166" style="fill: none; stroke-width: 2; stroke: rgb(0, 0, 0);"/></g></g></g><g id="shape-a3165952-13bd-806b-8002-6c55a739005b"><g class="fills" id="fills-a3165952-13bd-806b-8002-6c55a739005b"><path fill="none" stroke-linecap="round" stroke-linejoin="round" rx="0" ry="0" d="M243.319,168.071L224.368,168.071" style="fill: none;"/></g><g id="strokes-a3165952-13bd-806b-8002-6c55a739005b" class="strokes"><g class="stroke-shape"><path stroke-linecap="round" stroke-linejoin="round" rx="0" ry="0" d="M243.319,168.071L224.368,168.071" style="fill: none; stroke-width: 2; stroke: rgb(0, 0, 0);"/></g></g></g><g id="shape-a3165952-13bd-806b-8002-6c55a739005c"><g class="fills" id="fills-a3165952-13bd-806b-8002-6c55a739005c"><path fill="none" stroke-linecap="round" stroke-linejoin="round" rx="0" ry="0" d="M243.319,224.931L232.491,224.931" style="fill: none;"/></g><g id="strokes-a3165952-13bd-806b-8002-6c55a739005c" class="strokes"><g class="stroke-shape"><path stroke-linecap="round" stroke-linejoin="round" rx="0" ry="0" d="M243.319,224.931L232.491,224.931" style="fill: none; stroke-width: 2; stroke: rgb(0, 0, 0);"/></g></g></g><g id="shape-a3165952-13bd-806b-8002-6c55a739005d"><g class="fills" id="fills-a3165952-13bd-806b-8002-6c55a739005d"><path fill="none" stroke-linecap="round" stroke-linejoin="round" rx="0" ry="0" d="M243.319,205.980L224.368,205.980" style="fill: none;"/></g><g id="strokes-a3165952-13bd-806b-8002-6c55a739005d" class="strokes"><g class="stroke-shape"><path stroke-linecap="round" stroke-linejoin="round" rx="0" ry="0" d="M243.319,205.980L224.368,205.980" style="fill: none; stroke-width: 2; stroke: rgb(0, 0, 0);"/></g></g></g><g id="shape-a3165952-13bd-806b-8002-6c55a739005e"><g class="fills" id="fills-a3165952-13bd-806b-8002-6c55a739005e"><path fill="none" stroke-linecap="round" stroke-linejoin="round" rx="0" ry="0" d="M243.319,262.836L227.077,262.836" style="fill: none;"/></g><g id="strokes-a3165952-13bd-806b-8002-6c55a739005e" class="strokes"><g class="stroke-shape"><path stroke-linecap="round" stroke-linejoin="round" rx="0" ry="0" d="M243.319,262.836L227.077,262.836" style="fill: none; stroke-width: 2; stroke: rgb(0, 0, 0);"/></g></g></g><g id="shape-a3165952-13bd-806b-8002-6c55a739005f"><g class="fills" id="fills-a3165952-13bd-806b-8002-6c55a739005f"><path fill="none" stroke-linecap="round" stroke-linejoin="round" rx="0" ry="0" d="M243.319,243.885L224.368,243.885" style="fill: none;"/></g><g id="strokes-a3165952-13bd-806b-8002-6c55a739005f" class="strokes"><g class="stroke-shape"><path stroke-linecap="round" stroke-linejoin="round" rx="0" ry="0" d="M243.319,243.885L224.368,243.885" style="fill: none; stroke-width: 2; stroke: rgb(0, 0, 0);"/></g></g></g><g id="shape-a3165952-13bd-806b-8002-6c55a73944db"><g class="fills" id="fills-a3165952-13bd-806b-8002-6c55a73944db"><path rx="0" ry="0" d="M277.311,111.640C282.904,110.318,287.150,105.756,288.067,100.083C291.438,84.190,276.107,78.170,285.339,60.756C261.461,63.529,250.424,94.863,261.422,108.281Z" style="fill: rgb(222, 164, 122);"/></g><g id="strokes-a3165952-13bd-806b-8002-6c55a73944db" class="strokes"><g class="stroke-shape"><path rx="0" ry="0" d="M277.311,111.640C282.904,110.318,287.150,105.756,288.067,100.083C291.438,84.190,276.107,78.170,285.339,60.756C261.461,63.529,250.424,94.863,261.422,108.281Z" style="fill: none; stroke-width: 2;"/></g></g></g><g id="shape-a3165952-13bd-806b-8002-6c55a73944dc"><g class="fills" id="fills-a3165952-13bd-806b-8002-6c55a73944dc"><path rx="0" ry="0" d="M261.422,108.269L277.311,111.640L275.980,135.232C275.561,143.040,274.265,150.775,272.115,158.293L235.335,296.479C234.697,299.481,231.747,301.398,228.745,300.760C225.743,300.123,223.826,297.172,224.463,294.170L247.220,152.871C248.313,145.215,250.257,137.705,253.014,130.479Z" style="fill: rgb(106, 119, 132);"/></g><g id="strokes-a3165952-13bd-806b-8002-6c55a73944dc" class="strokes"><g class="stroke-shape"><path rx="0" ry="0" d="M261.422,108.269L277.311,111.640L275.980,135.232C275.561,143.040,274.265,150.775,272.115,158.293L235.335,296.479C234.697,299.481,231.747,301.398,228.745,300.760C225.743,300.123,223.826,297.172,224.463,294.170L247.220,152.871C248.313,145.215,250.257,137.705,253.014,130.479Z" style="fill: none; stroke-width: 2;"/></g></g></g><g id="shape-a3165952-13bd-806b-8002-6c55a7399d6e"><g class="fills" id="fills-a3165952-13bd-806b-8002-6c55a7399d6e"><path rx="0" ry="0" d="M235.335,296.479L272.115,158.297C274.264,150.778,275.561,143.041,275.980,135.232L277.311,111.640L269.366,109.956L228.911,300.622C231.814,301.173,234.639,299.351,235.335,296.479ZZ" style="fill: rgb(130, 146, 162);"/></g><g id="strokes-a3165952-13bd-806b-8002-6c55a7399d6e" class="strokes"><g class="stroke-shape"><path rx="0" ry="0" d="M235.335,296.479L272.115,158.297C274.264,150.778,275.561,143.041,275.980,135.232L277.311,111.640L269.366,109.956L228.911,300.622C231.814,301.173,234.639,299.351,235.335,296.479ZZ" style="fill: none; stroke-width: 2;"/></g></g></g><g id="shape-a3165952-13bd-806b-8002-6c55a7399d6f"><g class="fills" id="fills-a3165952-13bd-806b-8002-6c55a7399d6f"><path rx="0" ry="0" d="M275.663,138.966C275.778,137.723,275.909,136.479,275.980,135.232L277.311,111.640L261.422,108.269L253.014,130.491C252.586,131.620,252.222,132.768,251.826,133.909Z" style="fill: rgb(255, 229, 0);"/></g><g id="strokes-a3165952-13bd-806b-8002-6c55a7399d6f" class="strokes"><g class="stroke-shape"><path rx="0" ry="0" d="M275.663,138.966C275.778,137.723,275.909,136.479,275.980,135.232L277.311,111.640L261.422,108.269L253.014,130.491C252.586,131.620,252.222,132.768,251.826,133.909Z" style="fill: none; stroke-width: 2;"/></g></g></g><g id="shape-a3165952-13bd-806b-8002-6c55a7399d70"><g class="fills" id="fills-a3165952-13bd-806b-8002-6c55a7399d70"><path rx="0" ry="0" d="M277.311,111.640L269.366,109.956L263.762,136.440L275.679,138.966C275.794,137.723,275.925,136.479,275.996,135.232Z" style="fill: rgb(255, 244, 140);"/></g><g id="strokes-a3165952-13bd-806b-8002-6c55a7399d70" class="strokes"><g class="stroke-shape"><path rx="0" ry="0" d="M277.311,111.640L269.366,109.956L263.762,136.440L275.679,138.966C275.794,137.723,275.925,136.479,275.996,135.232Z" style="fill: none; stroke-width: 2;"/></g></g></g><g id="shape-a3165952-13bd-806b-8002-6c55a739fd72"><g class="fills" id="fills-a3165952-13bd-806b-8002-6c55a739fd72"><path fill="none" stroke-linecap="round" stroke-linejoin="round" rx="0" ry="0" d="M261.422,108.269L277.311,111.640L275.980,135.232C275.561,143.040,274.265,150.775,272.115,158.293L235.335,296.479C234.697,299.481,231.747,301.398,228.745,300.760C225.743,300.123,223.826,297.172,224.463,294.170L247.220,152.871C248.313,145.215,250.257,137.705,253.014,130.479Z" style="fill: none;"/></g><g id="strokes-a3165952-13bd-806b-8002-6c55a739fd72" class="strokes"><g class="stroke-shape"><path stroke-linecap="round" stroke-linejoin="round" rx="0" ry="0" d="M261.422,108.269L277.311,111.640L275.980,135.232C275.561,143.040,274.265,150.775,272.115,158.293L235.335,296.479C234.697,299.481,231.747,301.398,228.745,300.760C225.743,300.123,223.826,297.172,224.463,294.170L247.220,152.871C248.313,145.215,250.257,137.705,253.014,130.479Z" style="fill: none; stroke-width: 2; stroke: rgb(0, 0, 0);"/></g></g></g><g id="shape-a3165952-13bd-806b-8002-6c55a739fd73"><g class="fills" id="fills-a3165952-13bd-806b-8002-6c55a739fd73"><path rx="0" ry="0" d="M288.067,100.079C291.438,84.190,276.107,78.170,285.339,60.752C280.572,61.322,276.024,63.077,272.111,65.857C269.881,78.012,280.321,84.416,277.473,97.834C276.557,103.508,272.311,108.070,266.717,109.390L277.311,111.640C282.905,110.317,287.151,105.754,288.067,100.079ZZ" style="fill: rgb(255, 218, 143);"/></g><g id="strokes-a3165952-13bd-806b-8002-6c55a739fd73" class="strokes"><g class="stroke-shape"><path rx="0" ry="0" d="M288.067,100.079C291.438,84.190,276.107,78.170,285.339,60.752C280.572,61.322,276.024,63.077,272.111,65.857C269.881,78.012,280.321,84.416,277.473,97.834C276.557,103.508,272.311,108.070,266.717,109.390L277.311,111.640C282.905,110.317,287.151,105.754,288.067,100.079ZZ" style="fill: none; stroke-width: 2;"/></g></g></g><g id="shape-a3165952-13bd-806b-8002-6c55a739fd74"><g class="fills" id="fills-a3165952-13bd-806b-8002-6c55a739fd74"><path fill="none" stroke-linecap="round" stroke-linejoin="round" rx="0" ry="0" d="M277.311,111.640C282.904,110.318,287.150,105.756,288.067,100.083C291.438,84.190,276.107,78.170,285.339,60.756C261.461,63.529,250.424,94.863,261.422,108.281Z" style="fill: none;"/></g><g id="strokes-a3165952-13bd-806b-8002-6c55a739fd74" class="strokes"><g class="stroke-shape"><path stroke-linecap="round" stroke-linejoin="round" rx="0" ry="0" d="M277.311,111.640C282.904,110.318,287.150,105.756,288.067,100.083C291.438,84.190,276.107,78.170,285.339,60.756C261.461,63.529,250.424,94.863,261.422,108.281Z" style="fill: none; stroke-width: 2; stroke: rgb(0, 0, 0);"/></g></g></g><g id="shape-a3165952-13bd-806b-8002-6c55a73a372d"><g class="fills" id="fills-a3165952-13bd-806b-8002-6c55a73a372d"><path fill="none" stroke-linecap="round" stroke-linejoin="round" rx="0" ry="0" d="M275.663,138.966C275.778,137.723,275.909,136.479,275.980,135.232L277.311,111.640L261.422,108.269L253.014,130.491C252.586,131.620,252.222,132.768,251.826,133.909Z" style="fill: none;"/></g><g id="strokes-a3165952-13bd-806b-8002-6c55a73a372d" class="strokes"><g class="stroke-shape"><path stroke-linecap="round" stroke-linejoin="round" rx="0" ry="0" d="M275.663,138.966C275.778,137.723,275.909,136.479,275.980,135.232L277.311,111.640L261.422,108.269L253.014,130.491C252.586,131.620,252.222,132.768,251.826,133.909Z" style="fill: none; stroke-width: 2; stroke: rgb(0, 0, 0);"/></g></g></g><g id="shape-a3165952-13bd-806b-8002-6c55a73a372e"><g class="fills" id="fills-a3165952-13bd-806b-8002-6c55a73a372e"><path rx="0" ry="0" d="M224.634,144.440L213.022,111.216L197.604,142.855L224.634,144.440ZZ" style="fill: rgb(255, 229, 0);"/></g><g id="strokes-a3165952-13bd-806b-8002-6c55a73a372e" class="strokes"><g class="stroke-shape"><path rx="0" ry="0" d="M224.634,144.440L213.022,111.216L197.604,142.855L224.634,144.440ZZ" style="fill: none; stroke-width: 2;"/></g></g></g><g id="shape-a3165952-13bd-806b-8002-6c55a73a372f"><g class="fills" id="fills-a3165952-13bd-806b-8002-6c55a73a372f"><path rx="0" ry="0" d="M191.259,250.966L218.289,252.550L216.238,287.691C215.800,295.155,209.395,300.851,201.931,300.414C194.467,299.976,188.770,293.571,189.208,286.107Z" style="fill: rgb(106, 119, 132);"/></g><g id="strokes-a3165952-13bd-806b-8002-6c55a73a372f" class="strokes"><g class="stroke-shape"><path rx="0" ry="0" d="M191.259,250.966L218.289,252.550L216.238,287.691C215.800,295.155,209.395,300.851,201.931,300.414C194.467,299.976,188.770,293.571,189.208,286.107Z" style="fill: none; stroke-width: 2;"/></g></g></g><g id="shape-a3165952-13bd-806b-8002-6c55a73a6659"><g class="fills" id="fills-a3165952-13bd-806b-8002-6c55a73a6659"><path rx="0" ry="0" d="M201.917,300.412C205.503,300.626,209.028,299.406,211.714,297.020C214.400,294.634,216.027,291.278,216.238,287.691L218.301,252.554L204.784,251.762Z" style="fill: rgb(130, 146, 162);"/></g><g id="strokes-a3165952-13bd-806b-8002-6c55a73a6659" class="strokes"><g class="stroke-shape"><path rx="0" ry="0" d="M201.917,300.412C205.503,300.626,209.028,299.406,211.714,297.020C214.400,294.634,216.027,291.278,216.238,287.691L218.301,252.554L204.784,251.762Z" style="fill: none; stroke-width: 2;"/></g></g></g><g id="shape-a3165952-13bd-806b-8002-6c55a73a665a"><g class="fills" id="fills-a3165952-13bd-806b-8002-6c55a73a665a"><path fill="none" stroke-linecap="round" stroke-linejoin="round" rx="0" ry="0" d="M191.259,250.966L218.289,252.550L216.238,287.691C215.800,295.155,209.395,300.851,201.931,300.414C194.467,299.976,188.770,293.571,189.208,286.107Z" style="fill: none;"/></g><g id="strokes-a3165952-13bd-806b-8002-6c55a73a665a" class="strokes"><g class="stroke-shape"><path stroke-linecap="round" stroke-linejoin="round" rx="0" ry="0" d="M191.259,250.966L218.289,252.550L216.238,287.691C215.800,295.155,209.395,300.851,201.931,300.414C194.467,299.976,188.770,293.571,189.208,286.107Z" style="fill: none; stroke-width: 2; stroke: rgb(0, 0, 0);"/></g></g></g><g id="shape-a3165952-13bd-806b-8002-6c55a73a665b"><g class="fills" id="fills-a3165952-13bd-806b-8002-6c55a73a665b"><path rx="0" ry="0" d="M191.258,250.967L197.603,142.852L224.630,144.438L218.284,252.553Z" style="fill: rgb(0, 184, 240);"/></g><g id="strokes-a3165952-13bd-806b-8002-6c55a73a665b" class="strokes"><g class="stroke-shape"><path rx="0" ry="0" d="M191.258,250.967L197.603,142.852L224.630,144.438L218.284,252.553Z" style="fill: none; stroke-width: 2;"/></g></g></g><g id="shape-a3165952-13bd-806b-8002-6c55a73a665c"><g class="fills" id="fills-a3165952-13bd-806b-8002-6c55a73a665c"><path rx="0" ry="0" d="M204.770,251.758L211.116,143.643L224.629,144.437L218.283,252.551Z" style="fill: rgb(74, 207, 255);"/></g><g id="strokes-a3165952-13bd-806b-8002-6c55a73a665c" class="strokes"><g class="stroke-shape"><path rx="0" ry="0" d="M204.770,251.758L211.116,143.643L224.629,144.437L218.283,252.551Z" style="fill: none; stroke-width: 2;"/></g></g></g><g id="shape-a3165952-13bd-806b-8002-6c55a73a9c78"><g class="fills" id="fills-a3165952-13bd-806b-8002-6c55a73a9c78"><path fill="none" stroke-linecap="round" stroke-linejoin="round" rx="0" ry="0" d="M191.258,250.967L197.603,142.852L224.630,144.438L218.284,252.553Z" style="fill: none;"/></g><g id="strokes-a3165952-13bd-806b-8002-6c55a73a9c78" class="strokes"><g class="stroke-shape"><path stroke-linecap="round" stroke-linejoin="round" rx="0" ry="0" d="M191.258,250.967L197.603,142.852L224.630,144.438L218.284,252.553Z" style="fill: none; stroke-width: 2; stroke: rgb(0, 0, 0);"/></g></g></g><g id="shape-a3165952-13bd-806b-8002-6c55a73a9c79"><g class="fills" id="fills-a3165952-13bd-806b-8002-6c55a73a9c79"><path rx="0" ry="0" d="M213.018,111.224L211.117,143.648L224.634,144.440L213.018,111.224ZL213.018,111.224ZZ" style="fill: rgb(255, 244, 140);"/></g><g id="strokes-a3165952-13bd-806b-8002-6c55a73a9c79" class="strokes"><g class="stroke-shape"><path rx="0" ry="0" d="M213.018,111.224L211.117,143.648L224.634,144.440L213.018,111.224ZL213.018,111.224ZZ" style="fill: none; stroke-width: 2;"/></g></g></g><g id="shape-a3165952-13bd-806b-8002-6c55a73a9c7a"><g class="fills" id="fills-a3165952-13bd-806b-8002-6c55a73a9c7a"><path fill="none" stroke-linecap="round" stroke-linejoin="round" rx="0" ry="0" d="M224.634,144.440L213.022,111.216L197.604,142.855L224.634,144.440ZZ" style="fill: none;"/></g><g id="strokes-a3165952-13bd-806b-8002-6c55a73a9c7a" class="strokes"><g class="stroke-shape"><path stroke-linecap="round" stroke-linejoin="round" rx="0" ry="0" d="M224.634,144.440L213.022,111.216L197.604,142.855L224.634,144.440ZZ" style="fill: none; stroke-width: 2; stroke: rgb(0, 0, 0);"/></g></g></g><g id="shape-a3165952-13bd-806b-8002-6c55a73a9c7b"><g class="fills" id="fills-a3165952-13bd-806b-8002-6c55a73a9c7b"><path fill="none" stroke-linecap="round" stroke-linejoin="round" rx="0" ry="0" d="M216.701,279.604C224.165,280.041,230.570,274.347,231.010,266.883L233.069,231.743" style="fill: none;"/></g><g id="strokes-a3165952-13bd-806b-8002-6c55a73a9c7b" class="strokes"><g class="stroke-shape"><path stroke-linecap="round" stroke-linejoin="round" rx="0" ry="0" d="M216.701,279.604C224.165,280.041,230.570,274.347,231.010,266.883L233.069,231.743" style="fill: none; stroke-width: 2; stroke: rgb(0, 0, 0);"/></g></g></g><g id="shape-a3165952-13bd-806b-8002-6c55a73aeb9f"><g class="fills" id="fills-a3165952-13bd-806b-8002-6c55a73aeb9f"><path rx="0" ry="0" d="M172.190,136.016C172.466,140.492,169.065,144.345,164.590,144.630L165.438,158.139L192.475,156.436L191.628,142.923C188.661,143.239,185.760,141.903,184.072,139.443C182.384,136.983,182.182,133.796,183.544,131.142C184.907,128.488,187.615,126.795,190.598,126.733L189.410,107.818C178.808,102.784,174.202,81.644,174.202,81.644C174.202,81.644,172.277,103.180,162.376,109.501L163.564,128.416C165.716,128.279,167.834,129.003,169.452,130.429C171.070,131.854,172.055,133.864,172.190,136.016ZZ" style="fill: rgb(245, 245, 245);"/></g><g id="strokes-a3165952-13bd-806b-8002-6c55a73aeb9f" class="strokes"><g class="stroke-shape"><path rx="0" ry="0" d="M172.190,136.016C172.466,140.492,169.065,144.345,164.590,144.630L165.438,158.139L192.475,156.436L191.628,142.923C188.661,143.239,185.760,141.903,184.072,139.443C182.384,136.983,182.182,133.796,183.544,131.142C184.907,128.488,187.615,126.795,190.598,126.733L189.410,107.818C178.808,102.784,174.202,81.644,174.202,81.644C174.202,81.644,172.277,103.180,162.376,109.501L163.564,128.416C165.716,128.279,167.834,129.003,169.452,130.429C171.070,131.854,172.055,133.864,172.190,136.016ZZ" style="fill: none; stroke-width: 2;"/></g></g></g><g id="shape-a3165952-13bd-806b-8002-6c55a73aeba0"><g class="fills" id="fills-a3165952-13bd-806b-8002-6c55a73aeba0"><path rx="0" ry="0" d="M192.475,156.436L191.628,142.923C188.661,143.239,185.760,141.903,184.072,139.443C182.384,136.983,182.182,133.796,183.544,131.142C184.907,128.488,187.615,126.795,190.598,126.733L189.410,107.818C178.808,102.784,174.202,81.644,174.202,81.644L178.954,157.307Z" style="fill: rgb(255, 255, 255);"/></g><g id="strokes-a3165952-13bd-806b-8002-6c55a73aeba0" class="strokes"><g class="stroke-shape"><path rx="0" ry="0" d="M192.475,156.436L191.628,142.923C188.661,143.239,185.760,141.903,184.072,139.443C182.384,136.983,182.182,133.796,183.544,131.142C184.907,128.488,187.615,126.795,190.598,126.733L189.410,107.818C178.808,102.784,174.202,81.644,174.202,81.644L178.954,157.307Z" style="fill: none; stroke-width: 2;"/></g></g></g><g id="shape-a3165952-13bd-806b-8002-6c55a73b0464"><g class="fills" id="fills-a3165952-13bd-806b-8002-6c55a73b0464"><path fill="none" stroke-linecap="round" stroke-linejoin="round" rx="0" ry="0" d="M172.190,136.016C172.466,140.492,169.065,144.345,164.590,144.630L165.438,158.139L192.475,156.436L191.628,142.923C188.661,143.239,185.760,141.903,184.072,139.443C182.384,136.983,182.182,133.796,183.544,131.142C184.907,128.488,187.615,126.795,190.598,126.733L189.410,107.818C178.808,102.784,174.202,81.644,174.202,81.644C174.202,81.644,172.277,103.180,162.376,109.501L163.564,128.416C165.716,128.279,167.834,129.003,169.452,130.429C171.070,131.854,172.055,133.864,172.190,136.016ZZ" style="fill: none;"/></g><g id="strokes-a3165952-13bd-806b-8002-6c55a73b0464" class="strokes"><g class="stroke-shape"><path stroke-linecap="round" stroke-linejoin="round" rx="0" ry="0" d="M172.190,136.016C172.466,140.492,169.065,144.345,164.590,144.630L165.438,158.139L192.475,156.436L191.628,142.923C188.661,143.239,185.760,141.903,184.072,139.443C182.384,136.983,182.182,133.796,183.544,131.142C184.907,128.488,187.615,126.795,190.598,126.733L189.410,107.818C178.808,102.784,174.202,81.644,174.202,81.644C174.202,81.644,172.277,103.180,162.376,109.501L163.564,128.416C165.716,128.279,167.834,129.003,169.452,130.429C171.070,131.854,172.055,133.864,172.190,136.016ZZ" style="fill: none; stroke-width: 2; stroke: rgb(0, 0, 0);"/></g></g></g><g id="shape-a3165952-13bd-806b-8002-6c55a73b0465"><g class="fills" id="fills-a3165952-13bd-806b-8002-6c55a73b0465"><path rx="0" ry="0" d="M165.438,158.134L192.458,156.441L194.830,194.271L167.810,195.965Z" style="fill: rgb(255, 229, 0);"/></g><g id="strokes-a3165952-13bd-806b-8002-6c55a73b0465" class="strokes"><g class="stroke-shape"><path rx="0" ry="0" d="M165.438,158.134L192.458,156.441L194.830,194.271L167.810,195.965Z" style="fill: none; stroke-width: 2;"/></g></g></g><g id="shape-a3165952-13bd-806b-8002-6c55a73b0466"><g class="fills" id="fills-a3165952-13bd-806b-8002-6c55a73b0466"><path rx="0" ry="0" d="M178.950,157.289L192.460,156.442L194.831,194.273L181.321,195.120Z" style="fill: rgb(255, 244, 140);"/></g><g id="strokes-a3165952-13bd-806b-8002-6c55a73b0466" class="strokes"><g class="stroke-shape"><path rx="0" ry="0" d="M178.950,157.289L192.460,156.442L194.831,194.273L181.321,195.120Z" style="fill: none; stroke-width: 2;"/></g></g></g><g id="shape-a3165952-13bd-806b-8002-6c55a73b4a03"><g class="fills" id="fills-a3165952-13bd-806b-8002-6c55a73b4a03"><path fill="none" stroke-linecap="round" stroke-linejoin="round" rx="0" ry="0" d="M165.438,158.134L192.458,156.441L194.830,194.271L167.810,195.965Z" style="fill: none;"/></g><g id="strokes-a3165952-13bd-806b-8002-6c55a73b4a03" class="strokes"><g class="stroke-shape"><path stroke-linecap="round" stroke-linejoin="round" rx="0" ry="0" d="M165.438,158.134L192.458,156.441L194.830,194.271L167.810,195.965Z" style="fill: none; stroke-width: 2; stroke: rgb(0, 0, 0);"/></g></g></g><g id="shape-a3165952-13bd-806b-8002-6c55a73b4a04"><g class="fills" id="fills-a3165952-13bd-806b-8002-6c55a73b4a04"><path fill="none" stroke-linecap="round" stroke-linejoin="round" rx="0" ry="0" d="M174.202,81.632L176.408,116.760" style="fill: none;"/></g><g id="strokes-a3165952-13bd-806b-8002-6c55a73b4a04" class="strokes"><g class="stroke-shape"><path stroke-linecap="round" stroke-linejoin="round" rx="0" ry="0" d="M174.202,81.632L176.408,116.760" style="fill: none; stroke-width: 2; stroke: rgb(0, 0, 0);"/></g></g></g><g id="shape-a3165952-13bd-806b-8002-6c55a73b4a05"><g class="fills" id="fills-a3165952-13bd-806b-8002-6c55a73b4a05"><path rx="0" ry="0" d="M178.721,290.246C179.254,294.760,183.223,298.071,187.759,297.786C192.296,297.502,195.820,293.722,195.786,289.176L194.851,194.273L167.830,195.968Z" style="fill: rgb(255, 98, 66);"/></g><g id="strokes-a3165952-13bd-806b-8002-6c55a73b4a05" class="strokes"><g class="stroke-shape"><path rx="0" ry="0" d="M178.721,290.246C179.254,294.760,183.223,298.071,187.759,297.786C192.296,297.502,195.820,293.722,195.786,289.176L194.851,194.273L167.830,195.968Z" style="fill: none; stroke-width: 2;"/></g></g></g><g id="shape-a3165952-13bd-806b-8002-6c55a73b4a06"><g class="fills" id="fills-a3165952-13bd-806b-8002-6c55a73b4a06"><path rx="0" ry="0" d="M187.762,297.822C192.308,297.537,195.833,293.742,195.782,289.188L194.851,194.273L181.339,195.125Z" style="fill: rgb(255, 134, 110);"/></g><g id="strokes-a3165952-13bd-806b-8002-6c55a73b4a06" class="strokes"><g class="stroke-shape"><path rx="0" ry="0" d="M187.762,297.822C192.308,297.537,195.833,293.742,195.782,289.188L194.851,194.273L181.339,195.125Z" style="fill: none; stroke-width: 2;"/></g></g></g><g id="shape-a3165952-13bd-806b-8002-6c55a73bb2ad"><g class="fills" id="fills-a3165952-13bd-806b-8002-6c55a73bb2ad"><path fill="none" stroke-linecap="round" stroke-linejoin="round" rx="0" ry="0" d="M178.721,290.246C179.254,294.760,183.223,298.071,187.759,297.786C192.296,297.502,195.820,293.722,195.786,289.176L194.851,194.273L167.830,195.968Z" style="fill: none;"/></g><g id="strokes-a3165952-13bd-806b-8002-6c55a73bb2ad" class="strokes"><g class="stroke-shape"><path stroke-linecap="round" stroke-linejoin="round" rx="0" ry="0" d="M178.721,290.246C179.254,294.760,183.223,298.071,187.759,297.786C192.296,297.502,195.820,293.722,195.786,289.176L194.851,194.273L167.830,195.968Z" style="fill: none; stroke-width: 2; stroke: rgb(0, 0, 0);"/></g></g></g><g id="shape-a3165952-13bd-806b-8002-6c55a73bb2ae"><g class="fills" id="fills-a3165952-13bd-806b-8002-6c55a73bb2ae"><path rx="0" ry="0" d="M232.475,205.980C232.475,223.923,217.929,238.469,199.986,238.469C182.043,238.469,167.497,223.923,167.497,205.980L145.853,205.980C142.981,205.979,140.226,207.119,138.195,209.150C136.163,211.181,135.022,213.936,135.022,216.808L135.022,306.158C135.024,318.120,144.720,327.816,156.681,327.818L243.323,327.818C255.284,327.816,264.980,318.120,264.982,306.158L264.982,216.808C264.982,213.936,263.841,211.182,261.811,209.152C259.780,207.121,257.026,205.980,254.154,205.980Z" style="fill: rgb(245, 245, 245);"/></g><g id="strokes-a3165952-13bd-806b-8002-6c55a73bb2ae" class="strokes"><g class="stroke-shape"><path rx="0" ry="0" d="M232.475,205.980C232.475,223.923,217.929,238.469,199.986,238.469C182.043,238.469,167.497,223.923,167.497,205.980L145.853,205.980C142.981,205.979,140.226,207.119,138.195,209.150C136.163,211.181,135.022,213.936,135.022,216.808L135.022,306.158C135.024,318.120,144.720,327.816,156.681,327.818L243.323,327.818C255.284,327.816,264.980,318.120,264.982,306.158L264.982,216.808C264.982,213.936,263.841,211.182,261.811,209.152C259.780,207.121,257.026,205.980,254.154,205.980Z" style="fill: none; stroke-width: 2;"/></g></g></g><g id="shape-a3165952-13bd-806b-8002-6c55a73c3252"><g class="fills" id="fills-a3165952-13bd-806b-8002-6c55a73c3252"><path rx="0" ry="0" d="M254.154,205.980L232.475,205.980C232.475,223.923,217.929,238.469,199.986,238.469C182.043,238.469,167.497,223.923,167.497,205.980L145.853,205.980C139.873,205.980,135.024,210.827,135.022,216.808L135.022,230.349C135.022,224.366,139.871,219.517,145.853,219.517L154.539,219.517C157.147,219.543,159.371,221.417,159.838,223.984C163.030,239.826,182.650,252.008,200.004,252.008C217.358,252.008,236.974,239.814,240.166,223.984C240.635,221.418,242.857,219.545,245.465,219.517L254.154,219.517C257.027,219.517,259.782,220.658,261.812,222.690C263.843,224.721,264.983,227.476,264.982,230.349L264.982,216.808C264.982,213.936,263.841,211.182,261.811,209.152C259.780,207.121,257.026,205.980,254.154,205.980ZZ" style="fill: rgb(255, 255, 255);"/></g><g id="strokes-a3165952-13bd-806b-8002-6c55a73c3252" class="strokes"><g class="stroke-shape"><path rx="0" ry="0" d="M254.154,205.980L232.475,205.980C232.475,223.923,217.929,238.469,199.986,238.469C182.043,238.469,167.497,223.923,167.497,205.980L145.853,205.980C139.873,205.980,135.024,210.827,135.022,216.808L135.022,230.349C135.022,224.366,139.871,219.517,145.853,219.517L154.539,219.517C157.147,219.543,159.371,221.417,159.838,223.984C163.030,239.826,182.650,252.008,200.004,252.008C217.358,252.008,236.974,239.814,240.166,223.984C240.635,221.418,242.857,219.545,245.465,219.517L254.154,219.517C257.027,219.517,259.782,220.658,261.812,222.690C263.843,224.721,264.983,227.476,264.982,230.349L264.982,216.808C264.982,213.936,263.841,211.182,261.811,209.152C259.780,207.121,257.026,205.980,254.154,205.980ZZ" style="fill: none; stroke-width: 2;"/></g></g></g><g id="shape-a3165952-13bd-806b-8002-6c55a73c4159"><g class="fills" id="fills-a3165952-13bd-806b-8002-6c55a73c4159"><path fill="none" stroke-linecap="round" stroke-linejoin="round" rx="0" ry="0" d="M232.475,205.980C232.475,223.923,217.929,238.469,199.986,238.469C182.043,238.469,167.497,223.923,167.497,205.980L145.853,205.980C142.981,205.979,140.226,207.119,138.195,209.150C136.163,211.181,135.022,213.936,135.022,216.808L135.022,306.158C135.024,318.120,144.720,327.816,156.681,327.818L243.323,327.818C255.284,327.816,264.980,318.120,264.982,306.158L264.982,216.808C264.982,213.936,263.841,211.182,261.811,209.152C259.780,207.121,257.026,205.980,254.154,205.980Z" style="fill: none;"/></g><g id="strokes-a3165952-13bd-806b-8002-6c55a73c4159" class="strokes"><g class="stroke-shape"><path stroke-linecap="round" stroke-linejoin="round" rx="0" ry="0" d="M232.475,205.980C232.475,223.923,217.929,238.469,199.986,238.469C182.043,238.469,167.497,223.923,167.497,205.980L145.853,205.980C142.981,205.979,140.226,207.119,138.195,209.150C136.163,211.181,135.022,213.936,135.022,216.808L135.022,306.158C135.024,318.120,144.720,327.816,156.681,327.818L243.323,327.818C255.284,327.816,264.980,318.120,264.982,306.158L264.982,216.808C264.982,213.936,263.841,211.182,261.811,209.152C259.780,207.121,257.026,205.980,254.154,205.980Z" style="fill: none; stroke-width: 2; stroke: rgb(0, 0, 0);"/></g></g></g><g id="shape-a3165952-13bd-806b-8002-6c55a73c415a"><g class="fills" id="fills-a3165952-13bd-806b-8002-6c55a73c415a"><path fill="none" stroke-linecap="round" stroke-linejoin="round" rx="0" ry="0" d="M183.667,296.950C192.790,305.636,207.123,305.636,216.246,296.950" style="fill: none;"/></g><g id="strokes-a3165952-13bd-806b-8002-6c55a73c415a" class="strokes"><g class="stroke-shape"><path stroke-linecap="round" stroke-linejoin="round" rx="0" ry="0" d="M183.667,296.950C192.790,305.636,207.123,305.636,216.246,296.950" style="fill: none; stroke-width: 2; stroke: rgb(0, 0, 0);"/></g></g></g><g id="shape-a3165952-13bd-806b-8002-6c55a73c415b"><g class="fills" id="fills-a3165952-13bd-806b-8002-6c55a73c415b"><path fill="none" stroke-linecap="round" stroke-linejoin="round" rx="0" ry="0" d="M229.786,265.560C228.414,262.273,225.201,260.133,221.640,260.133C218.078,260.133,214.865,262.273,213.493,265.560" style="fill: none;"/></g><g id="strokes-a3165952-13bd-806b-8002-6c55a73c415b" class="strokes"><g class="stroke-shape"><path stroke-linecap="round" stroke-linejoin="round" rx="0" ry="0" d="M229.786,265.560C228.414,262.273,225.201,260.133,221.640,260.133C218.078,260.133,214.865,262.273,213.493,265.560" style="fill: none; stroke-width: 2; stroke: rgb(0, 0, 0);"/></g></g></g><g id="shape-a3165952-13bd-806b-8002-6c55a73c415c"><g class="fills" id="fills-a3165952-13bd-806b-8002-6c55a73c415c"><path fill="none" stroke-linecap="round" stroke-linejoin="round" rx="0" ry="0" d="M186.511,265.560C185.141,262.273,181.928,260.131,178.366,260.131C174.805,260.131,171.592,262.273,170.222,265.560" style="fill: none;"/></g><g id="strokes-a3165952-13bd-806b-8002-6c55a73c415c" class="strokes"><g class="stroke-shape"><path stroke-linecap="round" stroke-linejoin="round" rx="0" ry="0" d="M186.511,265.560C185.141,262.273,181.928,260.131,178.366,260.131C174.805,260.131,171.592,262.273,170.222,265.560" style="fill: none; stroke-width: 2; stroke: rgb(0, 0, 0);"/></g></g></g><g id="shape-a3165952-13bd-806b-8002-6c55a73c9d8e"><g class="fills" id="fills-a3165952-13bd-806b-8002-6c55a73c9d8e"><path rx="0" ry="0" d="M162.099,283.160C162.099,285.578,163.389,287.813,165.483,289.022C167.577,290.231,170.157,290.231,172.251,289.022C174.346,287.813,175.636,285.578,175.636,283.160C175.636,280.742,174.346,278.508,172.251,277.299C170.157,276.090,167.577,276.090,165.483,277.299C163.389,278.508,162.099,280.742,162.099,283.160ZZ" style="fill: rgb(255, 134, 110);"/></g><g id="strokes-a3165952-13bd-806b-8002-6c55a73c9d8e" class="strokes"><g class="stroke-shape"><path rx="0" ry="0" d="M162.099,283.160C162.099,285.578,163.389,287.813,165.483,289.022C167.577,290.231,170.157,290.231,172.251,289.022C174.346,287.813,175.636,285.578,175.636,283.160C175.636,280.742,174.346,278.508,172.251,277.299C170.157,276.090,167.577,276.090,165.483,277.299C163.389,278.508,162.099,280.742,162.099,283.160ZZ" style="fill: none; stroke-width: 2;"/></g></g></g><g id="shape-a3165952-13bd-806b-8002-6c55a73c9d8f"><g class="fills" id="fills-a3165952-13bd-806b-8002-6c55a73c9d8f"><path rx="0" ry="0" d="M224.372,283.160C224.372,285.578,225.662,287.813,227.756,289.022C229.851,290.231,232.431,290.231,234.525,289.022C236.619,287.813,237.909,285.578,237.909,283.160C237.909,280.742,236.619,278.508,234.525,277.299C232.431,276.090,229.851,276.090,227.756,277.299C225.662,278.508,224.372,280.742,224.372,283.160ZZ" style="fill: rgb(255, 134, 110);"/></g><g id="strokes-a3165952-13bd-806b-8002-6c55a73c9d8f" class="strokes"><g class="stroke-shape"><path rx="0" ry="0" d="M224.372,283.160C224.372,285.578,225.662,287.813,227.756,289.022C229.851,290.231,232.431,290.231,234.525,289.022C236.619,287.813,237.909,285.578,237.909,283.160C237.909,280.742,236.619,278.508,234.525,277.299C232.431,276.090,229.851,276.090,227.756,277.299C225.662,278.508,224.372,280.742,224.372,283.160ZZ" style="fill: none; stroke-width: 2;"/></g></g></g></g></svg>