<svg xmlns="http://www.w3.org/2000/svg" fill="none" viewBox="0.25 0.25 99.5 99.5" stroke-width="0.5"><path fill="#c7f0ff00" d="M90 50.3131C90.0008 44.3432 88.6653 38.4489 86.0914 33.0624C83.5176 27.6759 79.7707 22.9338 75.1256 19.1839C70.4804 15.4341 65.0548 12.7715 59.2467 11.3914C53.4386 10.0114 47.3952 9.94892 41.5597 11.2086C35.7243 12.4683 30.2448 15.0181 25.5232 18.6712C20.8015 22.3243 16.9574 26.9879 14.2728 32.32C11.5882 37.6522 10.1311 43.5176 10.0084 49.4862C9.8858 55.4548 11.1007 61.3751 13.564 66.8131H86.436C88.7889 61.6308 90.0042 56.0045 90 50.3131V50.3131Z"></path><path fill="#37dea654" d="M13.564 66.8131C16.7367 73.817 21.8608 79.7581 28.3228 83.925C34.7849 88.0919 42.3109 90.308 50 90.308C57.689 90.308 65.2151 88.0919 71.6771 83.925C78.1391 79.7581 83.2633 73.817 86.436 66.8131H13.564Z"></path><path stroke="#000000" stroke-linecap="round" stroke-linejoin="round" d="M11 66.813H89"></path><path stroke="#000000" stroke-linecap="round" stroke-linejoin="round" d="M6.5 66.813H9"></path><path stroke="#000000" stroke-linecap="round" stroke-linejoin="round" d="M91 66.813H93.5"></path><path fill="#000000" d="M58.562 85.656C71.3171 85.656 81.657 84.7037 81.657 83.529C81.657 82.3543 71.3171 81.402 58.562 81.402C45.807 81.402 35.467 82.3543 35.467 83.529C35.467 84.7037 45.807 85.656 58.562 85.656Z" opacity=".15"></path><path fill="#6a7784" d="M76.8 61.953C76.7638 56.98 74.7628 52.223 71.2335 48.7192C67.7042 45.2155 62.9327 43.2493 57.9595 43.2493C52.9864 43.2493 48.2149 45.2155 44.6855 48.7192C41.1562 52.223 39.1552 56.98 39.119 61.953V64.992H46.412V71.07H69.5V64.992H76.8V61.953Z"></path><path fill="#8292a2" d="M57.955 43.113C55.4808 43.1129 53.0308 43.6001 50.745 44.5469C48.4591 45.4936 46.382 46.8813 44.6325 48.6308C42.8829 50.3803 41.4951 52.4572 40.5482 54.7431C39.6014 57.0289 39.114 59.4788 39.114 61.953V64.992H39.175C39.477 60.2165 41.5869 55.7354 45.0755 52.4604C48.5642 49.1854 53.1695 47.3624 57.9545 47.3624C62.7395 47.3624 67.3449 49.1854 70.8335 52.4604C74.3222 55.7354 76.4321 60.2165 76.734 64.992H76.8V61.953C76.8 59.4785 76.3125 57.0282 75.3654 54.7421C74.4183 52.456 73.0301 50.3789 71.2801 48.6294C69.5302 46.8799 67.4527 45.4922 65.1663 44.5457C62.88 43.5992 60.4295 43.1124 57.955 43.113V43.113Z"></path><path stroke="#000000" stroke-linecap="round" stroke-linejoin="round" d="M76.8 61.953C76.7638 56.98 74.7628 52.223 71.2335 48.7192C67.7042 45.2155 62.9327 43.2493 57.9595 43.2493C52.9864 43.2493 48.2149 45.2155 44.6855 48.7192C41.1562 52.223 39.1552 56.98 39.119 61.953V64.992H46.412V71.07H69.5V64.992H76.8V61.953Z"></path><path fill="#ffda8f" d="M53.7001 43.7211C53.7172 44.8381 54.173 45.9036 54.969 46.6875C55.765 47.4714 56.8374 47.9108 57.9546 47.9108C59.0718 47.9108 60.1442 47.4714 60.9402 46.6875C61.7362 45.9036 62.1919 44.8381 62.2091 43.7211V39.4661H53.7001V43.7211Z"></path><path fill="#ffbe3d" d="M53.7001 43.7001C56.4752 44.5334 59.4339 44.5334 62.2091 43.7001V39.4661H53.7001V43.7001Z"></path><path stroke="#000000" stroke-linecap="round" stroke-linejoin="round" d="M53.7001 43.7211V39.4661H62.2091V43.7211C62.1919 44.8381 61.7362 45.9036 60.9402 46.6875C60.1442 47.4714 59.0718 47.9108 57.9546 47.9108C56.8374 47.9108 55.765 47.4714 54.969 46.6875C54.173 45.9036 53.7172 44.8381 53.7001 43.7211V43.7211Z"></path><path fill="#adc4d9" stroke="#000000" stroke-linejoin="round" d="M78.2 79.5781H37.708L38.215 81.3781C38.3028 81.732 38.5066 82.0463 38.7939 82.2709C39.0812 82.4955 39.4354 82.6173 39.8 82.6171H76.111C76.4751 82.6172 76.8287 82.4954 77.1156 82.2713C77.4024 82.0471 77.6061 81.7334 77.694 81.3801L78.2 79.5781Z"></path><path fill="#f5f5f5" d="M79.834 78.4911C79.8338 78.7794 79.719 79.0559 79.515 79.2598C79.311 79.4636 79.0344 79.5781 78.7461 79.5781H37.163C36.8748 79.5781 36.5983 79.4635 36.3944 79.2597C36.1906 79.0558 36.076 78.7794 36.076 78.4911V53.6221C36.076 53.0916 36.2868 52.5829 36.6618 52.2079C37.0369 51.8328 37.5456 51.6221 38.076 51.6221H77.834C78.3645 51.6221 78.8732 51.8328 79.2483 52.2079C79.6233 52.5829 79.834 53.0916 79.834 53.6221V78.4911Z"></path><path fill="#ffffff" d="M79.834 53.6221C79.834 53.0916 79.6233 52.5829 79.2483 52.2079C78.8732 51.8328 78.3645 51.6221 77.834 51.6221H38.076C37.5456 51.6221 37.0369 51.8328 36.6618 52.2079C36.2868 52.5829 36.076 53.0916 36.076 53.6221V59.9451C36.076 59.0691 36.786 57.0911 37.662 57.0911H78.2481C79.1241 57.0911 79.834 59.0691 79.834 59.9451V53.6221Z"></path><path stroke="#000000" stroke-linejoin="round" d="M79.834 78.4911C79.8338 78.7794 79.719 79.0559 79.515 79.2598C79.311 79.4636 79.0344 79.5781 78.7461 79.5781H37.163C36.8748 79.5781 36.5983 79.4635 36.3944 79.2597C36.1906 79.0558 36.076 78.7794 36.076 78.4911V53.6221C36.076 53.0916 36.2868 52.5829 36.6618 52.2079C37.0369 51.8328 37.5456 51.6221 38.076 51.6221H77.834C78.3645 51.6221 78.8732 51.8328 79.2483 52.2079C79.6233 52.5829 79.834 53.0916 79.834 53.6221V78.4911Z"></path><path fill="#ffffff" stroke="#000000" stroke-linejoin="round" d="M60.886 67.9571C60.8817 67.5918 60.9539 67.2296 61.098 66.8939C61.2422 66.5582 61.4551 66.2565 61.723 66.0081C61.6055 65.7171 61.4169 65.4602 61.1744 65.2611C60.9319 65.0619 60.6433 64.9268 60.335 64.8681C59.9235 64.866 59.5202 64.9833 59.174 65.2057C58.8277 65.428 58.5533 65.746 58.384 66.1211C58.2147 65.746 57.9403 65.428 57.5941 65.2057C57.2478 64.9833 56.8445 64.866 56.433 64.8681C55.233 65.0111 54.451 66.6491 54.676 68.5271C54.901 70.4051 56.051 71.8101 57.246 71.6671C57.4754 71.6319 57.695 71.5495 57.8909 71.4251C58.0868 71.3006 58.2547 71.1368 58.384 70.9441C58.5134 71.137 58.6814 71.3008 58.8775 71.4253C59.0736 71.5498 59.2934 71.6321 59.523 71.6671C60.397 71.7721 61.245 71.0421 61.723 69.9081C61.4548 69.6595 61.2416 69.3575 61.0975 69.0214C60.9533 68.6853 60.8812 68.3227 60.886 67.9571V67.9571Z"></path><path fill="#ffffff" stroke="#000000" stroke-linejoin="round" d="M59.9 61.054C59.6155 61.2924 59.3883 61.5917 59.2351 61.9297C59.0819 62.2678 59.0067 62.636 59.015 63.007C59.3784 63.0832 59.7543 63.0761 60.1146 62.9864C60.4749 62.8967 60.8102 62.7266 61.0954 62.4889C61.3806 62.2512 61.6083 61.9521 61.7615 61.6139C61.9147 61.2757 61.9894 60.9072 61.98 60.536C61.6167 60.4609 61.2411 60.4684 60.881 60.5581C60.521 60.6477 60.1857 60.8172 59.9 61.054V61.054Z"></path><path fill="#ffda8f" d="M79.8201 67.424L82.7851 67.377C83.0245 67.373 83.2623 67.4162 83.4849 67.5042C83.7075 67.5922 83.9107 67.7232 84.0827 67.8897C84.2547 68.0562 84.3921 68.255 84.4873 68.4746C84.5824 68.6943 84.6333 68.9306 84.6371 69.17L84.6961 72.816C84.6998 73.0555 84.6563 73.2934 84.568 73.5161C84.4798 73.7389 84.3485 73.942 84.1817 74.114C84.015 74.286 83.8159 74.4234 83.596 74.5185C83.3761 74.6135 83.1396 74.6643 82.9001 74.668L79.9341 74.716C79.3557 74.7317 78.7912 74.538 78.3443 74.1705C77.8974 73.803 77.5983 73.2865 77.5021 72.716C77.3469 71.6503 77.3294 70.5691 77.4501 69.499C77.5285 68.9254 77.8115 68.3995 78.247 68.0182C78.6826 67.6369 79.2412 67.4259 79.8201 67.424V67.424Z"></path><path fill="#ffda8f" d="M79.7861 69.749L82.8381 69.7C83.2466 69.6904 83.647 69.8154 83.9775 70.0557C84.308 70.296 84.5503 70.6384 84.6671 71.03L84.6371 69.17C84.6333 68.9306 84.5824 68.6943 84.4873 68.4746C84.3922 68.255 84.2547 68.0562 84.0827 67.8897C83.9107 67.7232 83.7076 67.5922 83.4849 67.5042C83.2623 67.4162 83.0245 67.373 82.7851 67.377L79.8201 67.424C79.2414 67.4264 78.6831 67.6378 78.248 68.0193C77.8129 68.4007 77.5302 68.9266 77.4521 69.5C77.3814 70.1813 77.3674 70.8673 77.4101 71.551C77.5554 71.0326 77.8662 70.5759 78.2952 70.2505C78.7241 69.9252 79.2477 69.7491 79.7861 69.749V69.749Z"></path><path stroke="#000000" stroke-linecap="round" stroke-linejoin="round" d="M79.8201 67.424L82.7851 67.377C83.0245 67.373 83.2623 67.4162 83.4849 67.5042C83.7075 67.5922 83.9107 67.7232 84.0827 67.8897C84.2547 68.0562 84.3921 68.255 84.4873 68.4746C84.5824 68.6943 84.6333 68.9306 84.6371 69.17L84.6961 72.816C84.6998 73.0555 84.6563 73.2934 84.568 73.5161C84.4798 73.7389 84.3485 73.942 84.1817 74.114C84.015 74.286 83.8159 74.4234 83.596 74.5185C83.3761 74.6135 83.1396 74.6643 82.9001 74.668L79.9341 74.716C79.3557 74.7317 78.7912 74.538 78.3443 74.1705C77.8974 73.803 77.5983 73.2865 77.5021 72.716C77.3469 71.6503 77.3294 70.5691 77.4501 69.499C77.5285 68.9254 77.8115 68.3995 78.247 68.0182C78.6826 67.6369 79.2412 67.4259 79.8201 67.424V67.424Z"></path><path fill="#ffda8f" d="M40.2301 60.565C40.1232 61.1336 39.8145 61.6444 39.3608 62.0035C38.9072 62.3625 38.3391 62.5456 37.7611 62.519L34.7971 62.419C34.5578 62.4107 34.3224 62.3554 34.1044 62.2561C33.8864 62.1569 33.6902 62.0156 33.5268 61.8405C33.3635 61.6653 33.2362 61.4597 33.1524 61.2354C33.0685 61.011 33.0297 60.7724 33.0381 60.533L33.1641 56.889C33.1811 56.4057 33.3893 55.9489 33.7429 55.619C34.0966 55.2892 34.5668 55.1133 35.0501 55.13L38.0141 55.23C38.5925 55.2434 39.1466 55.4653 39.5744 55.8549C40.0021 56.2444 40.2748 56.7754 40.3421 57.35C40.4429 58.422 40.4053 59.5026 40.2301 60.565Z"></path><path fill="#ffbe3d" d="M37.9121 60.2L34.8611 60.094C34.4519 60.0835 34.0576 59.9383 33.7393 59.6811C33.4209 59.4238 33.1962 59.0688 33.1001 58.671L33.0351 60.53C33.0266 60.7698 33.0657 61.009 33.1499 61.2337C33.2341 61.4584 33.3619 61.6643 33.5259 61.8395C33.6899 62.0148 33.8868 62.1559 34.1055 62.2548C34.3242 62.3537 34.5602 62.4085 34.8001 62.416L37.7641 62.516C38.342 62.5426 38.9101 62.3595 39.3638 62.0005C39.8174 61.6414 40.1262 61.1306 40.2331 60.562C40.3384 59.8852 40.3872 59.2009 40.3791 58.516C40.2084 59.0277 39.8748 59.4694 39.4292 59.7736C38.9837 60.0777 38.4508 60.2275 37.9121 60.2V60.2Z"></path><path stroke="#000000" stroke-linecap="round" stroke-linejoin="round" d="M40.2301 60.565C40.1232 61.1336 39.8145 61.6444 39.3608 62.0035C38.9072 62.3625 38.3391 62.5456 37.7611 62.519L34.7971 62.419C34.5578 62.4107 34.3224 62.3554 34.1044 62.2561C33.8864 62.1569 33.6902 62.0156 33.5268 61.8405C33.3635 61.6653 33.2362 61.4597 33.1524 61.2354C33.0685 61.011 33.0297 60.7724 33.0381 60.533L33.1641 56.889C33.1811 56.4057 33.3893 55.9489 33.7429 55.619C34.0966 55.2892 34.5668 55.1133 35.0501 55.13L38.0141 55.23C38.5925 55.2434 39.1466 55.4653 39.5744 55.8549C40.0021 56.2444 40.2748 56.7754 40.3421 57.35C40.4429 58.422 40.4053 59.5026 40.2301 60.565Z"></path><path fill="#ff6242" stroke="#000000" stroke-linecap="round" stroke-linejoin="round" d="M49.6001 71.828L47.0931 75.6C47.0324 75.6915 46.9976 75.7978 46.9925 75.9076C46.9874 76.0173 47.012 76.1264 47.0639 76.2232C47.1159 76.32 47.193 76.401 47.2872 76.4575C47.3815 76.5139 47.4892 76.5438 47.5991 76.544H52.6211C52.731 76.5438 52.8387 76.5139 52.933 76.4575C53.0272 76.401 53.1044 76.32 53.1563 76.2232C53.2082 76.1264 53.2328 76.0173 53.2277 75.9076C53.2226 75.7978 53.1878 75.6915 53.1271 75.6L50.6161 71.833C50.5612 71.7485 50.4861 71.6791 50.3977 71.6308C50.3092 71.5825 50.2102 71.557 50.1094 71.5565C50.0087 71.556 49.9094 71.5806 49.8205 71.628C49.7316 71.6753 49.6559 71.7441 49.6001 71.828Z"></path><path fill="#ffe500" stroke="#000000" stroke-linecap="round" stroke-linejoin="round" d="M45.2481 67.423L48.4141 69.232C48.0164 69.9273 47.4009 70.4723 46.6625 70.7826C45.9241 71.093 45.1041 71.1516 44.3291 70.9492C43.5542 70.7469 42.8674 70.2949 42.3751 69.6632C41.8827 69.0315 41.6121 68.2551 41.6051 67.4542C41.5981 66.6533 41.8552 65.8724 42.3365 65.2322C42.8178 64.5919 43.4965 64.1281 44.2678 63.9123C45.0392 63.6965 45.8601 63.7407 46.6038 64.0382C47.3474 64.3357 47.9724 64.8698 48.3821 65.558L45.2481 67.423Z"></path><path fill="#ffe500" d="M49.5001 67.5311C49.4714 67.5311 49.444 67.5197 49.4237 67.4994C49.4035 67.4792 49.3921 67.4517 49.3921 67.4231C49.3921 67.3944 49.4035 67.3669 49.4237 67.3467C49.444 67.3264 49.4714 67.3151 49.5001 67.3151C49.5143 67.3151 49.5283 67.3179 49.5414 67.3233C49.5545 67.3287 49.5664 67.3367 49.5765 67.3467C49.5865 67.3567 49.5944 67.3686 49.5999 67.3817C49.6053 67.3948 49.6081 67.4089 49.6081 67.4231C49.6081 67.4372 49.6053 67.4513 49.5999 67.4644C49.5944 67.4775 49.5865 67.4894 49.5765 67.4994C49.5664 67.5095 49.5545 67.5174 49.5414 67.5228C49.5283 67.5283 49.5143 67.5311 49.5001 67.5311V67.5311Z"></path><path fill="#000000" d="M49.5001 66.8151C49.3798 66.8151 49.2623 66.8507 49.1623 66.9175C49.0623 66.9843 48.9844 67.0793 48.9384 67.1904C48.8924 67.3015 48.8803 67.4237 48.9038 67.5417C48.9272 67.6596 48.9851 67.768 49.0702 67.853C49.1552 67.938 49.2635 67.9959 49.3815 68.0194C49.4994 68.0428 49.6217 68.0308 49.7328 67.9848C49.8439 67.9388 49.9388 67.8608 50.0056 67.7608C50.0724 67.6609 50.1081 67.5433 50.1081 67.4231C50.1081 67.2618 50.044 67.1072 49.93 66.9931C49.816 66.8791 49.6613 66.8151 49.5001 66.8151V66.8151Z"></path><path fill="#ffe500" d="M51.9341 67.5311C51.9127 67.5313 51.8917 67.5251 51.8738 67.5133C51.8559 67.5016 51.8419 67.4848 51.8336 67.4651C51.8253 67.4454 51.823 67.4236 51.827 67.4026C51.8311 67.3816 51.8413 67.3623 51.8564 67.3471C51.8714 67.3318 51.8907 67.3215 51.9116 67.3172C51.9326 67.313 51.9544 67.315 51.9742 67.3232C51.994 67.3313 52.0109 67.3452 52.0228 67.363C52.0347 67.3807 52.0411 67.4017 52.0411 67.4231C52.0411 67.4515 52.0298 67.4788 52.0098 67.4991C51.9898 67.5193 51.9625 67.5308 51.9341 67.5311V67.5311Z"></path><path fill="#000000" d="M51.9331 66.8151C51.8128 66.8151 51.6953 66.8507 51.5953 66.9175C51.4953 66.9843 51.4174 67.0793 51.3714 67.1904C51.3253 67.3015 51.3133 67.4237 51.3368 67.5417C51.3602 67.6596 51.4181 67.768 51.5032 67.853C51.5882 67.938 51.6965 67.9959 51.8145 68.0194C51.9324 68.0428 52.0546 68.0308 52.1657 67.9848C52.2768 67.9388 52.3718 67.8608 52.4386 67.7608C52.5054 67.6609 52.5411 67.5433 52.5411 67.4231C52.5411 67.2618 52.477 67.1072 52.363 66.9931C52.249 66.8791 52.0943 66.8151 51.9331 66.8151V66.8151Z"></path><path fill="#ff6242" stroke="#000000" stroke-linecap="round" stroke-linejoin="round" d="M72.5691 73.1931C72.5604 73.2883 72.5293 73.3802 72.4784 73.4612C72.4275 73.5422 72.3582 73.61 72.2761 73.6591L69.8151 75.1361C69.7206 75.1929 69.6124 75.223 69.5021 75.223C69.3918 75.223 69.2836 75.1929 69.1891 75.1361L66.7281 73.6591C66.646 73.61 66.5766 73.5422 66.5257 73.4612C66.4748 73.3802 66.4437 73.2883 66.4351 73.1931L65.9161 67.4781C65.9084 67.394 65.9184 67.3092 65.9453 67.2292C65.9722 67.1491 66.0155 67.0756 66.0725 67.0132C66.1294 66.9509 66.1987 66.901 66.2759 66.8669C66.3531 66.8328 66.4366 66.8151 66.5211 66.8151H72.4831C72.5671 66.8158 72.65 66.834 72.7267 66.8684C72.8033 66.9028 72.872 66.9528 72.9284 67.0151C72.9847 67.0774 73.0276 67.1507 73.0542 67.2304C73.0808 67.31 73.0907 67.3944 73.0831 67.4781L72.5691 73.1931Z"></path><path fill="#000000" d="M59.833 54.2C59.8421 54.1331 59.8654 54.069 59.9014 54.0119C59.9373 53.9548 59.9851 53.9061 60.0415 53.8691C60.0979 53.832 60.1616 53.8075 60.2282 53.7971C60.2949 53.7867 60.363 53.7908 60.428 53.809C60.581 53.8587 60.7085 53.9664 60.783 54.109L62.2 57.289H62.212L62.765 54.866C62.7765 54.8001 62.8012 54.7372 62.8378 54.6812C62.8743 54.6251 62.9219 54.5771 62.9776 54.54C63.0333 54.503 63.0959 54.4776 63.1618 54.4656C63.2276 54.4535 63.2951 54.4549 63.3604 54.4698C63.4256 54.4847 63.4871 54.5127 63.5412 54.5521C63.5952 54.5915 63.6407 54.6415 63.6748 54.6991C63.7089 54.7566 63.731 54.8205 63.7396 54.8869C63.7482 54.9532 63.7433 55.0206 63.725 55.085L62.9 58.729C62.8914 58.7966 62.8682 58.8614 62.832 58.9192C62.7958 58.9769 62.7475 59.026 62.6904 59.0632C62.6333 59.1004 62.5689 59.1247 62.5014 59.1345C62.434 59.1443 62.3653 59.1394 62.3 59.12C62.1473 59.0697 62.02 58.9622 61.945 58.82L60.523 55.676H60.51L59.965 58.068C59.9352 58.196 59.8557 58.3068 59.7441 58.3762C59.6325 58.4456 59.498 58.4678 59.37 58.438C59.242 58.4082 59.1312 58.3287 59.0618 58.2171C58.9924 58.1055 58.9702 57.971 59 57.843L59.833 54.2Z"></path><path fill="#000000" d="M71.118 56.805C71.13 56.7387 71.1557 56.6756 71.1935 56.6197C71.2313 56.5638 71.2803 56.5164 71.3374 56.4806C71.3946 56.4447 71.4585 56.4212 71.5253 56.4115C71.592 56.4017 71.66 56.406 71.725 56.424L72.789 56.666C73.1033 56.7159 73.4029 56.8338 73.6667 57.0116C73.9306 57.1895 74.1524 57.4228 74.3166 57.6954C74.4807 57.968 74.5833 58.2732 74.617 58.5896C74.6508 58.906 74.615 59.226 74.512 59.527C74.4662 59.8267 74.3569 60.1131 74.1913 60.3671C74.0258 60.6211 73.8079 60.8367 73.5522 60.9996C73.2966 61.1625 73.009 61.2688 72.7089 61.3115C72.4087 61.3542 72.103 61.3322 71.812 61.247L70.7 60.993C70.6326 60.9835 70.5679 60.9599 70.5103 60.9236C70.4526 60.8874 70.4033 60.8394 70.3655 60.7827C70.3278 60.726 70.3024 60.662 70.2911 60.5949C70.2798 60.5277 70.2829 60.4589 70.3 60.393L71.118 56.805ZM71.354 60.211L72.002 60.358C72.1753 60.4003 72.3557 60.4044 72.5308 60.3701C72.7058 60.3357 72.8713 60.2638 73.0158 60.1591C73.1602 60.0545 73.2803 59.9198 73.3675 59.7642C73.4547 59.6086 73.5071 59.4359 73.521 59.258C73.5908 59.0847 73.6211 58.8979 73.6096 58.7113C73.598 58.5248 73.545 58.3432 73.4544 58.1797C73.3637 58.0162 73.2378 57.8751 73.0856 57.7665C72.9335 57.6579 72.7591 57.5846 72.575 57.552L71.991 57.419L71.354 60.211Z"></path><path fill="#000000" d="M75.376 57.843C75.382 57.7703 75.4038 57.6998 75.4399 57.6365C75.4759 57.5731 75.5254 57.5184 75.5849 57.4762C75.6443 57.434 75.7123 57.4053 75.784 57.3921C75.8557 57.379 75.9295 57.3816 76 57.4L77.59 57.763C77.6508 57.7724 77.7089 57.7945 77.7605 57.8279C77.8122 57.8612 77.8562 57.9051 77.8898 57.9566C77.9234 58.0081 77.9457 58.0661 77.9554 58.1268C77.9651 58.1875 77.9619 58.2496 77.946 58.309C77.9335 58.3689 77.9088 58.4256 77.8735 58.4755C77.8381 58.5254 77.7928 58.5676 77.7405 58.5993C77.6882 58.631 77.6299 58.6516 77.5692 58.6598C77.5086 58.668 77.4469 58.6636 77.388 58.647L76.261 58.391L76.048 59.327L77.099 59.566C77.1606 59.575 77.2196 59.5968 77.2722 59.6301C77.3248 59.6633 77.3699 59.7072 77.4045 59.759C77.439 59.8107 77.4624 59.8691 77.473 59.9304C77.4836 59.9918 77.4812 60.0546 77.466 60.115C77.4526 60.1754 77.427 60.2324 77.3907 60.2824C77.3543 60.3325 77.3081 60.3746 77.2549 60.4061C77.2016 60.4376 77.1425 60.4578 77.0811 60.4656C77.0197 60.4733 76.9574 60.4683 76.898 60.451L75.846 60.211L75.624 61.186L76.81 61.456C76.8707 61.4656 76.9287 61.488 76.9803 61.5215C77.0318 61.555 77.0757 61.5989 77.1092 61.6505C77.1426 61.7021 77.1649 61.7601 77.1745 61.8208C77.1841 61.8815 77.1809 61.9436 77.165 62.003C77.1526 62.0627 77.128 62.1193 77.0929 62.1692C77.0577 62.2191 77.0127 62.2612 76.9605 62.293C76.9084 62.3248 76.8503 62.3455 76.7899 62.354C76.7294 62.3624 76.6678 62.3583 76.609 62.342L74.954 61.965C74.8885 61.9537 74.8261 61.9289 74.7707 61.8923C74.7152 61.8556 74.6679 61.8079 74.6319 61.7521C74.5958 61.6963 74.5717 61.6336 74.561 61.568C74.5504 61.5024 74.5534 61.4353 74.57 61.371L75.376 57.843Z"></path><path stroke="#000000" d="M59.833 54.2C59.8421 54.1331 59.8654 54.069 59.9014 54.0119C59.9373 53.9548 59.9851 53.9061 60.0415 53.8691C60.0979 53.832 60.1616 53.8075 60.2282 53.7971C60.2949 53.7867 60.363 53.7908 60.428 53.809C60.581 53.8587 60.7085 53.9664 60.783 54.109L62.2 57.289H62.212L62.765 54.866C62.7765 54.8001 62.8012 54.7372 62.8378 54.6812C62.8743 54.6251 62.9219 54.5771 62.9776 54.54C63.0333 54.503 63.0959 54.4776 63.1618 54.4656C63.2276 54.4535 63.2951 54.4549 63.3604 54.4698C63.4256 54.4847 63.4871 54.5127 63.5412 54.5521C63.5952 54.5915 63.6407 54.6415 63.6748 54.6991C63.7089 54.7566 63.731 54.8205 63.7396 54.8869C63.7482 54.9532 63.7433 55.0206 63.725 55.085L62.9 58.729C62.8914 58.7966 62.8682 58.8614 62.832 58.9192C62.7958 58.9769 62.7475 59.026 62.6904 59.0632C62.6333 59.1004 62.5689 59.1247 62.5014 59.1345C62.434 59.1443 62.3653 59.1394 62.3 59.12C62.1473 59.0697 62.02 58.9622 61.945 58.82L60.523 55.676H60.51L59.965 58.068C59.9352 58.196 59.8557 58.3068 59.7441 58.3762C59.6325 58.4456 59.498 58.4678 59.37 58.438C59.242 58.4082 59.1312 58.3287 59.0618 58.2171C58.9924 58.1055 58.9702 57.971 59 57.843L59.833 54.2Z"></path><path stroke="#000000" d="M71.118 56.805C71.13 56.7387 71.1557 56.6756 71.1935 56.6197C71.2313 56.5638 71.2803 56.5164 71.3374 56.4806C71.3946 56.4447 71.4585 56.4212 71.5253 56.4115C71.592 56.4017 71.66 56.406 71.725 56.424L72.789 56.666C73.1033 56.7159 73.4029 56.8338 73.6667 57.0116C73.9306 57.1895 74.1524 57.4228 74.3166 57.6954C74.4807 57.968 74.5833 58.2732 74.617 58.5896C74.6508 58.906 74.615 59.226 74.512 59.527C74.4662 59.8267 74.3569 60.1131 74.1913 60.3671C74.0258 60.6211 73.8079 60.8367 73.5522 60.9996C73.2966 61.1625 73.009 61.2688 72.7089 61.3115C72.4087 61.3542 72.103 61.3322 71.812 61.247L70.7 60.993C70.6326 60.9835 70.5679 60.9599 70.5103 60.9236C70.4526 60.8874 70.4033 60.8394 70.3655 60.7827C70.3278 60.726 70.3024 60.662 70.2911 60.5949C70.2798 60.5277 70.2829 60.4589 70.3 60.393L71.118 56.805ZM71.354 60.211L72.002 60.358C72.1753 60.4003 72.3557 60.4044 72.5308 60.3701C72.7058 60.3357 72.8713 60.2638 73.0158 60.1591C73.1602 60.0545 73.2803 59.9198 73.3675 59.7642C73.4547 59.6086 73.5071 59.4359 73.521 59.258C73.5908 59.0847 73.6211 58.8979 73.6096 58.7113C73.598 58.5248 73.545 58.3432 73.4544 58.1797C73.3637 58.0162 73.2378 57.8751 73.0856 57.7665C72.9335 57.6579 72.7591 57.5846 72.575 57.552L71.991 57.419L71.354 60.211Z"></path><path stroke="#000000" d="M75.376 57.843C75.382 57.7703 75.4038 57.6998 75.4399 57.6365C75.4759 57.5731 75.5254 57.5184 75.5849 57.4762C75.6443 57.434 75.7123 57.4053 75.784 57.3921C75.8557 57.379 75.9295 57.3816 76 57.4L77.59 57.763C77.6508 57.7724 77.7089 57.7945 77.7605 57.8279C77.8122 57.8612 77.8562 57.9051 77.8898 57.9566C77.9234 58.0081 77.9457 58.0661 77.9554 58.1268C77.9651 58.1875 77.9619 58.2496 77.946 58.309C77.9335 58.3689 77.9088 58.4256 77.8735 58.4755C77.8381 58.5254 77.7928 58.5676 77.7405 58.5993C77.6882 58.631 77.6299 58.6516 77.5692 58.6598C77.5086 58.668 77.4469 58.6636 77.388 58.647L76.261 58.391L76.048 59.327L77.099 59.566C77.1606 59.575 77.2196 59.5968 77.2722 59.6301C77.3248 59.6633 77.3699 59.7072 77.4045 59.759C77.439 59.8107 77.4624 59.8691 77.473 59.9304C77.4836 59.9918 77.4812 60.0546 77.466 60.115C77.4526 60.1754 77.427 60.2324 77.3907 60.2824C77.3543 60.3325 77.3081 60.3746 77.2549 60.4061C77.2016 60.4376 77.1425 60.4578 77.0811 60.4656C77.0197 60.4733 76.9574 60.4683 76.898 60.451L75.846 60.211L75.624 61.186L76.81 61.456C76.8707 61.4656 76.9287 61.488 76.9803 61.5215C77.0318 61.555 77.0757 61.5989 77.1092 61.6505C77.1426 61.7021 77.1649 61.7601 77.1745 61.8208C77.1841 61.8815 77.1809 61.9436 77.165 62.003C77.1526 62.0627 77.128 62.1193 77.0929 62.1692C77.0577 62.2191 77.0127 62.2612 76.9605 62.293C76.9084 62.3248 76.8503 62.3455 76.7899 62.354C76.7294 62.3624 76.6678 62.3583 76.609 62.342L74.954 61.965C74.8885 61.9537 74.8261 61.9289 74.7707 61.8923C74.7152 61.8556 74.6679 61.8079 74.6319 61.7521C74.5958 61.6963 74.5717 61.6336 74.561 61.568C74.5504 61.5024 74.5534 61.4353 74.57 61.371L75.376 57.843Z"></path><path fill="#37dea6" stroke="#000000" stroke-linecap="round" stroke-linejoin="round" d="M64.761 55.9129L67.402 55.2679L69.502 56.9929L68.827 59.9559L66.187 60.6009L64.087 58.8759L64.761 55.9129Z"></path><path fill="#37dea6" stroke="#000000" stroke-linecap="round" stroke-linejoin="round" d="M50.1101 60.738C53.8021 60.738 56.795 59.6496 56.795 58.307C56.795 56.9644 53.8021 55.876 50.1101 55.876C46.418 55.876 43.425 56.9644 43.425 58.307C43.425 59.6496 46.418 60.738 50.1101 60.738Z"></path><path stroke="#000000" stroke-linecap="round" stroke-linejoin="round" d="M25.734 44.8451C24.271 46.3071 27.928 48.5011 27.928 50.6951C27.928 52.3311 25.734 52.8891 25.734 54.3521"></path><path stroke="#000000" stroke-linecap="round" stroke-linejoin="round" d="M20.614 41.9191C19.151 43.3821 22.808 45.5761 22.808 47.7701C22.808 49.4051 20.614 49.9641 20.614 51.4271"></path><path fill="#000000" d="M22.0971 80.794C25.7891 80.794 28.7821 79.8417 28.7821 78.667C28.7821 77.4923 25.7891 76.54 22.0971 76.54C18.4051 76.54 15.4121 77.4923 15.4121 78.667C15.4121 79.8417 18.4051 80.794 22.0971 80.794Z" opacity=".15"></path><path fill="#fffbe5" d="M25.273 77.755H18.921C18.6237 77.7547 18.3369 77.6456 18.1145 77.4483C17.8921 77.251 17.7497 76.9792 17.714 76.684L16.02 62.561H28.175L26.475 76.684C26.4397 76.9784 26.298 77.2497 26.0766 77.4469C25.8553 77.6442 25.5695 77.7537 25.273 77.755Z"></path><path fill="#ffda8f" d="M16.238 64.384H27.956L28.175 62.561H16.02L16.238 64.384Z"></path><path stroke="#000000" stroke-linejoin="round" d="M25.273 77.755H18.921C18.6237 77.7547 18.3369 77.6456 18.1145 77.4483C17.8921 77.251 17.7497 76.9792 17.714 76.684L16.02 62.561H28.175L26.475 76.684C26.4397 76.9784 26.298 77.2497 26.0766 77.4469C25.8553 77.6442 25.5695 77.7537 25.273 77.755Z"></path><path fill="#fffbe5" stroke="#000000" stroke-linejoin="round" d="M28.175 62.561H16.02C15.8601 62.5617 15.7015 62.5307 15.5536 62.47C15.4056 62.4092 15.271 62.3198 15.1577 62.2069C15.0443 62.094 14.9544 61.9599 14.893 61.8121C14.8316 61.6644 14.8 61.506 14.8 61.346V61.346C14.7999 61.186 14.8314 61.0274 14.8927 60.8796C14.954 60.7317 15.044 60.5975 15.1573 60.4845C15.2707 60.3715 15.4053 60.282 15.5533 60.2212C15.7014 60.1603 15.86 60.1294 16.02 60.13H28.175C28.3347 60.13 28.4928 60.1615 28.6402 60.2226C28.7877 60.2837 28.9217 60.3733 29.0345 60.4862C29.1474 60.5992 29.2368 60.7332 29.2978 60.8807C29.3588 61.0283 29.3902 61.1864 29.39 61.346V61.346C29.39 61.6683 29.262 61.9773 29.0342 62.2051C28.8063 62.433 28.4973 62.561 28.175 62.561V62.561Z"></path><path fill="#fffbe5" stroke="#000000" stroke-linejoin="round" d="M28.175 60.1301H16.02L16.527 58.0221C16.5908 57.7567 16.7421 57.5205 16.9566 57.3516C17.171 57.1827 17.4361 57.0909 17.709 57.0911H26.486C26.7589 57.0913 27.0238 57.1832 27.2381 57.352C27.4525 57.5209 27.6039 57.7568 27.668 58.0221L28.175 60.1301Z"></path><path fill="#37dea6" stroke="#000000" stroke-linecap="round" stroke-linejoin="round" d="M24.8641 68.979C24.8643 69.5264 24.7021 70.0616 24.398 70.5169C24.094 70.9721 23.6617 71.3269 23.156 71.5364C22.6502 71.7459 22.0937 71.8006 21.5568 71.6937C21.0199 71.5869 20.5268 71.3231 20.1398 70.9359C19.7529 70.5486 19.4895 70.0553 19.383 69.5184C19.2764 68.9814 19.3316 68.4249 19.5415 67.9193C19.7513 67.4137 20.1064 66.9817 20.5619 66.6779C21.0173 66.3742 21.5526 66.2124 22.1001 66.213C22.8333 66.2135 23.5364 66.5052 24.0546 67.0239C24.5729 67.5425 24.8641 68.2458 24.8641 68.979V68.979Z"></path><path fill="#614b44" stroke="#000000" stroke-linecap="round" stroke-linejoin="round" d="M70.723 31.488C70.5227 31.5395 70.3168 31.5657 70.11 31.566C70.059 31.566 70.01 31.554 69.961 31.551C69.5335 34.395 68.1116 36.9954 65.948 38.89C66.709 39.3813 67.6131 39.6025 68.515 39.518C68.5641 39.5129 68.6117 39.4977 68.6547 39.4733C68.6977 39.449 68.7352 39.416 68.7649 39.3765C68.7945 39.337 68.8157 39.2917 68.8271 39.2437C68.8385 39.1956 68.8398 39.1457 68.831 39.097C68.754 38.641 68.623 37.845 68.531 37.17C68.5222 37.1073 68.5302 37.0433 68.5541 36.9846C68.5781 36.926 68.6171 36.8747 68.6673 36.836C68.7175 36.7973 68.777 36.7726 68.8398 36.7643C68.9026 36.7561 68.9665 36.7646 69.025 36.789C69.633 37.0457 70.2948 37.1488 70.952 37.089C71.0009 37.0833 71.0482 37.0678 71.091 37.0433C71.1338 37.0189 71.1713 36.9862 71.2011 36.947C71.231 36.9078 71.2527 36.863 71.2648 36.8152C71.277 36.7675 71.2795 36.7177 71.272 36.669C71.126 35.684 70.748 32.978 70.723 31.488Z"></path><path fill="#614b44" stroke="#000000" stroke-linecap="round" stroke-linejoin="round" d="M45.949 31.551C45.898 31.551 45.849 31.566 45.8 31.566C45.5976 31.5661 45.3961 31.5409 45.2 31.491C45.174 32.981 44.8 35.691 44.652 36.668C44.6444 36.7164 44.6467 36.7659 44.6587 36.8135C44.6707 36.8611 44.6922 36.9057 44.7219 36.9447C44.7516 36.9838 44.7889 37.0164 44.8315 37.0407C44.8741 37.065 44.9212 37.0804 44.97 37.086C45.6279 37.1458 46.2903 37.0427 46.899 36.786C46.9573 36.7613 47.0212 36.7525 47.0841 36.7606C47.147 36.7686 47.2066 36.7932 47.2568 36.8319C47.307 36.8705 47.3461 36.9218 47.3701 36.9805C47.394 37.0392 47.4019 37.1032 47.393 37.166C47.3 37.839 47.169 38.633 47.093 39.089C47.0845 39.1381 47.0861 39.1884 47.0977 39.2368C47.1094 39.2853 47.1308 39.3308 47.1607 39.3707C47.1905 39.4106 47.2282 39.444 47.2714 39.4688C47.3146 39.4936 47.3625 39.5093 47.412 39.515C48.3097 39.5977 49.2093 39.3781 49.968 38.891C47.8018 36.9971 46.3777 34.3962 45.949 31.551V31.551Z"></path><path fill="#ffda8f" d="M45.8 26.7V23.665C45.8 20.4413 47.0806 17.3496 49.3601 15.0701C51.6396 12.7906 54.7313 11.51 57.955 11.51C61.1787 11.51 64.2704 12.7906 66.5499 15.0701C68.8294 17.3496 70.11 20.4413 70.11 23.665V26.7C70.7548 26.7 71.3731 26.9561 71.829 27.412C72.2849 27.8679 72.541 28.4863 72.541 29.131C72.541 29.7758 72.2849 30.3941 71.829 30.85C71.3731 31.3059 70.7548 31.562 70.11 31.562C70.059 31.562 70.01 31.55 69.961 31.547C69.5316 34.4241 68.0833 37.0513 65.8797 38.9503C63.6762 40.8494 60.864 41.894 57.955 41.894C55.0461 41.894 52.2338 40.8494 50.0303 38.9503C47.8268 37.0513 46.3785 34.4241 45.949 31.547C45.898 31.547 45.849 31.562 45.8 31.562C45.1553 31.562 44.5369 31.3059 44.081 30.85C43.6251 30.3941 43.369 29.7758 43.369 29.131C43.369 28.4863 43.6251 27.8679 44.081 27.412C44.5369 26.9561 45.1553 26.7 45.8 26.7V26.7Z"></path><path stroke="#000000" stroke-linecap="round" stroke-linejoin="round" d="M45.8 26.7V23.665C45.8 20.4413 47.0806 17.3496 49.3601 15.0701C51.6396 12.7906 54.7313 11.51 57.955 11.51C61.1787 11.51 64.2704 12.7906 66.5499 15.0701C68.8294 17.3496 70.11 20.4413 70.11 23.665V26.7C70.7548 26.7 71.3731 26.9561 71.829 27.412C72.2849 27.8679 72.541 28.4863 72.541 29.131C72.541 29.7758 72.2849 30.3941 71.829 30.85C71.3731 31.3059 70.7548 31.562 70.11 31.562C70.059 31.562 70.01 31.55 69.961 31.547C69.5316 34.4241 68.0833 37.0513 65.8797 38.9503C63.6762 40.8494 60.864 41.894 57.955 41.894C55.0461 41.894 52.2338 40.8494 50.0303 38.9503C47.8268 37.0513 46.3785 34.4241 45.949 31.547C45.898 31.547 45.849 31.562 45.8 31.562C45.1553 31.562 44.5369 31.3059 44.081 30.85C43.6251 30.3941 43.369 29.7758 43.369 29.131C43.369 28.4863 43.6251 27.8679 44.081 27.412C44.5369 26.9561 45.1553 26.7 45.8 26.7V26.7Z"></path><path fill="#ffbe3d" d="M64.944 33.389C65.783 33.389 66.463 32.7089 66.463 31.87C66.463 31.031 65.783 30.351 64.944 30.351C64.1051 30.351 63.425 31.031 63.425 31.87C63.425 32.7089 64.1051 33.389 64.944 33.389Z"></path><path fill="#ffbe3d" d="M50.966 33.389C51.8049 33.389 52.485 32.7089 52.485 31.87C52.485 31.031 51.8049 30.351 50.966 30.351C50.1271 30.351 49.447 31.031 49.447 31.87C49.447 32.7089 50.1271 33.389 50.966 33.389Z"></path><path stroke="#000000" stroke-linecap="round" stroke-linejoin="round" d="M61.611 34.9561C60.6253 35.8954 59.316 36.4194 57.9545 36.4194C56.5929 36.4194 55.2836 35.8954 54.298 34.9561"></path><path stroke="#000000" stroke-linecap="round" stroke-linejoin="round" d="M51.269 27.919C51.4195 27.5581 51.6734 27.2497 51.9988 27.0328C52.3242 26.8159 52.7065 26.7002 53.0975 26.7002C53.4886 26.7002 53.8709 26.8159 54.1963 27.0328C54.5217 27.2497 54.7756 27.5581 54.926 27.919"></path><path stroke="#000000" stroke-linecap="round" stroke-linejoin="round" d="M61 27.919C61.1503 27.558 61.404 27.2496 61.7294 27.0326C62.0547 26.8156 62.437 26.6998 62.828 26.6998C63.219 26.6998 63.6013 26.8156 63.9266 27.0326C64.252 27.2496 64.5057 27.558 64.656 27.919"></path><path fill="#614b44" d="M70.11 26.7C69.7875 26.7 69.4782 26.5719 69.2501 26.3439C69.0221 26.1158 68.894 25.8065 68.894 25.484V24.745C68.8966 24.463 68.7999 24.189 68.6207 23.9712C68.4415 23.7534 68.1913 23.6057 67.914 23.554C66.9996 23.4142 66.1258 23.0803 65.3513 22.5745C64.5768 22.0688 63.9196 21.403 63.424 20.622V20.622V22.445C63.4241 22.6047 63.3928 22.7628 63.3318 22.9103C63.2708 23.0578 63.1813 23.1919 63.0685 23.3048C62.9556 23.4177 62.8217 23.5073 62.6742 23.5684C62.5267 23.6296 62.3686 23.661 62.209 23.661H61.6C58.138 23.661 56.216 20.27 55.4 18.318C55.3584 18.2222 55.2926 18.1389 55.209 18.0764C55.1254 18.0139 55.0269 17.9742 54.9233 17.9614C54.8196 17.9486 54.7145 17.963 54.6181 18.0033C54.5218 18.0435 54.4376 18.1083 54.374 18.191C52.7463 20.5313 50.4749 22.3494 47.835 23.425C47.5967 23.5083 47.3901 23.6635 47.2436 23.869C47.0971 24.0746 47.0179 24.3206 47.017 24.573V25.484C47.017 25.6438 46.9855 25.802 46.9243 25.9496C46.8632 26.0972 46.7735 26.2313 46.6605 26.3442C46.5475 26.4571 46.4133 26.5467 46.2656 26.6077C46.118 26.6688 45.9598 26.7001 45.8 26.7C45.4775 26.7 45.1682 26.5719 44.9401 26.3439C44.7121 26.1158 44.584 25.8065 44.584 25.484V23.057C44.584 21.3012 44.9298 19.5625 45.6018 17.9403C46.2738 16.3181 47.2587 14.8442 48.5003 13.6026C49.7419 12.3611 51.216 11.3763 52.8382 10.7045C54.4604 10.0326 56.1991 9.68688 57.955 9.68701V9.68701C61.5016 9.68834 64.9024 11.0982 67.4097 13.6066C69.9169 16.115 71.3252 19.5164 71.325 23.063V25.5C71.3226 25.8201 71.1934 26.1263 70.9656 26.3512C70.7378 26.5762 70.4301 26.7016 70.11 26.7V26.7Z"></path><path fill="#dea47a" d="M57.955 9.68701C56.1991 9.68688 54.4604 10.0326 52.8382 10.7045C51.216 11.3763 49.7419 12.3611 48.5003 13.6026C47.2587 14.8442 46.2738 16.3181 45.6018 17.9403C44.9298 19.5625 44.584 21.3012 44.584 23.057V25.488C44.5842 25.5826 44.5953 25.6769 44.617 25.769C44.8537 22.3926 46.3622 19.2317 48.8381 16.9239C51.314 14.6161 54.5731 13.3333 57.9577 13.3342C61.3424 13.3351 64.6008 14.6196 67.0755 16.9287C69.5502 19.2378 71.057 22.3995 71.292 25.776C71.3142 25.6843 71.3253 25.5903 71.325 25.496V23.063C71.3252 19.5164 69.9169 16.115 67.4097 13.6066C64.9024 11.0982 61.5016 9.68834 57.955 9.68701V9.68701Z"></path><path stroke="#000000" stroke-linecap="round" stroke-linejoin="round" d="M70.11 26.7C69.7875 26.7 69.4782 26.5719 69.2501 26.3439C69.0221 26.1158 68.894 25.8065 68.894 25.484V24.745C68.8966 24.463 68.7999 24.189 68.6207 23.9712C68.4415 23.7534 68.1913 23.6057 67.914 23.554C66.9996 23.4142 66.1258 23.0803 65.3513 22.5745C64.5768 22.0688 63.9196 21.403 63.424 20.622V20.622V22.445C63.4241 22.6047 63.3928 22.7628 63.3318 22.9103C63.2708 23.0578 63.1813 23.1919 63.0685 23.3048C62.9556 23.4177 62.8217 23.5073 62.6742 23.5684C62.5267 23.6296 62.3686 23.661 62.209 23.661H61.6C58.138 23.661 56.216 20.27 55.4 18.318C55.3584 18.2222 55.2926 18.1389 55.209 18.0764C55.1254 18.0139 55.0269 17.9742 54.9233 17.9614C54.8196 17.9486 54.7145 17.963 54.6181 18.0033C54.5218 18.0435 54.4376 18.1083 54.374 18.191C52.7463 20.5313 50.4749 22.3494 47.835 23.425C47.5967 23.5083 47.3901 23.6635 47.2436 23.869C47.0971 24.0746 47.0179 24.3206 47.017 24.573V25.484C47.017 25.6438 46.9855 25.802 46.9243 25.9496C46.8632 26.0972 46.7735 26.2313 46.6605 26.3442C46.5475 26.4571 46.4133 26.5467 46.2656 26.6077C46.118 26.6688 45.9598 26.7001 45.8 26.7C45.4775 26.7 45.1682 26.5719 44.9401 26.3439C44.7121 26.1158 44.584 25.8065 44.584 25.484V23.057C44.584 21.3012 44.9298 19.5625 45.6018 17.9403C46.2738 16.3181 47.2587 14.8442 48.5003 13.6026C49.7419 12.3611 51.216 11.3763 52.8382 10.7045C54.4604 10.0326 56.1991 9.68688 57.955 9.68701V9.68701C61.5016 9.68834 64.9024 11.0982 67.4097 13.6066C69.9169 16.115 71.3252 19.5164 71.325 23.063V25.5C71.3226 25.8201 71.1934 26.1263 70.9656 26.3512C70.7378 26.5762 70.4301 26.7016 70.11 26.7V26.7Z"></path></svg>