<svg id="e4DQJAzy6Cq1" xmlns="http://www.w3.org/2000/svg" xmlns:xlink="http://www.w3.org/1999/xlink" viewBox="-1 -1 502 502" shape-rendering="geometricPrecision" text-rendering="geometricPrecision"><defs><filter id="e4DQJAzy6Cq243-filter" x="-150%" width="400%" y="-150%" height="400%"><feGaussianBlur id="e4DQJAzy6Cq243-filter-blur-0" stdDeviation="0,0" result="result"/></filter></defs><g><g><g><path d="M450.495,254.025c.004-29.554-6.607-58.733-19.349-85.399s-31.291-50.142-54.287-68.706c-22.996-18.563-49.855-31.744-78.608-38.576s-58.671-7.141-87.559-.905c-28.889,6.236-56.015,18.859-79.389,36.943-23.375,18.085-42.405,41.172-55.695,67.568-13.29,26.398-20.504,55.434-21.111,84.982-.607,29.547,5.407,58.856,17.602,85.776h360.752c11.649-25.655,17.665-53.508,17.644-81.683Zm0,0q.004-29.554,0,0Z" fill="rgba(199,240,255,0)"/></g><g><g><path d="M450.495,254.025c.004-29.554-6.607-58.733-19.349-85.399s-31.291-50.142-54.287-68.706c-22.996-18.563-49.855-31.744-78.608-38.576s-58.671-7.141-87.559-.905c-28.889,6.236-56.015,18.859-79.389,36.943-23.375,18.085-42.405,41.172-55.695,67.568-13.29,26.398-20.504,55.434-21.111,84.982-.607,29.547,5.407,58.856,17.602,85.776h360.752c11.649-25.655,17.665-53.508,17.644-81.683Zm0,0q.004-29.554,0,0Z" fill="none" stroke-width="2"/></g></g></g><g><g><path d="M72.099,335.708c15.706,34.673,41.073,64.085,73.063,84.713c31.991,20.628,69.248,31.599,107.313,31.599s75.323-10.971,107.313-31.599s57.357-50.04,73.063-84.713h-360.752Z" fill="#37dea6" fill-opacity="0.5"/></g><g><g><path d="M72.099,335.708c15.706,34.673,41.073,64.085,73.063,84.713c31.991,20.628,69.248,31.599,107.313,31.599s75.323-10.971,107.313-31.599s57.357-50.04,73.063-84.713h-360.752Z" fill="none" stroke-width="2"/></g></g></g><g><g><path d="M59.406,335.708h386.139" fill="none" stroke-linecap="round" stroke-linejoin="round"/></g><g><g><path d="M59.406,335.708h386.139" fill="none" stroke="#000" stroke-width="2" stroke-linecap="round" stroke-linejoin="round"/></g></g></g><g><g><path d="M37.129,335.708h12.376" fill="none" stroke-linecap="round" stroke-linejoin="round"/></g><g><g><path d="M37.129,335.708h12.376" fill="none" stroke="#000" stroke-width="2" stroke-linecap="round" stroke-linejoin="round"/></g></g></g><g><g><path d="M455.446,335.708h12.376" fill="none" stroke-linecap="round" stroke-linejoin="round"/></g><g><g><path d="M455.446,335.708h12.376" fill="none" stroke="#000" stroke-width="2" stroke-linecap="round" stroke-linejoin="round"/></g></g></g><g><g><path d="M294.861,428.99c63.144,0,114.332-4.714,114.332-10.53c0-5.815-51.188-10.529-114.332-10.529-63.143,0-114.331,4.714-114.331,10.529c0,5.816,51.188,10.53,114.331,10.53Z" opacity="0.15"/></g><g><g><path d="M294.861,428.99c63.144,0,114.332-4.714,114.332-10.53c0-5.815-51.188-10.529-114.332-10.529-63.143,0-114.331,4.714-114.331,10.529c0,5.816,51.188,10.53,114.331,10.53Z" opacity="0.15" fill="none" stroke-width="2"/></g></g></g><g><g><path d="M385.149,311.649c-.18-24.619-10.086-48.169-27.557-65.514-17.472-17.345-41.093-27.079-65.713-27.079s-48.241,9.734-65.713,27.079-27.378,40.895-27.557,65.514v15.044h36.104v30.089h114.297v-30.089h36.139v-15.044Z" fill="#6a7784"/></g><g><g><path d="M385.149,311.649c-.18-24.619-10.086-48.169-27.557-65.514-17.472-17.345-41.093-27.079-65.713-27.079s-48.241,9.734-65.713,27.079-27.378,40.895-27.557,65.514v15.044h36.104v30.089h114.297v-30.089h36.139v-15.044Z" fill="none" stroke-width="2"/></g></g></g><g><g><path d="M291.856,218.381c-12.248,0-24.377,2.412-35.693,7.099-11.316,4.686-21.599,11.556-30.26,20.217s-15.531,18.943-20.219,30.259c-4.687,11.316-7.1,23.444-7.1,35.693v15.044h.302c1.495-23.641,11.94-45.825,29.211-62.038c17.27-16.212,40.069-25.237,63.757-25.237s46.487,9.025,63.757,25.237c17.271,16.213,27.716,38.397,29.211,62.038h.327v-15.044c0-12.25-2.414-24.381-7.102-35.698-4.689-11.317-11.561-21.6-20.225-30.261-8.663-8.661-18.947-15.531-30.266-20.216-11.318-4.686-23.45-7.096-35.7-7.093Zm0,0q-12.248,0,0,0Z" fill="#8292a2"/></g><g><g><path d="M291.856,218.381c-12.248,0-24.377,2.412-35.693,7.099-11.316,4.686-21.599,11.556-30.26,20.217s-15.531,18.943-20.219,30.259c-4.687,11.316-7.1,23.444-7.1,35.693v15.044h.302c1.495-23.641,11.94-45.825,29.211-62.038c17.27-16.212,40.069-25.237,63.757-25.237s46.487,9.025,63.757,25.237c17.271,16.213,27.716,38.397,29.211,62.038h.327v-15.044c0-12.25-2.414-24.381-7.102-35.698-4.689-11.317-11.561-21.6-20.225-30.261-8.663-8.661-18.947-15.531-30.266-20.216-11.318-4.686-23.45-7.096-35.7-7.093Zm0,0q-12.248,0,0,0Z" fill="none" stroke-width="2"/></g></g></g><g><g><path d="M385.149,311.649c-.18-24.619-10.086-48.169-27.557-65.514-17.472-17.345-41.093-27.079-65.713-27.079s-48.241,9.734-65.713,27.079-27.378,40.895-27.557,65.514v15.044h36.104v30.089h114.297v-30.089h36.139v-15.044Z" fill="none" stroke-linecap="round" stroke-linejoin="round"/></g><g><g><path d="M385.149,311.649c-.18-24.619-10.086-48.169-27.557-65.514-17.472-17.345-41.093-27.079-65.713-27.079s-48.241,9.734-65.713,27.079-27.378,40.895-27.557,65.514v15.044h36.104v30.089h114.297v-30.089h36.139v-15.044Z" fill="none" stroke="#000" stroke-width="2" stroke-linecap="round" stroke-linejoin="round"/></g></g></g><g><g><path d="M270.793,221.392c.084,5.529,2.341,10.804,6.281,14.685c3.941,3.88,9.25,6.056,14.78,6.056c5.531,0,10.84-2.176,14.781-6.056c3.94-3.881,6.196-9.156,6.281-14.685v-21.065h-42.123v21.065Z" fill="#ffda8f"/></g><g><g><path d="M270.793,221.392c.084,5.529,2.341,10.804,6.281,14.685c3.941,3.88,9.25,6.056,14.78,6.056c5.531,0,10.84-2.176,14.781-6.056c3.94-3.881,6.196-9.156,6.281-14.685v-21.065h-42.123v21.065Z" fill="none" stroke-width="2"/></g></g></g><g><g><path d="M270.793,221.288c13.738,4.125,28.385,4.125,42.123,0v-20.961h-42.123v20.961Z" fill="#ffbe3d"/></g><g><g><path d="M270.793,221.288c13.738,4.125,28.385,4.125,42.123,0v-20.961h-42.123v20.961Z" fill="none" stroke-width="2"/></g></g></g><g><g><path d="M270.793,221.392v-21.065h42.123v21.065c-.085,5.529-2.341,10.804-6.281,14.685-3.941,3.88-9.25,6.056-14.781,6.056-5.53,0-10.839-2.176-14.78-6.056-3.94-3.881-6.197-9.156-6.281-14.685Zm0,0v0Z" fill="none" stroke-linecap="round" stroke-linejoin="round"/></g><g><g><path d="M270.793,221.392v-21.065h42.123v21.065c-.085,5.529-2.341,10.804-6.281,14.685-3.941,3.88-9.25,6.056-14.781,6.056-5.53,0-10.839-2.176-14.78-6.056-3.94-3.881-6.197-9.156-6.281-14.685Zm0,0v0Z" fill="none" stroke="#000" stroke-width="2" stroke-linecap="round" stroke-linejoin="round"/></g></g></g><g><g><path d="M392.079,398.901h-200.455l2.51,8.911c.434,1.752,1.443,3.308,2.866,4.42c1.422,1.112,3.175,1.715,4.98,1.714h179.758c1.802.001,3.553-.602,4.973-1.712s2.428-2.663,2.863-4.412l2.505-8.921Z" fill="#adc4d9" stroke-linejoin="round"/></g><g><g><path d="M392.079,398.901h-200.455l2.51,8.911c.434,1.752,1.443,3.308,2.866,4.42c1.422,1.112,3.175,1.715,4.98,1.714h179.758c1.802.001,3.553-.602,4.973-1.712s2.428-2.663,2.863-4.412l2.505-8.921Z" fill="none" stroke="#000" stroke-width="2" stroke-linejoin="round"/></g></g></g><g><g><path d="M400.168,393.52c-.001,1.428-.569,2.796-1.579,3.806-1.01,1.009-2.379,1.575-3.806,1.575h-205.857c-1.427,0-2.796-.567-3.805-1.576s-1.576-2.377-1.576-3.805v-123.114c0-2.626,1.043-5.144,2.9-7.001c1.856-1.856,4.375-2.9,7.001-2.9h196.821c2.627,0,5.145,1.044,7.002,2.9c1.856,1.857,2.899,4.375,2.899,7.001v123.114Z" fill="#f5f5f5"/></g><g><g><path d="M400.168,393.52c-.001,1.428-.569,2.796-1.579,3.806-1.01,1.009-2.379,1.575-3.806,1.575h-205.857c-1.427,0-2.796-.567-3.805-1.576s-1.576-2.377-1.576-3.805v-123.114c0-2.626,1.043-5.144,2.9-7.001c1.856-1.856,4.375-2.9,7.001-2.9h196.821c2.627,0,5.145,1.044,7.002,2.9c1.856,1.857,2.899,4.375,2.899,7.001v123.114Z" fill="none" stroke-width="2"/></g></g></g><g><g><path d="M400.168,270.406c0-2.626-1.043-5.144-2.899-7.001-1.857-1.856-4.375-2.9-7.002-2.9h-196.821c-2.626,0-5.145,1.044-7.001,2.9-1.857,1.857-2.9,4.375-2.9,7.001v31.302c0-4.336,3.514-14.128,7.851-14.128h200.921c4.337,0,7.851,9.792,7.851,14.128v-31.302Z" fill="#fff"/></g><g><g><path d="M400.168,270.406c0-2.626-1.043-5.144-2.899-7.001-1.857-1.856-4.375-2.9-7.002-2.9h-196.821c-2.626,0-5.145,1.044-7.001,2.9-1.857,1.857-2.9,4.375-2.9,7.001v31.302c0-4.336,3.514-14.128,7.851-14.128h200.921c4.337,0,7.851,9.792,7.851,14.128v-31.302Z" fill="none" stroke-width="2"/></g></g></g><g><g><path d="M400.168,393.52c-.001,1.428-.569,2.796-1.579,3.806-1.01,1.009-2.379,1.575-3.806,1.575h-205.857c-1.427,0-2.796-.567-3.805-1.576s-1.576-2.377-1.576-3.805v-123.114c0-2.626,1.043-5.144,2.9-7.001c1.856-1.856,4.375-2.9,7.001-2.9h196.821c2.627,0,5.145,1.044,7.002,2.9c1.856,1.857,2.899,4.375,2.899,7.001v123.114Z" fill="none" stroke-linejoin="round"/></g><g><g><path d="M400.168,393.52c-.001,1.428-.569,2.796-1.579,3.806-1.01,1.009-2.379,1.575-3.806,1.575h-205.857c-1.427,0-2.796-.567-3.805-1.576s-1.576-2.377-1.576-3.805v-123.114c0-2.626,1.043-5.144,2.9-7.001c1.856-1.856,4.375-2.9,7.001-2.9h196.821c2.627,0,5.145,1.044,7.002,2.9c1.856,1.857,2.899,4.375,2.899,7.001v123.114Z" fill="none" stroke="#000" stroke-width="2" stroke-linejoin="round"/></g></g></g><g><g><path d="M306.366,341.372c-.021-1.809.336-3.602,1.05-5.264.714-1.661,1.768-3.155,3.094-4.385-.582-1.44-1.515-2.712-2.716-3.698-1.2-.986-2.629-1.655-4.155-1.945-2.038-.011-4.034.57-5.748,1.671-1.714,1.1-3.073,2.675-3.911,4.532-.838-1.857-2.196-3.432-3.91-4.532-1.715-1.101-3.711-1.682-5.748-1.671-5.941.708-9.812,8.817-8.698,18.114s6.807,16.252,12.723,15.544c1.135-.174,2.222-.582,3.192-1.198s1.801-1.427,2.441-2.381c.641.955,1.472,1.766,2.443,2.382s2.059,1.024,3.196,1.197c4.327.52,8.525-3.094,10.891-8.708-1.328-1.23-2.383-2.726-3.097-4.389-.713-1.664-1.07-3.459-1.047-5.269Zm0,0q-.021-1.809,0,0Z" fill="#fff" stroke-linejoin="round"/></g><g><g><path d="M306.366,341.372c-.021-1.809.336-3.602,1.05-5.264.714-1.661,1.768-3.155,3.094-4.385-.582-1.44-1.515-2.712-2.716-3.698-1.2-.986-2.629-1.655-4.155-1.945-2.038-.011-4.034.57-5.748,1.671-1.714,1.1-3.073,2.675-3.911,4.532-.838-1.857-2.196-3.432-3.91-4.532-1.715-1.101-3.711-1.682-5.748-1.671-5.941.708-9.812,8.817-8.698,18.114s6.807,16.252,12.723,15.544c1.135-.174,2.222-.582,3.192-1.198s1.801-1.427,2.441-2.381c.641.955,1.472,1.766,2.443,2.382s2.059,1.024,3.196,1.197c4.327.52,8.525-3.094,10.891-8.708-1.328-1.23-2.383-2.726-3.097-4.389-.713-1.664-1.07-3.459-1.047-5.269Zm0,0q-.021-1.809,0,0Z" fill="none" stroke="#000" stroke-width="2" stroke-linejoin="round"/></g></g></g><g><g><path d="M301.485,307.198c-1.408,1.18-2.533,2.662-3.291,4.335-.759,1.674-1.131,3.497-1.09,5.333c1.799.378,3.66.342,5.444-.102c1.783-.444,3.443-1.286,4.855-2.463c1.412-1.176,2.539-2.657,3.297-4.331.759-1.674,1.129-3.499,1.082-5.336-1.798-.372-3.658-.335-5.44.109-1.783.444-3.442,1.283-4.857,2.455Zm0,0q-1.408,1.18,0,0Z" fill="#fff" stroke-linejoin="round"/></g><g><g><path d="M301.485,307.198c-1.408,1.18-2.533,2.662-3.291,4.335-.759,1.674-1.131,3.497-1.09,5.333c1.799.378,3.66.342,5.444-.102c1.783-.444,3.443-1.286,4.855-2.463c1.412-1.176,2.539-2.657,3.297-4.331.759-1.674,1.129-3.499,1.082-5.336-1.798-.372-3.658-.335-5.44.109-1.783.444-3.442,1.283-4.857,2.455Zm0,0q-1.408,1.18,0,0Z" fill="none" stroke="#000" stroke-width="2" stroke-linejoin="round"/></g></g></g><g><g><path d="M400.1,338.733l14.678-.233c1.185-.02,2.362.194,3.464.63c1.102.435,2.108,1.084,2.959,1.908.852.824,1.532,1.809,2.003,2.896s.723,2.257.742,3.442l.292,18.05c.018,1.185-.197,2.363-.634,3.466s-1.087,2.108-1.912,2.959c-.826.852-1.811,1.532-2.9,2.003-1.089.47-2.259.722-3.445.74l-14.683.238c-2.864.077-5.658-.882-7.87-2.701-2.213-1.819-3.694-4.376-4.17-7.2-.768-5.276-.855-10.629-.257-15.926.388-2.84,1.789-5.443,3.945-7.331c2.156-1.887,4.922-2.932,7.788-2.941Zm0,0v0Z" fill="#ffda8f"/></g><g><g><path d="M400.1,338.733l14.678-.233c1.185-.02,2.362.194,3.464.63c1.102.435,2.108,1.084,2.959,1.908.852.824,1.532,1.809,2.003,2.896s.723,2.257.742,3.442l.292,18.05c.018,1.185-.197,2.363-.634,3.466s-1.087,2.108-1.912,2.959c-.826.852-1.811,1.532-2.9,2.003-1.089.47-2.259.722-3.445.74l-14.683.238c-2.864.077-5.658-.882-7.87-2.701-2.213-1.819-3.694-4.376-4.17-7.2-.768-5.276-.855-10.629-.257-15.926.388-2.84,1.789-5.443,3.945-7.331c2.156-1.887,4.922-2.932,7.788-2.941Zm0,0v0Z" fill="none" stroke-width="2"/></g></g></g><g><g><path d="M399.931,350.243L415.04,350c2.022-.048,4.005.571,5.641,1.761c1.636,1.189,2.835,2.885,3.414,4.823l-.149-9.208c-.019-1.185-.271-2.355-.742-3.442-.47-1.087-1.151-2.072-2.003-2.896-.851-.824-1.856-1.473-2.959-1.908-1.102-.436-2.279-.65-3.464-.63l-14.678.233c-2.865.012-5.629,1.058-7.783,2.947-2.154,1.888-3.554,4.491-3.94,7.33-.35,3.373-.42,6.769-.208,10.153.719-2.566,2.258-4.827,4.381-6.438c2.124-1.61,4.716-2.482,7.381-2.482Zm0,0v0Z" fill="#ffda8f"/></g><g><g><path d="M399.931,350.243L415.04,350c2.022-.048,4.005.571,5.641,1.761c1.636,1.189,2.835,2.885,3.414,4.823l-.149-9.208c-.019-1.185-.271-2.355-.742-3.442-.47-1.087-1.151-2.072-2.003-2.896-.851-.824-1.856-1.473-2.959-1.908-1.102-.436-2.279-.65-3.464-.63l-14.678.233c-2.865.012-5.629,1.058-7.783,2.947-2.154,1.888-3.554,4.491-3.94,7.33-.35,3.373-.42,6.769-.208,10.153.719-2.566,2.258-4.827,4.381-6.438c2.124-1.61,4.716-2.482,7.381-2.482Zm0,0v0Z" fill="none" stroke-width="2"/></g></g></g><g><g><path d="M400.1,338.733l14.678-.233c1.185-.02,2.362.194,3.464.63c1.102.435,2.108,1.084,2.959,1.908.852.824,1.532,1.809,2.003,2.896s.723,2.257.742,3.442l.292,18.05c.018,1.185-.197,2.363-.634,3.466s-1.087,2.108-1.912,2.959c-.826.852-1.811,1.532-2.9,2.003-1.089.47-2.259.722-3.445.74l-14.683.238c-2.864.077-5.658-.882-7.87-2.701-2.213-1.819-3.694-4.376-4.17-7.2-.768-5.276-.855-10.629-.257-15.926.388-2.84,1.789-5.443,3.945-7.331c2.156-1.887,4.922-2.932,7.788-2.941Zm0,0v0Z" fill="none" stroke-linecap="round" stroke-linejoin="round"/></g><g><g><path d="M400.1,338.733l14.678-.233c1.185-.02,2.362.194,3.464.63c1.102.435,2.108,1.084,2.959,1.908.852.824,1.532,1.809,2.003,2.896s.723,2.257.742,3.442l.292,18.05c.018,1.185-.197,2.363-.634,3.466s-1.087,2.108-1.912,2.959c-.826.852-1.811,1.532-2.9,2.003-1.089.47-2.259.722-3.445.74l-14.683.238c-2.864.077-5.658-.882-7.87-2.701-2.213-1.819-3.694-4.376-4.17-7.2-.768-5.276-.855-10.629-.257-15.926.388-2.84,1.789-5.443,3.945-7.331c2.156-1.887,4.922-2.932,7.788-2.941Zm0,0v0Z" fill="none" stroke="#000" stroke-width="2" stroke-linecap="round" stroke-linejoin="round"/></g></g></g><g><g><path d="M204.109,304.777c-.529,2.815-2.057,5.344-4.303,7.122-2.246,1.777-5.058,2.683-7.919,2.551l-14.674-.495c-1.184-.041-2.35-.314-3.429-.806-1.079-.491-2.05-1.191-2.859-2.057-.809-.868-1.439-1.886-1.854-2.996-.415-1.111-.607-2.292-.566-3.477l.624-18.04c.084-2.392,1.115-4.654,2.866-6.287s4.078-2.503,6.471-2.421l14.673.495c2.863.067,5.607,1.165,7.724,3.094c2.118,1.928,3.468,4.557,3.801,7.401.499,5.307.313,10.657-.555,15.916Z" fill="#ffda8f"/></g><g><g><path d="M204.109,304.777c-.529,2.815-2.057,5.344-4.303,7.122-2.246,1.777-5.058,2.683-7.919,2.551l-14.674-.495c-1.184-.041-2.35-.314-3.429-.806-1.079-.491-2.05-1.191-2.859-2.057-.809-.868-1.439-1.886-1.854-2.996-.415-1.111-.607-2.292-.566-3.477l.624-18.04c.084-2.392,1.115-4.654,2.866-6.287s4.078-2.503,6.471-2.421l14.673.495c2.863.067,5.607,1.165,7.724,3.094c2.118,1.928,3.468,4.557,3.801,7.401.499,5.307.313,10.657-.555,15.916Z" fill="none" stroke-width="2"/></g></g></g><g><g><path d="M192.634,302.97l-15.104-.524c-2.026-.052-3.978-.771-5.553-2.045-1.577-1.273-2.689-3.031-3.165-5l-.321,9.203c-.042,1.187.151,2.371.568,3.484.417,1.112,1.049,2.131,1.861,2.999.812.867,1.787,1.566,2.87,2.056c1.082.489,2.251.76,3.438.798l14.673.495c2.861.131,5.674-.775,7.92-2.552c2.245-1.778,3.774-4.307,4.303-7.122.522-3.35.763-6.738.723-10.128-.845,2.533-2.497,4.719-4.702,6.225-2.206,1.506-4.844,2.247-7.511,2.111Zm0,0v0Z" fill="#ffbe3d"/></g><g><g><path d="M192.634,302.97l-15.104-.524c-2.026-.052-3.978-.771-5.553-2.045-1.577-1.273-2.689-3.031-3.165-5l-.321,9.203c-.042,1.187.151,2.371.568,3.484.417,1.112,1.049,2.131,1.861,2.999.812.867,1.787,1.566,2.87,2.056c1.082.489,2.251.76,3.438.798l14.673.495c2.861.131,5.674-.775,7.92-2.552c2.245-1.778,3.774-4.307,4.303-7.122.522-3.35.763-6.738.723-10.128-.845,2.533-2.497,4.719-4.702,6.225-2.206,1.506-4.844,2.247-7.511,2.111Zm0,0v0Z" fill="none" stroke-width="2"/></g></g></g><g><g><path d="M204.109,304.777c-.529,2.815-2.057,5.344-4.303,7.122-2.246,1.777-5.058,2.683-7.919,2.551l-14.674-.495c-1.184-.041-2.35-.314-3.429-.806-1.079-.491-2.05-1.191-2.859-2.057-.809-.868-1.439-1.886-1.854-2.996-.415-1.111-.607-2.292-.566-3.477l.624-18.04c.084-2.392,1.115-4.654,2.866-6.287s4.078-2.503,6.471-2.421l14.673.495c2.863.067,5.607,1.165,7.724,3.094c2.118,1.928,3.468,4.557,3.801,7.401.499,5.307.313,10.657-.555,15.916Z" fill="none" stroke-linecap="round" stroke-linejoin="round"/></g><g><g><path d="M204.109,304.777c-.529,2.815-2.057,5.344-4.303,7.122-2.246,1.777-5.058,2.683-7.919,2.551l-14.674-.495c-1.184-.041-2.35-.314-3.429-.806-1.079-.491-2.05-1.191-2.859-2.057-.809-.868-1.439-1.886-1.854-2.996-.415-1.111-.607-2.292-.566-3.477l.624-18.04c.084-2.392,1.115-4.654,2.866-6.287s4.078-2.503,6.471-2.421l14.673.495c2.863.067,5.607,1.165,7.724,3.094c2.118,1.928,3.468,4.557,3.801,7.401.499,5.307.313,10.657-.555,15.916Z" fill="none" stroke="#000" stroke-width="2" stroke-linecap="round" stroke-linejoin="round"/></g></g></g><g><g><path d="M250.496,360.535l-12.411,18.673c-.301.453-.473.979-.498,1.523-.026.543.096,1.083.353,1.562.258.479.639.88,1.106,1.16.466.279,1,.427,1.544.428h24.861c.544-.001,1.077-.149,1.544-.428.466-.28.849-.681,1.105-1.16.257-.479.379-1.019.354-1.562-.025-.544-.198-1.07-.498-1.523l-12.431-18.649c-.272-.418-.643-.761-1.081-1.001-.438-.239-.928-.365-1.427-.367-.499-.003-.99.119-1.43.354-.44.234-.815.574-1.091.99Z" fill="#ff6242" stroke-linecap="round" stroke-linejoin="round"/></g><g><g><path d="M250.496,360.535l-12.411,18.673c-.301.453-.473.979-.498,1.523-.026.543.096,1.083.353,1.562.258.479.639.88,1.106,1.16.466.279,1,.427,1.544.428h24.861c.544-.001,1.077-.149,1.544-.428.466-.28.849-.681,1.105-1.16.257-.479.379-1.019.354-1.562-.025-.544-.198-1.07-.498-1.523l-12.431-18.649c-.272-.418-.643-.761-1.081-1.001-.438-.239-.928-.365-1.427-.367-.499-.003-.99.119-1.43.354-.44.234-.815.574-1.091.99Z" fill="none" stroke="#000" stroke-width="2" stroke-linecap="round" stroke-linejoin="round"/></g></g></g><g><g><path d="M228.951,338.728l15.673,8.955c-1.969,3.442-5.016,6.14-8.671,7.676-3.655,1.537-7.715,1.827-11.552.825-3.836-1.001-7.236-3.239-9.673-6.366s-3.777-6.971-3.812-10.936c-.034-3.965,1.238-7.831,3.621-11c2.383-3.17,5.743-5.466,9.561-6.534c3.819-1.068,7.883-.849,11.564.623c3.682,1.473,6.776,4.117,8.804,7.524l-15.515,9.233Z" fill="#ffe500" stroke-linecap="round" stroke-linejoin="round"/></g><g><g><path d="M228.951,338.728l15.673,8.955c-1.969,3.442-5.016,6.14-8.671,7.676-3.655,1.537-7.715,1.827-11.552.825-3.836-1.001-7.236-3.239-9.673-6.366s-3.777-6.971-3.812-10.936c-.034-3.965,1.238-7.831,3.621-11c2.383-3.17,5.743-5.466,9.561-6.534c3.819-1.068,7.883-.849,11.564.623c3.682,1.473,6.776,4.117,8.804,7.524l-15.515,9.233Z" fill="none" stroke="#000" stroke-width="2" stroke-linecap="round" stroke-linejoin="round"/></g></g></g><g><g><path d="M250,339.263c-.142,0-.277-.057-.378-.157-.1-.1-.156-.236-.156-.378s.056-.278.156-.378c.101-.1.236-.156.378-.156.071,0,.14.013.205.04s.124.066.174.116c.049.05.088.108.116.173.026.065.04.135.04.205s-.014.14-.04.205c-.028.065-.067.123-.116.173-.05.05-.109.089-.174.116s-.134.041-.205.041Zm0,0q-.142,0,0,0Z" fill="#ffe500"/></g><g><g><path d="M250,339.263c-.142,0-.277-.057-.378-.157-.1-.1-.156-.236-.156-.378s.056-.278.156-.378c.101-.1.236-.156.378-.156.071,0,.14.013.205.04s.124.066.174.116c.049.05.088.108.116.173.026.065.04.135.04.205s-.014.14-.04.205c-.028.065-.067.123-.116.173-.05.05-.109.089-.174.116s-.134.041-.205.041Zm0,0q-.142,0,0,0Z" fill="none" stroke-width="2"/></g></g></g><g><g><path d="M250,335.718c-.595,0-1.177.177-1.672.507-.495.331-.88.801-1.108,1.351s-.288,1.155-.171,1.739c.115.584.402,1.121.823,1.541.421.421.957.708,1.541.824s1.189.057,1.739-.171s1.02-.614,1.351-1.109.507-1.077.507-1.672c0-.798-.317-1.564-.881-2.128-.565-.565-1.33-.882-2.129-.882Zm0,0q-.595,0,0,0Z"/></g><g><g><path d="M250,335.718c-.595,0-1.177.177-1.672.507-.495.331-.88.801-1.108,1.351s-.288,1.155-.171,1.739c.115.584.402,1.121.823,1.541.421.421.957.708,1.541.824s1.189.057,1.739-.171s1.02-.614,1.351-1.109.507-1.077.507-1.672c0-.798-.317-1.564-.881-2.128-.565-.565-1.33-.882-2.129-.882Zm0,0q-.595,0,0,0Z" fill="none" stroke-width="2"/></g></g></g><g><g><path d="M262.05,339.263c-.106.001-.21-.03-.299-.088-.088-.058-.157-.141-.199-.239-.041-.097-.052-.205-.032-.309s.071-.2.145-.275c.075-.076.17-.127.274-.148s.211-.011.31.03c.098.04.181.109.24.197.059.087.091.191.091.297c0,.141-.056.276-.155.376s-.234.157-.375.159Zm0,0q-.106.001,0,0Z" fill="#ffe500"/></g><g><g><path d="M262.05,339.263c-.106.001-.21-.03-.299-.088-.088-.058-.157-.141-.199-.239-.041-.097-.052-.205-.032-.309s.071-.2.145-.275c.075-.076.17-.127.274-.148s.211-.011.31.03c.098.04.181.109.24.197.059.087.091.191.091.297c0,.141-.056.276-.155.376s-.234.157-.375.159Zm0,0q-.106.001,0,0Z" fill="none" stroke-width="2"/></g></g></g><g><g><path d="M262.045,335.718c-.595,0-1.177.177-1.672.507-.495.331-.881.801-1.109,1.351s-.287,1.155-.171,1.739.403,1.121.824,1.541c.421.421.957.708,1.541.824s1.189.057,1.739-.171s1.02-.614,1.351-1.109c.33-.495.507-1.077.507-1.672c0-.798-.317-1.564-.882-2.128-.564-.565-1.33-.882-2.128-.882Zm0,0q-.595,0,0,0Z"/></g><g><g><path d="M262.045,335.718c-.595,0-1.177.177-1.672.507-.495.331-.881.801-1.109,1.351s-.287,1.155-.171,1.739.403,1.121.824,1.541c.421.421.957.708,1.541.824s1.189.057,1.739-.171s1.02-.614,1.351-1.109c.33-.495.507-1.077.507-1.672c0-.798-.317-1.564-.882-2.128-.564-.565-1.33-.882-2.128-.882Zm0,0q-.595,0,0,0Z" fill="none" stroke-width="2"/></g></g></g><g><g><path d="M364.203,367.293c-.043.471-.197.926-.449,1.327s-.595.736-1.001.98l-12.183,7.311c-.468.282-1.004.431-1.55.431s-1.081-.149-1.549-.431L335.288,369.6c-.407-.244-.75-.579-1.002-.98s-.406-.856-.449-1.327L331.268,339c-.038-.416.011-.836.144-1.232.134-.396.348-.76.63-1.069.282-.308.625-.555,1.007-.724s.796-.257,1.214-.257h29.515c.416.004.826.094,1.206.264.379.17.719.418.998.726.279.309.491.672.623,1.066s.181.812.143,1.226l-2.545,28.293Z" fill="#ff6242" stroke-linecap="round" stroke-linejoin="round"/></g><g><g><path d="M364.203,367.293c-.043.471-.197.926-.449,1.327s-.595.736-1.001.98l-12.183,7.311c-.468.282-1.004.431-1.55.431s-1.081-.149-1.549-.431L335.288,369.6c-.407-.244-.75-.579-1.002-.98s-.406-.856-.449-1.327L331.268,339c-.038-.416.011-.836.144-1.232.134-.396.348-.76.63-1.069.282-.308.625-.555,1.007-.724s.796-.257,1.214-.257h29.515c.416.004.826.094,1.206.264.379.17.719.418.998.726.279.309.491.672.623,1.066s.181.812.143,1.226l-2.545,28.293Z" fill="none" stroke="#000" stroke-width="2" stroke-linecap="round" stroke-linejoin="round"/></g></g></g><g><g><path d="M301.153,273.267c.046-.331.161-.648.339-.931s.414-.524.694-.707c.279-.183.594-.305.924-.356.33-.052.667-.031.989.059.757.246,1.389.779,1.757,1.485l7.015,15.742h.06l2.737-11.995c.057-.326.18-.637.361-.914.18-.278.416-.516.692-.7.276-.183.585-.308.912-.368.325-.06.66-.053.983.021s.627.212.895.407c.267.195.492.443.661.728s.278.601.321.93c.043.328.018.662-.072.981l-4.084,18.039c-.043.335-.158.656-.337.942-.179.285-.418.528-.701.713-.283.184-.601.304-.936.353-.333.048-.673.024-.997-.072-.756-.249-1.386-.781-1.757-1.485l-7.04-15.565h-.064l-2.698,11.842c-.148.634-.541,1.182-1.094,1.526-.552.343-1.218.453-1.852.306-.633-.148-1.182-.542-1.525-1.094-.344-.553-.454-1.218-.306-1.852l4.123-18.035Z"/></g><g><g><path d="M301.153,273.267c.046-.331.161-.648.339-.931s.414-.524.694-.707c.279-.183.594-.305.924-.356.33-.052.667-.031.989.059.757.246,1.389.779,1.757,1.485l7.015,15.742h.06l2.737-11.995c.057-.326.18-.637.361-.914.18-.278.416-.516.692-.7.276-.183.585-.308.912-.368.325-.06.66-.053.983.021s.627.212.895.407c.267.195.492.443.661.728s.278.601.321.93c.043.328.018.662-.072.981l-4.084,18.039c-.043.335-.158.656-.337.942-.179.285-.418.528-.701.713-.283.184-.601.304-.936.353-.333.048-.673.024-.997-.072-.756-.249-1.386-.781-1.757-1.485l-7.04-15.565h-.064l-2.698,11.842c-.148.634-.541,1.182-1.094,1.526-.552.343-1.218.453-1.852.306-.633-.148-1.182-.542-1.525-1.094-.344-.553-.454-1.218-.306-1.852l4.123-18.035Z" fill="none" stroke-width="2"/></g></g></g><g><g><path d="M357.02,286.163c.059-.328.186-.64.374-.917.187-.277.429-.511.712-.689.283-.177.599-.294.93-.342.33-.048.667-.027.989.062l5.267,1.198c1.556.247,3.039.831,4.345,1.711c1.307.881,2.405,2.036,3.217,3.385.813,1.35,1.321,2.861,1.488,4.427s-.01,3.151-.52,4.641c-.227,1.483-.768,2.901-1.588,4.159-.819,1.257-1.898,2.324-3.164,3.131-1.265.806-2.689,1.332-4.174,1.544-1.487.211-3,.102-4.441-.32l-5.505-1.257c-.333-.047-.653-.164-.939-.344-.285-.179-.529-.416-.716-.697s-.313-.598-.369-.93-.04-.673.044-.999l4.05-17.763Zm1.168,16.862l3.208.727c.858.21,1.751.23,2.618.06.866-.17,1.686-.526,2.401-1.044s1.309-1.185,1.741-1.955.691-1.625.76-2.506c.345-.858.495-1.783.438-2.707-.057-.923-.319-1.822-.768-2.631-.449-.81-1.072-1.508-1.826-2.046-.753-.537-1.616-.9-2.527-1.062l-2.891-.658-3.154,13.822Z"/></g><g><g><path d="M357.02,286.163c.059-.328.186-.64.374-.917.187-.277.429-.511.712-.689.283-.177.599-.294.93-.342.33-.048.667-.027.989.062l5.267,1.198c1.556.247,3.039.831,4.345,1.711c1.307.881,2.405,2.036,3.217,3.385.813,1.35,1.321,2.861,1.488,4.427s-.01,3.151-.52,4.641c-.227,1.483-.768,2.901-1.588,4.159-.819,1.257-1.898,2.324-3.164,3.131-1.265.806-2.689,1.332-4.174,1.544-1.487.211-3,.102-4.441-.32l-5.505-1.257c-.333-.047-.653-.164-.939-.344-.285-.179-.529-.416-.716-.697s-.313-.598-.369-.93-.04-.673.044-.999l4.05-17.763Zm1.168,16.862l3.208.727c.858.21,1.751.23,2.618.06.866-.17,1.686-.526,2.401-1.044s1.309-1.185,1.741-1.955.691-1.625.76-2.506c.345-.858.495-1.783.438-2.707-.057-.923-.319-1.822-.768-2.631-.449-.81-1.072-1.508-1.826-2.046-.753-.537-1.616-.9-2.527-1.062l-2.891-.658-3.154,13.822Z" fill="none" stroke-width="2"/></g></g></g><g><g><path d="M378.099,291.302c.03-.36.138-.709.316-1.022.179-.314.424-.585.718-.794s.631-.351.986-.416.72-.052,1.069.039l7.871,1.797c.301.046.589.156.844.321.256.165.474.382.641.637.166.255.276.542.324.843.048.3.032.608-.046.902-.062.296-.184.577-.359.824s-.4.456-.659.613c-.258.157-.547.259-.848.3-.3.04-.605.018-.897-.064l-5.579-1.267-1.054,4.634l5.203,1.183c.305.044.597.152.857.317.261.164.484.382.655.638s.287.545.339.849c.053.304.041.614-.034.914-.067.299-.194.581-.373.828-.18.248-.409.457-.673.613-.263.156-.556.256-.86.294s-.612.014-.906-.072l-5.208-1.188-1.099,4.826l5.871,1.337c.301.048.588.159.843.324.255.166.472.384.638.639s.276.543.323.843c.048.301.032.608-.047.902-.061.296-.183.576-.356.823-.175.247-.398.455-.656.613-.258.157-.545.26-.844.302-.3.041-.605.021-.896-.06l-8.193-1.866c-.324-.056-.633-.179-.908-.36-.274-.182-.508-.418-.687-.694-.178-.276-.298-.587-.351-.911-.052-.325-.037-.657.045-.976l3.99-17.465Z"/></g><g><g><path d="M378.099,291.302c.03-.36.138-.709.316-1.022.179-.314.424-.585.718-.794s.631-.351.986-.416.72-.052,1.069.039l7.871,1.797c.301.046.589.156.844.321.256.165.474.382.641.637.166.255.276.542.324.843.048.3.032.608-.046.902-.062.296-.184.577-.359.824s-.4.456-.659.613c-.258.157-.547.259-.848.3-.3.04-.605.018-.897-.064l-5.579-1.267-1.054,4.634l5.203,1.183c.305.044.597.152.857.317.261.164.484.382.655.638s.287.545.339.849c.053.304.041.614-.034.914-.067.299-.194.581-.373.828-.18.248-.409.457-.673.613-.263.156-.556.256-.86.294s-.612.014-.906-.072l-5.208-1.188-1.099,4.826l5.871,1.337c.301.048.588.159.843.324.255.166.472.384.638.639s.276.543.323.843c.048.301.032.608-.047.902-.061.296-.183.576-.356.823-.175.247-.398.455-.656.613-.258.157-.545.26-.844.302-.3.041-.605.021-.896-.06l-8.193-1.866c-.324-.056-.633-.179-.908-.36-.274-.182-.508-.418-.687-.694-.178-.276-.298-.587-.351-.911-.052-.325-.037-.657.045-.976l3.99-17.465Z" fill="none" stroke-width="2"/></g></g></g><g><g><path d="M301.153,273.267c.046-.331.161-.648.339-.931s.414-.524.694-.707c.279-.183.594-.305.924-.356.33-.052.667-.031.989.059.757.246,1.389.779,1.757,1.485l7.015,15.742h.06l2.737-11.995c.057-.326.18-.637.361-.914.18-.278.416-.516.692-.7.276-.183.585-.308.912-.368.325-.06.66-.053.983.021s.627.212.895.407c.267.195.492.443.661.728s.278.601.321.93c.043.328.018.662-.072.981l-4.084,18.039c-.043.335-.158.656-.337.942-.179.285-.418.528-.701.713-.283.184-.601.304-.936.353-.333.048-.673.024-.997-.072-.756-.249-1.386-.781-1.757-1.485l-7.04-15.565h-.064l-2.698,11.842c-.148.634-.541,1.182-1.094,1.526-.552.343-1.218.453-1.852.306-.633-.148-1.182-.542-1.525-1.094-.344-.553-.454-1.218-.306-1.852l4.123-18.035Z" fill="none"/></g><g><g><path d="M301.153,273.267c.046-.331.161-.648.339-.931s.414-.524.694-.707c.279-.183.594-.305.924-.356.33-.052.667-.031.989.059.757.246,1.389.779,1.757,1.485l7.015,15.742h.06l2.737-11.995c.057-.326.18-.637.361-.914.18-.278.416-.516.692-.7.276-.183.585-.308.912-.368.325-.06.66-.053.983.021s.627.212.895.407c.267.195.492.443.661.728s.278.601.321.93c.043.328.018.662-.072.981l-4.084,18.039c-.043.335-.158.656-.337.942-.179.285-.418.528-.701.713-.283.184-.601.304-.936.353-.333.048-.673.024-.997-.072-.756-.249-1.386-.781-1.757-1.485l-7.04-15.565h-.064l-2.698,11.842c-.148.634-.541,1.182-1.094,1.526-.552.343-1.218.453-1.852.306-.633-.148-1.182-.542-1.525-1.094-.344-.553-.454-1.218-.306-1.852l4.123-18.035Z" fill="none" stroke="#000" stroke-width="2"/></g></g></g><g><g><path d="M357.02,286.163c.059-.328.186-.64.374-.917.187-.277.429-.511.712-.689.283-.177.599-.294.93-.342.33-.048.667-.027.989.062l5.267,1.198c1.556.247,3.039.831,4.345,1.711c1.307.881,2.405,2.036,3.217,3.385.813,1.35,1.321,2.861,1.488,4.427s-.01,3.151-.52,4.641c-.227,1.483-.768,2.901-1.588,4.159-.819,1.257-1.898,2.324-3.164,3.131-1.265.806-2.689,1.332-4.174,1.544-1.487.211-3,.102-4.441-.32l-5.505-1.257c-.333-.047-.653-.164-.939-.344-.285-.179-.529-.416-.716-.697s-.313-.598-.369-.93-.04-.673.044-.999l4.05-17.763Zm1.168,16.862l3.208.727c.858.21,1.751.23,2.618.06.866-.17,1.686-.526,2.401-1.044s1.309-1.185,1.741-1.955.691-1.625.76-2.506c.345-.858.495-1.783.438-2.707-.057-.923-.319-1.822-.768-2.631-.449-.81-1.072-1.508-1.826-2.046-.753-.537-1.616-.9-2.527-1.062l-2.891-.658-3.154,13.822Z" fill="none"/></g><g><g><path d="M357.02,286.163c.059-.328.186-.64.374-.917.187-.277.429-.511.712-.689.283-.177.599-.294.93-.342.33-.048.667-.027.989.062l5.267,1.198c1.556.247,3.039.831,4.345,1.711c1.307.881,2.405,2.036,3.217,3.385.813,1.35,1.321,2.861,1.488,4.427s-.01,3.151-.52,4.641c-.227,1.483-.768,2.901-1.588,4.159-.819,1.257-1.898,2.324-3.164,3.131-1.265.806-2.689,1.332-4.174,1.544-1.487.211-3,.102-4.441-.32l-5.505-1.257c-.333-.047-.653-.164-.939-.344-.285-.179-.529-.416-.716-.697s-.313-.598-.369-.93-.04-.673.044-.999l4.05-17.763Zm1.168,16.862l3.208.727c.858.21,1.751.23,2.618.06.866-.17,1.686-.526,2.401-1.044s1.309-1.185,1.741-1.955.691-1.625.76-2.506c.345-.858.495-1.783.438-2.707-.057-.923-.319-1.822-.768-2.631-.449-.81-1.072-1.508-1.826-2.046-.753-.537-1.616-.9-2.527-1.062l-2.891-.658-3.154,13.822Z" fill="none" stroke="#000" stroke-width="2"/></g></g></g><g><g><path d="M378.099,291.302c.03-.36.138-.709.316-1.022.179-.314.424-.585.718-.794s.631-.351.986-.416.72-.052,1.069.039l7.871,1.797c.301.046.589.156.844.321.256.165.474.382.641.637.166.255.276.542.324.843.048.3.032.608-.046.902-.062.296-.184.577-.359.824s-.4.456-.659.613c-.258.157-.547.259-.848.3-.3.04-.605.018-.897-.064l-5.579-1.267-1.054,4.634l5.203,1.183c.305.044.597.152.857.317.261.164.484.382.655.638s.287.545.339.849c.053.304.041.614-.034.914-.067.299-.194.581-.373.828-.18.248-.409.457-.673.613-.263.156-.556.256-.86.294s-.612.014-.906-.072l-5.208-1.188-1.099,4.826l5.871,1.337c.301.048.588.159.843.324.255.166.472.384.638.639s.276.543.323.843c.048.301.032.608-.047.902-.061.296-.183.576-.356.823-.175.247-.398.455-.656.613-.258.157-.545.26-.844.302-.3.041-.605.021-.896-.06l-8.193-1.866c-.324-.056-.633-.179-.908-.36-.274-.182-.508-.418-.687-.694-.178-.276-.298-.587-.351-.911-.052-.325-.037-.657.045-.976l3.99-17.465Z" fill="none"/></g><g><g><path d="M378.099,291.302c.03-.36.138-.709.316-1.022.179-.314.424-.585.718-.794s.631-.351.986-.416.72-.052,1.069.039l7.871,1.797c.301.046.589.156.844.321.256.165.474.382.641.637.166.255.276.542.324.843.048.3.032.608-.046.902-.062.296-.184.577-.359.824s-.4.456-.659.613c-.258.157-.547.259-.848.3-.3.04-.605.018-.897-.064l-5.579-1.267-1.054,4.634l5.203,1.183c.305.044.597.152.857.317.261.164.484.382.655.638s.287.545.339.849c.053.304.041.614-.034.914-.067.299-.194.581-.373.828-.18.248-.409.457-.673.613-.263.156-.556.256-.86.294s-.612.014-.906-.072l-5.208-1.188-1.099,4.826l5.871,1.337c.301.048.588.159.843.324.255.166.472.384.638.639s.276.543.323.843c.048.301.032.608-.047.902-.061.296-.183.576-.356.823-.175.247-.398.455-.656.613-.258.157-.545.26-.844.302-.3.041-.605.021-.896-.06l-8.193-1.866c-.324-.056-.633-.179-.908-.36-.274-.182-.508-.418-.687-.694-.178-.276-.298-.587-.351-.911-.052-.325-.037-.657.045-.976l3.99-17.465Z" fill="none" stroke="#000" stroke-width="2"/></g></g></g><g><g><path d="M325.55,281.747l13.074-3.193l10.396,8.54-3.342,14.668-13.069,3.193-10.396-8.54l3.337-14.668Z" fill="#37dea6" stroke-linecap="round" stroke-linejoin="round"/></g><g><g><path d="M325.55,281.747l13.074-3.193l10.396,8.54-3.342,14.668-13.069,3.193-10.396-8.54l3.337-14.668Z" fill="none" stroke="#000" stroke-width="2" stroke-linecap="round" stroke-linejoin="round"/></g></g></g><g><g><path d="M253.02,305.634c18.278,0,33.094-5.388,33.094-12.035s-14.816-12.035-33.094-12.035c-18.277,0-33.094,5.388-33.094,12.035s14.817,12.035,33.094,12.035Z" fill="#37dea6" stroke-linecap="round" stroke-linejoin="round"/></g><g><g><path d="M253.02,305.634c18.278,0,33.094-5.388,33.094-12.035s-14.816-12.035-33.094-12.035c-18.277,0-33.094,5.388-33.094,12.035s14.817,12.035,33.094,12.035Z" fill="none" stroke="#000" stroke-width="2" stroke-linecap="round" stroke-linejoin="round"/></g></g></g><g id="e4DQJAzy6Cq237"><g><path d="M132.347,226.956c-7.243,7.238,10.861,18.099,10.861,28.96c0,8.099-10.861,10.862-10.861,18.104" fill="none" stroke-linecap="round" stroke-linejoin="round"/></g><g><g><path d="M132.347,226.956c-7.243,7.238,10.861,18.099,10.861,28.96c0,8.099-10.861,10.862-10.861,18.104" fill="none" stroke="#000" stroke-width="2" stroke-linecap="round" stroke-linejoin="round"/></g></g></g><g id="e4DQJAzy6Cq243" filter="url(#e4DQJAzy6Cq243-filter)"><g><path d="M107,212.471c-7.243,7.242,10.861,18.104,10.861,28.965c0,8.094-10.861,10.862-10.861,18.104" fill="none" stroke-linecap="round" stroke-linejoin="round"/></g><g><g><path d="M107,212.471c-7.243,7.242,10.861,18.104,10.861,28.965c0,8.094-10.861,10.862-10.861,18.104" fill="none" stroke="#000" stroke-width="2" stroke-linecap="round" stroke-linejoin="round"/></g></g></g><g><g><path d="M114.342,404.921c18.277,0,33.094-4.715,33.094-10.53s-14.817-10.53-33.094-10.53-33.094,4.715-33.094,10.53s14.817,10.53,33.094,10.53Z" opacity="0.15"/></g><g><g><path d="M114.342,404.921c18.277,0,33.094-4.715,33.094-10.53s-14.817-10.53-33.094-10.53-33.094,4.715-33.094,10.53s14.817,10.53,33.094,10.53Z" opacity="0.15" fill="none" stroke-width="2"/></g></g></g><g><g><path d="M130.064,389.876h-31.445c-1.472-.001-2.892-.541-3.993-1.518s-1.806-2.322-1.982-3.784l-8.387-69.916h60.174l-8.416,69.916c-.175,1.458-.876,2.801-1.972,3.777-1.096.977-2.511,1.519-3.979,1.525Z" fill="#fffbe5"/></g><g><g><path d="M130.064,389.876h-31.445c-1.472-.001-2.892-.541-3.993-1.518s-1.806-2.322-1.982-3.784l-8.387-69.916h60.174l-8.416,69.916c-.175,1.458-.876,2.801-1.972,3.777-1.096.977-2.511,1.519-3.979,1.525Z" fill="none" stroke-width="2"/></g></g></g><g><g><path d="M85.337,323.683h58.01l1.084-9.025h-60.174l1.08,9.025Z" fill="#ffda8f"/></g><g><g><path d="M85.337,323.683h58.01l1.084-9.025h-60.174l1.08,9.025Z" fill="none" stroke-width="2"/></g></g></g><g><g><path d="M130.064,389.876h-31.445c-1.472-.001-2.892-.541-3.993-1.518s-1.806-2.322-1.982-3.784l-8.387-69.916h60.174l-8.416,69.916c-.175,1.458-.876,2.801-1.972,3.777-1.096.977-2.511,1.519-3.979,1.525Z" fill="none" stroke-linejoin="round"/></g><g><g><path d="M130.064,389.876h-31.445c-1.472-.001-2.892-.541-3.993-1.518s-1.806-2.322-1.982-3.784l-8.387-69.916h60.174l-8.416,69.916c-.175,1.458-.876,2.801-1.972,3.777-1.096.977-2.511,1.519-3.979,1.525Z" fill="none" stroke="#000" stroke-width="2" stroke-linejoin="round"/></g></g></g><g><g><path d="M144.431,314.658h-60.174c-.791.004-1.576-.15-2.308-.45-.733-.301-1.399-.744-1.96-1.303-.562-.558-1.007-1.222-1.311-1.954-.304-.731-.46-1.515-.46-2.307v0c-.001-.793.155-1.578.459-2.309.303-.733.749-1.397,1.31-1.956.561-.56,1.227-1.003,1.96-1.304s1.518-.454,2.31-.451h60.174c.79,0,1.573.156,2.303.458.73.303,1.393.746,1.952,1.305.559.56,1.001,1.223,1.303,1.953.302.731.458,1.513.457,2.304v0c0,1.595-.634,3.125-1.762,4.253s-2.658,1.761-4.253,1.761Zm0,0v0Z" fill="#fffbe5" stroke-linejoin="round"/></g><g><g><path d="M144.431,314.658h-60.174c-.791.004-1.576-.15-2.308-.45-.733-.301-1.399-.744-1.96-1.303-.562-.558-1.007-1.222-1.311-1.954-.304-.731-.46-1.515-.46-2.307v0c-.001-.793.155-1.578.459-2.309.303-.733.749-1.397,1.31-1.956.561-.56,1.227-1.003,1.96-1.304s1.518-.454,2.31-.451h60.174c.79,0,1.573.156,2.303.458.73.303,1.393.746,1.952,1.305.559.56,1.001,1.223,1.303,1.953.302.731.458,1.513.457,2.304v0c0,1.595-.634,3.125-1.762,4.253s-2.658,1.761-4.253,1.761Zm0,0v0Z" fill="none" stroke="#000" stroke-width="2" stroke-linejoin="round"/></g></g></g><g><g><path d="M144.431,302.624h-60.174l2.51-10.435c.316-1.314,1.065-2.484,2.127-3.32c1.061-.836,2.374-1.29,3.725-1.289h43.45c1.351.001,2.663.456,3.724,1.291c1.061.836,1.81,2.004,2.128,3.318l2.51,10.435Z" fill="#fffbe5" stroke-linejoin="round"/></g><g><g><path d="M144.431,302.624h-60.174l2.51-10.435c.316-1.314,1.065-2.484,2.127-3.32c1.061-.836,2.374-1.29,3.725-1.289h43.45c1.351.001,2.663.456,3.724,1.291c1.061.836,1.81,2.004,2.128,3.318l2.51,10.435Z" fill="none" stroke="#000" stroke-width="2" stroke-linejoin="round"/></g></g></g><g><g><path d="M128.04,346.431c.001,2.71-.802,5.359-2.307,7.613s-3.645,4.01-6.149,5.047-5.259,1.308-7.917.779-5.099-1.835-7.015-3.752c-1.915-1.917-3.219-4.359-3.746-7.017-.528-2.658-.255-5.413.785-7.916c1.038-2.503,2.796-4.642,5.051-6.146c2.255-1.503,4.905-2.304,7.615-2.301c3.63.002,7.11,1.446,9.676,4.014c2.566,2.567,4.007,6.049,4.007,9.679Zm0,0q.001,2.71,0,0Z" fill="#2fbd8d" stroke-linecap="round" stroke-linejoin="round"/></g><g><g><path d="M128.04,346.431c.001,2.71-.802,5.359-2.307,7.613s-3.645,4.01-6.149,5.047-5.259,1.308-7.917.779-5.099-1.835-7.015-3.752c-1.915-1.917-3.219-4.359-3.746-7.017-.528-2.658-.255-5.413.785-7.916c1.038-2.503,2.796-4.642,5.051-6.146c2.255-1.503,4.905-2.304,7.615-2.301c3.63.002,7.11,1.446,9.676,4.014c2.566,2.567,4.007,6.049,4.007,9.679Zm0,0q.001,2.71,0,0Z" fill="none" stroke="#000" stroke-width="2" stroke-linecap="round" stroke-linejoin="round"/></g></g></g><g><g><path d="M355.064,160.832c-.991.255-2.011.384-3.034.386-.253,0-.495-.06-.738-.074-2.116,14.079-9.155,26.952-19.866,36.331c3.767,2.432,8.243,3.527,12.708,3.109.243-.025.478-.1.691-.221.213-.12.399-.284.546-.479.146-.196.251-.42.308-.658.056-.238.063-.485.019-.726-.381-2.257-1.03-6.198-1.485-9.54-.044-.31-.004-.627.114-.917.119-.291.312-.544.561-.736.248-.192.543-.314.854-.355.31-.041.627.001.916.122c3.01,1.271,6.287,1.781,9.54,1.485.242-.028.476-.105.688-.226s.398-.283.545-.477c.148-.194.256-.415.316-.652.06-.236.072-.483.035-.724-.723-4.876-2.594-18.272-2.718-25.648Z" fill="#614b44" stroke-linecap="round" stroke-linejoin="round"/></g><g><g><path d="M355.064,160.832c-.991.255-2.011.384-3.034.386-.253,0-.495-.06-.738-.074-2.116,14.079-9.155,26.952-19.866,36.331c3.767,2.432,8.243,3.527,12.708,3.109.243-.025.478-.1.691-.221.213-.12.399-.284.546-.479.146-.196.251-.42.308-.658.056-.238.063-.485.019-.726-.381-2.257-1.03-6.198-1.485-9.54-.044-.31-.004-.627.114-.917.119-.291.312-.544.561-.736.248-.192.543-.314.854-.355.31-.041.627.001.916.122c3.01,1.271,6.287,1.781,9.54,1.485.242-.028.476-.105.688-.226s.398-.283.545-.477c.148-.194.256-.415.316-.652.06-.236.072-.483.035-.724-.723-4.876-2.594-18.272-2.718-25.648Z" fill="none" stroke="#000" stroke-width="2" stroke-linecap="round" stroke-linejoin="round"/></g></g></g><g><g><path d="M232.421,161.144c-.253,0-.495.074-.738.074-1.002,0-1.999-.124-2.97-.371-.129,7.376-1.98,20.792-2.713,25.628-.038.24-.026.485.033.721.06.235.166.456.313.649.147.194.332.355.543.475.211.121.444.197.685.225c3.257.296,6.536-.215,9.55-1.486.288-.122.605-.165.916-.125.311.039.607.161.855.353.249.191.442.445.561.735.118.291.157.608.113.919-.46,3.331-1.109,7.262-1.485,9.519-.042.243-.034.492.023.732.058.24.164.465.312.663.148.197.334.363.548.486.214.122.451.2.696.228c4.444.41,8.898-.677,12.654-3.089-10.724-9.376-17.774-22.251-19.896-36.336Zm0,0q-.253,0,0,0Z" fill="#614b44" stroke-linecap="round" stroke-linejoin="round"/></g><g><g><path d="M232.421,161.144c-.253,0-.495.074-.738.074-1.002,0-1.999-.124-2.97-.371-.129,7.376-1.98,20.792-2.713,25.628-.038.24-.026.485.033.721.06.235.166.456.313.649.147.194.332.355.543.475.211.121.444.197.685.225c3.257.296,6.536-.215,9.55-1.486.288-.122.605-.165.916-.125.311.039.607.161.855.353.249.191.442.445.561.735.118.291.157.608.113.919-.46,3.331-1.109,7.262-1.485,9.519-.042.243-.034.492.023.732.058.24.164.465.312.663.148.197.334.363.548.486.214.122.451.2.696.228c4.444.41,8.898-.677,12.654-3.089-10.724-9.376-17.774-22.251-19.896-36.336Zm0,0q-.253,0,0,0Z" fill="none" stroke="#000" stroke-width="2" stroke-linecap="round" stroke-linejoin="round"/></g></g></g><g><g><path d="M231.683,137.129v-15.025c0-15.959,6.34-31.264,17.624-42.549c11.285-11.285,26.591-17.624,42.549-17.624c15.959,0,31.265,6.339,42.549,17.624c11.285,11.285,17.625,26.59,17.625,42.549v15.025c3.192,0,6.253,1.268,8.51,3.524c2.257,2.257,3.524,5.319,3.524,8.51c0,3.192-1.267,6.253-3.524,8.51s-5.318,3.525-8.51,3.525c-.253,0-.495-.059-.738-.074-2.126,14.243-9.295,27.249-20.204,36.65s-24.831,14.573-39.232,14.573c-14.4,0-28.322-5.172-39.231-14.573-10.908-9.401-18.078-22.407-20.204-36.65-.253,0-.495.074-.738.074-3.191,0-6.253-1.268-8.51-3.525s-3.524-5.318-3.524-8.51c0-3.191,1.267-6.253,3.524-8.51c2.257-2.256,5.319-3.524,8.51-3.524Zm0,0v0Z" fill="#ffda8f"/></g><g><g><path d="M231.683,137.129v-15.025c0-15.959,6.34-31.264,17.624-42.549c11.285-11.285,26.591-17.624,42.549-17.624c15.959,0,31.265,6.339,42.549,17.624c11.285,11.285,17.625,26.59,17.625,42.549v15.025c3.192,0,6.253,1.268,8.51,3.524c2.257,2.257,3.524,5.319,3.524,8.51c0,3.192-1.267,6.253-3.524,8.51s-5.318,3.525-8.51,3.525c-.253,0-.495-.059-.738-.074-2.126,14.243-9.295,27.249-20.204,36.65s-24.831,14.573-39.232,14.573c-14.4,0-28.322-5.172-39.231-14.573-10.908-9.401-18.078-22.407-20.204-36.65-.253,0-.495.074-.738.074-3.191,0-6.253-1.268-8.51-3.525s-3.524-5.318-3.524-8.51c0-3.191,1.267-6.253,3.524-8.51c2.257-2.256,5.319-3.524,8.51-3.524Zm0,0v0Z" fill="none" stroke-width="2"/></g></g></g><g><g><path d="M231.683,137.129v-15.025c0-15.959,6.34-31.264,17.624-42.549c11.285-11.285,26.591-17.624,42.549-17.624c15.959,0,31.265,6.339,42.549,17.624c11.285,11.285,17.625,26.59,17.625,42.549v15.025c3.192,0,6.253,1.268,8.51,3.524c2.257,2.257,3.524,5.319,3.524,8.51c0,3.192-1.267,6.253-3.524,8.51s-5.318,3.525-8.51,3.525c-.253,0-.495-.059-.738-.074-2.126,14.243-9.295,27.249-20.204,36.65s-24.831,14.573-39.232,14.573c-14.4,0-28.322-5.172-39.231-14.573-10.908-9.401-18.078-22.407-20.204-36.65-.253,0-.495.074-.738.074-3.191,0-6.253-1.268-8.51-3.525s-3.524-5.318-3.524-8.51c0-3.191,1.267-6.253,3.524-8.51c2.257-2.256,5.319-3.524,8.51-3.524Zm0,0v0Z" fill="none" stroke-linecap="round" stroke-linejoin="round"/></g><g><g><path d="M231.683,137.129v-15.025c0-15.959,6.34-31.264,17.624-42.549c11.285-11.285,26.591-17.624,42.549-17.624c15.959,0,31.265,6.339,42.549,17.624c11.285,11.285,17.625,26.59,17.625,42.549v15.025c3.192,0,6.253,1.268,8.51,3.524c2.257,2.257,3.524,5.319,3.524,8.51c0,3.192-1.267,6.253-3.524,8.51s-5.318,3.525-8.51,3.525c-.253,0-.495-.059-.738-.074-2.126,14.243-9.295,27.249-20.204,36.65s-24.831,14.573-39.232,14.573c-14.4,0-28.322-5.172-39.231-14.573-10.908-9.401-18.078-22.407-20.204-36.65-.253,0-.495.074-.738.074-3.191,0-6.253-1.268-8.51-3.525s-3.524-5.318-3.524-8.51c0-3.191,1.267-6.253,3.524-8.51c2.257-2.256,5.319-3.524,8.51-3.524Zm0,0v0Z" fill="none" stroke="#000" stroke-width="2" stroke-linecap="round" stroke-linejoin="round"/></g></g></g><g><g><path d="M326.455,170.243c4.154,0,7.52-3.367,7.52-7.52c0-4.154-3.366-7.52-7.52-7.52-4.153,0-7.519,3.366-7.519,7.52c0,4.153,3.366,7.52,7.519,7.52Z" fill="#ffbe3d"/></g><g><g><path d="M326.455,170.243c4.154,0,7.52-3.367,7.52-7.52c0-4.154-3.366-7.52-7.52-7.52-4.153,0-7.519,3.366-7.519,7.52c0,4.153,3.366,7.52,7.519,7.52Z" fill="none" stroke-width="2"/></g></g></g><g><g><path d="M257.257,170.243c4.153,0,7.52-3.367,7.52-7.52c0-4.154-3.367-7.52-7.52-7.52s-7.519,3.366-7.519,7.52c0,4.153,3.366,7.52,7.519,7.52Z" fill="#ffbe3d"/></g><g><g><path d="M257.257,170.243c4.153,0,7.52-3.367,7.52-7.52c0-4.154-3.367-7.52-7.52-7.52s-7.519,3.366-7.519,7.52c0,4.153,3.366,7.52,7.519,7.52Z" fill="none" stroke-width="2"/></g></g></g><g><g><path d="M309.955,178c-4.879,4.65-11.361,7.245-18.101,7.245-6.741,0-13.222-2.595-18.102-7.245" fill="none" stroke-linecap="round" stroke-linejoin="round"/></g><g><g><path d="M309.955,178c-4.879,4.65-11.361,7.245-18.101,7.245-6.741,0-13.222-2.595-18.102-7.245" fill="none" stroke="#000" stroke-width="2" stroke-linecap="round" stroke-linejoin="round"/></g></g></g><g><g><path d="M258.757,143.163c.745-1.786,2.002-3.313,3.613-4.387s3.504-1.646,5.439-1.646c1.937,0,3.829.572,5.44,1.646s2.868,2.601,3.612,4.387" fill="none" stroke-linecap="round" stroke-linejoin="round"/></g><g><g><path d="M258.757,143.163c.745-1.786,2.002-3.313,3.613-4.387s3.504-1.646,5.439-1.646c1.937,0,3.829.572,5.44,1.646s2.868,2.601,3.612,4.387" fill="none" stroke="#000" stroke-width="2" stroke-linecap="round" stroke-linejoin="round"/></g></g></g><g><g><path d="M306.931,143.163c.744-1.787,2-3.313,3.611-4.388c1.61-1.074,3.503-1.647,5.438-1.647c1.936,0,3.828.573,5.439,1.647c1.611,1.075,2.867,2.601,3.611,4.388" fill="none" stroke-linecap="round" stroke-linejoin="round"/></g><g><g><path d="M306.931,143.163c.744-1.787,2-3.313,3.611-4.388c1.61-1.074,3.503-1.647,5.438-1.647c1.936,0,3.828.573,5.439,1.647c1.611,1.075,2.867,2.601,3.611,4.388" fill="none" stroke="#000" stroke-width="2" stroke-linecap="round" stroke-linejoin="round"/></g></g></g><g><g><path d="M352.03,137.129c-1.597,0-3.128-.634-4.257-1.763s-1.763-2.661-1.763-4.257v-3.659c.013-1.396-.466-2.752-1.353-3.83s-2.126-1.81-3.499-2.066c-4.526-.692-8.852-2.345-12.686-4.849-3.834-2.503-7.088-5.799-9.541-9.665v0v9.024c0,.791-.155,1.574-.457,2.304s-.745,1.394-1.303,1.953c-.559.559-1.222,1.002-1.952,1.305s-1.513.458-2.303.458h-3.015c-17.139,0-26.653-16.787-30.693-26.45-.206-.475-.532-.887-.946-1.196-.413-.31-.901-.506-1.414-.57-.513-.063-1.034.008-1.511.208-.477.199-.893.52-1.208.929-8.058,11.586-19.303,20.586-32.372,25.911-1.179.412-2.202,1.181-2.927,2.198-.726,1.018-1.118,2.236-1.122,3.485v4.51c0,.791-.156,1.574-.459,2.305-.302.731-.747,1.394-1.306,1.953s-1.224,1.003-1.955,1.305-1.514.457-2.305.457c-1.596,0-3.128-.634-4.257-1.763-1.128-1.129-1.763-2.661-1.763-4.257v-12.015c0-8.692,1.712-17.299,5.039-25.33s8.202-15.327,14.349-21.474c6.147-6.146,13.444-11.021,21.475-14.347c8.03-3.326,16.638-5.038,25.33-5.037v0c17.558.007,34.394,6.986,46.806,19.404s19.384,29.256,19.383,46.814v12.064c-.012,1.585-.652,3.101-1.78,4.214-1.127,1.114-2.651,1.735-4.235,1.727Zm0,0q-1.597,0,0,0Z" fill="#614b44"/></g><g><g><path d="M352.03,137.129c-1.597,0-3.128-.634-4.257-1.763s-1.763-2.661-1.763-4.257v-3.659c.013-1.396-.466-2.752-1.353-3.83s-2.126-1.81-3.499-2.066c-4.526-.692-8.852-2.345-12.686-4.849-3.834-2.503-7.088-5.799-9.541-9.665v0v9.024c0,.791-.155,1.574-.457,2.304s-.745,1.394-1.303,1.953c-.559.559-1.222,1.002-1.952,1.305s-1.513.458-2.303.458h-3.015c-17.139,0-26.653-16.787-30.693-26.45-.206-.475-.532-.887-.946-1.196-.413-.31-.901-.506-1.414-.57-.513-.063-1.034.008-1.511.208-.477.199-.893.52-1.208.929-8.058,11.586-19.303,20.586-32.372,25.911-1.179.412-2.202,1.181-2.927,2.198-.726,1.018-1.118,2.236-1.122,3.485v4.51c0,.791-.156,1.574-.459,2.305-.302.731-.747,1.394-1.306,1.953s-1.224,1.003-1.955,1.305-1.514.457-2.305.457c-1.596,0-3.128-.634-4.257-1.763-1.128-1.129-1.763-2.661-1.763-4.257v-12.015c0-8.692,1.712-17.299,5.039-25.33s8.202-15.327,14.349-21.474c6.147-6.146,13.444-11.021,21.475-14.347c8.03-3.326,16.638-5.038,25.33-5.037v0c17.558.007,34.394,6.986,46.806,19.404s19.384,29.256,19.383,46.814v12.064c-.012,1.585-.652,3.101-1.78,4.214-1.127,1.114-2.651,1.735-4.235,1.727Zm0,0q-1.597,0,0,0Z" fill="none" stroke-width="2"/></g></g></g><g><g><path d="M291.856,52.906c-8.692-.001-17.3,1.711-25.33,5.037-8.031,3.326-15.328,8.201-21.475,14.347-6.147,6.147-11.022,13.443-14.349,21.474s-5.039,16.638-5.039,25.33v12.035c.001.468.056.935.164,1.391c1.172-16.715,8.639-32.363,20.896-43.788s28.391-17.775,45.147-17.771c16.756.005,32.886,6.364,45.137,17.795s19.711,27.083,20.874,43.798c.11-.454.165-.919.164-1.386v-12.044c.001-17.558-6.971-34.396-19.383-46.814s-29.248-19.397-46.806-19.404Zm0,0q-8.692-.001,0,0Z" fill="#dea47a"/></g><g><g><path d="M291.856,52.906c-8.692-.001-17.3,1.711-25.33,5.037-8.031,3.326-15.328,8.201-21.475,14.347-6.147,6.147-11.022,13.443-14.349,21.474s-5.039,16.638-5.039,25.33v12.035c.001.468.056.935.164,1.391c1.172-16.715,8.639-32.363,20.896-43.788s28.391-17.775,45.147-17.771c16.756.005,32.886,6.364,45.137,17.795s19.711,27.083,20.874,43.798c.11-.454.165-.919.164-1.386v-12.044c.001-17.558-6.971-34.396-19.383-46.814s-29.248-19.397-46.806-19.404Zm0,0q-8.692-.001,0,0Z" fill="none" stroke-width="2"/></g></g></g><g><g><path d="M352.03,137.129c-1.597,0-3.128-.634-4.257-1.763s-1.763-2.661-1.763-4.257v-3.659c.013-1.396-.466-2.752-1.353-3.83s-2.126-1.81-3.499-2.066c-4.526-.692-8.852-2.345-12.686-4.849-3.834-2.503-7.088-5.799-9.541-9.665v0v9.024c0,.791-.155,1.574-.457,2.304s-.745,1.394-1.303,1.953c-.559.559-1.222,1.002-1.952,1.305s-1.513.458-2.303.458h-3.015c-17.139,0-26.653-16.787-30.693-26.45-.206-.475-.532-.887-.946-1.196-.413-.31-.901-.506-1.414-.57-.513-.063-1.034.008-1.511.208-.477.199-.893.52-1.208.929-8.058,11.586-19.303,20.586-32.372,25.911-1.179.412-2.202,1.181-2.927,2.198-.726,1.018-1.118,2.236-1.122,3.485v4.51c0,.791-.156,1.574-.459,2.305-.302.731-.747,1.394-1.306,1.953s-1.224,1.003-1.955,1.305-1.514.457-2.305.457c-1.596,0-3.128-.634-4.257-1.763-1.128-1.129-1.763-2.661-1.763-4.257v-12.015c0-8.692,1.712-17.299,5.039-25.33s8.202-15.327,14.349-21.474c6.147-6.146,13.444-11.021,21.475-14.347c8.03-3.326,16.638-5.038,25.33-5.037v0c17.558.007,34.394,6.986,46.806,19.404s19.384,29.256,19.383,46.814v12.064c-.012,1.585-.652,3.101-1.78,4.214-1.127,1.114-2.651,1.735-4.235,1.727Zm0,0q-1.597,0,0,0Z" fill="none" stroke-linecap="round" stroke-linejoin="round"/></g><g><g><path d="M352.03,137.129c-1.597,0-3.128-.634-4.257-1.763s-1.763-2.661-1.763-4.257v-3.659c.013-1.396-.466-2.752-1.353-3.83s-2.126-1.81-3.499-2.066c-4.526-.692-8.852-2.345-12.686-4.849-3.834-2.503-7.088-5.799-9.541-9.665v0v9.024c0,.791-.155,1.574-.457,2.304s-.745,1.394-1.303,1.953c-.559.559-1.222,1.002-1.952,1.305s-1.513.458-2.303.458h-3.015c-17.139,0-26.653-16.787-30.693-26.45-.206-.475-.532-.887-.946-1.196-.413-.31-.901-.506-1.414-.57-.513-.063-1.034.008-1.511.208-.477.199-.893.52-1.208.929-8.058,11.586-19.303,20.586-32.372,25.911-1.179.412-2.202,1.181-2.927,2.198-.726,1.018-1.118,2.236-1.122,3.485v4.51c0,.791-.156,1.574-.459,2.305-.302.731-.747,1.394-1.306,1.953s-1.224,1.003-1.955,1.305-1.514.457-2.305.457c-1.596,0-3.128-.634-4.257-1.763-1.128-1.129-1.763-2.661-1.763-4.257v-12.015c0-8.692,1.712-17.299,5.039-25.33s8.202-15.327,14.349-21.474c6.147-6.146,13.444-11.021,21.475-14.347c8.03-3.326,16.638-5.038,25.33-5.037v0c17.558.007,34.394,6.986,46.806,19.404s19.384,29.256,19.383,46.814v12.064c-.012,1.585-.652,3.101-1.78,4.214-1.127,1.114-2.651,1.735-4.235,1.727Zm0,0q-1.597,0,0,0Z" fill="none" stroke="#000" stroke-width="2" stroke-linecap="round" stroke-linejoin="round"/></g></g></g></g>
<script><![CDATA[
!function(t,n){"object"==typeof exports&&"undefined"!=typeof module?module.exports=n():"function"==typeof __SVGATOR_DEFINE__&&__SVGATOR_DEFINE__.amd?__SVGATOR_DEFINE__(n):((t="undefined"!=typeof globalThis?globalThis:t||self).__SVGATOR_PLAYER__=t.__SVGATOR_PLAYER__||{},t.__SVGATOR_PLAYER__["5c7f360c"]=n())}(this,(function(){"use strict";function t(t,n){var e=Object.keys(t);if(Object.getOwnPropertySymbols){var r=Object.getOwnPropertySymbols(t);n&&(r=r.filter((function(n){return Object.getOwnPropertyDescriptor(t,n).enumerable}))),e.push.apply(e,r)}return e}function n(n){for(var e=1;e<arguments.length;e++){var r=null!=arguments[e]?arguments[e]:{};e%2?t(Object(r),!0).forEach((function(t){o(n,t,r[t])})):Object.getOwnPropertyDescriptors?Object.defineProperties(n,Object.getOwnPropertyDescriptors(r)):t(Object(r)).forEach((function(t){Object.defineProperty(n,t,Object.getOwnPropertyDescriptor(r,t))}))}return n}function e(t){return(e="function"==typeof Symbol&&"symbol"==typeof Symbol.iterator?function(t){return typeof t}:function(t){return t&&"function"==typeof Symbol&&t.constructor===Symbol&&t!==Symbol.prototype?"symbol":typeof t})(t)}function r(t,n){if(!(t instanceof n))throw new TypeError("Cannot call a class as a function")}function i(t,n){for(var e=0;e<n.length;e++){var r=n[e];r.enumerable=r.enumerable||!1,r.configurable=!0,"value"in r&&(r.writable=!0),Object.defineProperty(t,r.key,r)}}function u(t,n,e){return n&&i(t.prototype,n),e&&i(t,e),t}function o(t,n,e){return n in t?Object.defineProperty(t,n,{value:e,enumerable:!0,configurable:!0,writable:!0}):t[n]=e,t}function a(t){return(a=Object.setPrototypeOf?Object.getPrototypeOf:function(t){return t.__proto__||Object.getPrototypeOf(t)})(t)}function l(t,n){return(l=Object.setPrototypeOf||function(t,n){return t.__proto__=n,t})(t,n)}function s(){if("undefined"==typeof Reflect||!Reflect.construct)return!1;if(Reflect.construct.sham)return!1;if("function"==typeof Proxy)return!0;try{return Boolean.prototype.valueOf.call(Reflect.construct(Boolean,[],(function(){}))),!0}catch(t){return!1}}function f(t,n,e){return(f=s()?Reflect.construct:function(t,n,e){var r=[null];r.push.apply(r,n);var i=new(Function.bind.apply(t,r));return e&&l(i,e.prototype),i}).apply(null,arguments)}function c(t,n){if(n&&("object"==typeof n||"function"==typeof n))return n;if(void 0!==n)throw new TypeError("Derived constructors may only return object or undefined");return function(t){if(void 0===t)throw new ReferenceError("this hasn't been initialised - super() hasn't been called");return t}(t)}function h(t,n,e){return(h="undefined"!=typeof Reflect&&Reflect.get?Reflect.get:function(t,n,e){var r=function(t,n){for(;!Object.prototype.hasOwnProperty.call(t,n)&&null!==(t=a(t)););return t}(t,n);if(r){var i=Object.getOwnPropertyDescriptor(r,n);return i.get?i.get.call(e):i.value}})(t,n,e||t)}function v(t){return function(t){if(Array.isArray(t))return y(t)}(t)||function(t){if("undefined"!=typeof Symbol&&null!=t[Symbol.iterator]||null!=t["@@iterator"])return Array.from(t)}(t)||function(t,n){if(!t)return;if("string"==typeof t)return y(t,n);var e=Object.prototype.toString.call(t).slice(8,-1);"Object"===e&&t.constructor&&(e=t.constructor.name);if("Map"===e||"Set"===e)return Array.from(t);if("Arguments"===e||/^(?:Ui|I)nt(?:8|16|32)(?:Clamped)?Array$/.test(e))return y(t,n)}(t)||function(){throw new TypeError("Invalid attempt to spread non-iterable instance.\nIn order to be iterable, non-array objects must have a [Symbol.iterator]() method.")}()}function y(t,n){(null==n||n>t.length)&&(n=t.length);for(var e=0,r=new Array(n);e<n;e++)r[e]=t[e];return r}Number.isInteger||(Number.isInteger=function(t){return"number"==typeof t&&isFinite(t)&&Math.floor(t)===t}),Number.EPSILON||(Number.EPSILON=2220446049250313e-31);var g=d(Math.pow(10,-6));function d(t){var n=arguments.length>1&&void 0!==arguments[1]?arguments[1]:6;if(Number.isInteger(t))return t;var e=Math.pow(10,n);return Math.round((+t+Number.EPSILON)*e)/e}function p(t,n){var e=arguments.length>2&&void 0!==arguments[2]?arguments[2]:g;return Math.abs(t-n)<e}var m=Math.PI/180;function b(t){return t}function w(t,n,e){var r=1-e;return 3*e*r*(t*r+n*e)+e*e*e}function A(){var t=arguments.length>0&&void 0!==arguments[0]?arguments[0]:0,n=arguments.length>1&&void 0!==arguments[1]?arguments[1]:0,e=arguments.length>2&&void 0!==arguments[2]?arguments[2]:1,r=arguments.length>3&&void 0!==arguments[3]?arguments[3]:1;return t<0||t>1||e<0||e>1?null:p(t,n)&&p(e,r)?b:function(i){if(i<=0)return t>0?i*n/t:0===n&&e>0?i*r/e:0;if(i>=1)return e<1?1+(i-1)*(r-1)/(e-1):1===e&&t<1?1+(i-1)*(n-1)/(t-1):1;for(var u,o=0,a=1;o<a;){var l=w(t,e,u=(o+a)/2);if(p(i,l))break;l<i?o=u:a=u}return w(n,r,u)}}function _(){return 1}function x(t){return 1===t?1:0}function k(){var t=arguments.length>0&&void 0!==arguments[0]?arguments[0]:1,n=arguments.length>1&&void 0!==arguments[1]?arguments[1]:0;if(1===t){if(0===n)return x;if(1===n)return _}var e=1/t;return function(t){return t>=1?1:(t+=n*e)-t%e}}var S=Math.sin,O=Math.cos,j=Math.acos,E=Math.asin,M=Math.tan,P=Math.atan2,I=Math.PI/180,R=180/Math.PI,F=Math.sqrt,N=function(){function t(){var n=arguments.length>0&&void 0!==arguments[0]?arguments[0]:1,e=arguments.length>1&&void 0!==arguments[1]?arguments[1]:0,i=arguments.length>2&&void 0!==arguments[2]?arguments[2]:0,u=arguments.length>3&&void 0!==arguments[3]?arguments[3]:1,o=arguments.length>4&&void 0!==arguments[4]?arguments[4]:0,a=arguments.length>5&&void 0!==arguments[5]?arguments[5]:0;r(this,t),this.m=[n,e,i,u,o,a],this.i=null,this.w=null,this.s=null}return u(t,[{key:"determinant",get:function(){var t=this.m;return t[0]*t[3]-t[1]*t[2]}},{key:"isIdentity",get:function(){if(null===this.i){var t=this.m;this.i=1===t[0]&&0===t[1]&&0===t[2]&&1===t[3]&&0===t[4]&&0===t[5]}return this.i}},{key:"point",value:function(t,n){var e=this.m;return{x:e[0]*t+e[2]*n+e[4],y:e[1]*t+e[3]*n+e[5]}}},{key:"translateSelf",value:function(){var t=arguments.length>0&&void 0!==arguments[0]?arguments[0]:0,n=arguments.length>1&&void 0!==arguments[1]?arguments[1]:0;if(!t&&!n)return this;var e=this.m;return e[4]+=e[0]*t+e[2]*n,e[5]+=e[1]*t+e[3]*n,this.w=this.s=this.i=null,this}},{key:"rotateSelf",value:function(){var t=arguments.length>0&&void 0!==arguments[0]?arguments[0]:0;if(t%=360){var n=S(t*=I),e=O(t),r=this.m,i=r[0],u=r[1];r[0]=i*e+r[2]*n,r[1]=u*e+r[3]*n,r[2]=r[2]*e-i*n,r[3]=r[3]*e-u*n,this.w=this.s=this.i=null}return this}},{key:"scaleSelf",value:function(){var t=arguments.length>0&&void 0!==arguments[0]?arguments[0]:1,n=arguments.length>1&&void 0!==arguments[1]?arguments[1]:1;if(1!==t||1!==n){var e=this.m;e[0]*=t,e[1]*=t,e[2]*=n,e[3]*=n,this.w=this.s=this.i=null}return this}},{key:"skewSelf",value:function(t,n){if(n%=360,(t%=360)||n){var e=this.m,r=e[0],i=e[1],u=e[2],o=e[3];t&&(t=M(t*I),e[2]+=r*t,e[3]+=i*t),n&&(n=M(n*I),e[0]+=u*n,e[1]+=o*n),this.w=this.s=this.i=null}return this}},{key:"resetSelf",value:function(){var t=arguments.length>0&&void 0!==arguments[0]?arguments[0]:1,n=arguments.length>1&&void 0!==arguments[1]?arguments[1]:0,e=arguments.length>2&&void 0!==arguments[2]?arguments[2]:0,r=arguments.length>3&&void 0!==arguments[3]?arguments[3]:1,i=arguments.length>4&&void 0!==arguments[4]?arguments[4]:0,u=arguments.length>5&&void 0!==arguments[5]?arguments[5]:0,o=this.m;return o[0]=t,o[1]=n,o[2]=e,o[3]=r,o[4]=i,o[5]=u,this.w=this.s=this.i=null,this}},{key:"recomposeSelf",value:function(){var t=arguments.length>0&&void 0!==arguments[0]?arguments[0]:null,n=arguments.length>1&&void 0!==arguments[1]?arguments[1]:null,e=arguments.length>2&&void 0!==arguments[2]?arguments[2]:null,r=arguments.length>3&&void 0!==arguments[3]?arguments[3]:null,i=arguments.length>4&&void 0!==arguments[4]?arguments[4]:null;return this.isIdentity||this.resetSelf(),t&&(t.x||t.y)&&this.translateSelf(t.x,t.y),n&&this.rotateSelf(n),e&&(e.x&&this.skewSelf(e.x,0),e.y&&this.skewSelf(0,e.y)),!r||1===r.x&&1===r.y||this.scaleSelf(r.x,r.y),i&&(i.x||i.y)&&this.translateSelf(i.x,i.y),this}},{key:"decompose",value:function(){var t=arguments.length>0&&void 0!==arguments[0]?arguments[0]:0,n=arguments.length>1&&void 0!==arguments[1]?arguments[1]:0,e=this.m,r=e[0]*e[0]+e[1]*e[1],i=[[e[0],e[1]],[e[2],e[3]]],u=F(r);if(0===u)return{origin:{x:d(e[4]),y:d(e[5])},translate:{x:d(t),y:d(n)},scale:{x:0,y:0},skew:{x:0,y:0},rotate:0};i[0][0]/=u,i[0][1]/=u;var o=e[0]*e[3]-e[1]*e[2]<0;o&&(u=-u);var a=i[0][0]*i[1][0]+i[0][1]*i[1][1];i[1][0]-=i[0][0]*a,i[1][1]-=i[0][1]*a;var l=F(i[1][0]*i[1][0]+i[1][1]*i[1][1]);if(0===l)return{origin:{x:d(e[4]),y:d(e[5])},translate:{x:d(t),y:d(n)},scale:{x:d(u),y:0},skew:{x:0,y:0},rotate:0};i[1][0]/=l,i[1][1]/=l,a/=l;var s=0;return i[1][1]<0?(s=j(i[1][1])*R,i[0][1]<0&&(s=360-s)):s=E(i[0][1])*R,o&&(s=-s),a=P(a,F(i[0][0]*i[0][0]+i[0][1]*i[0][1]))*R,o&&(a=-a),{origin:{x:d(e[4]),y:d(e[5])},translate:{x:d(t),y:d(n)},scale:{x:d(u),y:d(l)},skew:{x:d(a),y:0},rotate:d(s)}}},{key:"clone",value:function(){var t=this.m;return new this.constructor(t[0],t[1],t[2],t[3],t[4],t[5])}},{key:"toString",value:function(){var t=arguments.length>0&&void 0!==arguments[0]?arguments[0]:" ";if(null===this.s){var n=this.m.map((function(t){return d(t)}));1===n[0]&&0===n[1]&&0===n[2]&&1===n[3]?this.s="translate("+n[4]+t+n[5]+")":this.s="matrix("+n.join(t)+")"}return this.s}}],[{key:"create",value:function(t){return t?Array.isArray(t)?f(this,v(t)):t instanceof this?t.clone():(new this).recomposeSelf(t.origin,t.rotate,t.skew,t.scale,t.translate):new this}}]),t}();function T(t,n,e){return t>=.5?e:n}function B(t,n,e){return 0===t||n===e?n:t*(e-n)+n}function q(t,n,e){var r=B(t,n,e);return r<=0?0:r}function D(t,n,e){var r=B(t,n,e);return r<=0?0:r>=1?1:r}function L(t,n,e){return 0===t?n:1===t?e:{x:B(t,n.x,e.x),y:B(t,n.y,e.y)}}function C(t,n,e){var r=function(t,n,e){return Math.round(B(t,n,e))}(t,n,e);return r<=0?0:r>=255?255:r}function V(t,n,e){return 0===t?n:1===t?e:{r:C(t,n.r,e.r),g:C(t,n.g,e.g),b:C(t,n.b,e.b),a:B(t,null==n.a?1:n.a,null==e.a?1:e.a)}}function G(t,n){for(var e=[],r=0;r<t;r++)e.push(n);return e}function z(t,n){if(--n<=0)return t;var e=(t=Object.assign([],t)).length;do{for(var r=0;r<e;r++)t.push(t[r])}while(--n>0);return t}var Y,$=function(){function t(n){r(this,t),this.list=n,this.length=n.length}return u(t,[{key:"setAttribute",value:function(t,n){for(var e=this.list,r=0;r<this.length;r++)e[r].setAttribute(t,n)}},{key:"removeAttribute",value:function(t){for(var n=this.list,e=0;e<this.length;e++)n[e].removeAttribute(t)}},{key:"style",value:function(t,n){for(var e=this.list,r=0;r<this.length;r++)e[r].style[t]=n}}]),t}(),U=/-./g,Q=function(t,n){return n.toUpperCase()};function H(t){return"function"==typeof t?t:T}function J(t){return t?"function"==typeof t?t:Array.isArray(t)?function(t){var n=arguments.length>1&&void 0!==arguments[1]?arguments[1]:b;if(!Array.isArray(t))return n;switch(t.length){case 1:return k(t[0])||n;case 2:return k(t[0],t[1])||n;case 4:return A(t[0],t[1],t[2],t[3])||n}return n}(t,null):function(t,n){var e=arguments.length>2&&void 0!==arguments[2]?arguments[2]:b;switch(t){case"linear":return b;case"steps":return k(n.steps||1,n.jump||0)||e;case"bezier":case"cubic-bezier":return A(n.x1||0,n.y1||0,n.x2||0,n.y2||0)||e}return e}(t.type,t.value,null):null}function Z(t,n,e){var r=arguments.length>3&&void 0!==arguments[3]&&arguments[3],i=n.length-1;if(t<=n[0].t)return r?[0,0,n[0].v]:n[0].v;if(t>=n[i].t)return r?[i,1,n[i].v]:n[i].v;var u,o=n[0],a=null;for(u=1;u<=i;u++){if(!(t>n[u].t)){a=n[u];break}o=n[u]}return null==a?r?[i,1,n[i].v]:n[i].v:o.t===a.t?r?[u,1,a.v]:a.v:(t=(t-o.t)/(a.t-o.t),o.e&&(t=o.e(t)),r?[u,t,e(t,o.v,a.v)]:e(t,o.v,a.v))}function K(t,n){var e=arguments.length>2&&void 0!==arguments[2]?arguments[2]:null;return t&&t.length?"function"!=typeof n?null:("function"!=typeof e&&(e=null),function(r){var i=Z(r,t,n);return null!=i&&e&&(i=e(i)),i}):null}function W(t,n){return t.t-n.t}function X(t,n,r,i,u){var o,a="@"===r[0],l="#"===r[0],s=Y[r],f=T;switch(a?(o=r.substr(1),r=o.replace(U,Q)):l&&(r=r.substr(1)),e(s)){case"function":if(f=s(i,u,Z,J,r,a,n,t),l)return f;break;case"string":f=K(i,H(s));break;case"object":if((f=K(i,H(s.i),s.f))&&"function"==typeof s.u)return s.u(n,f,r,a,t)}return f?function(t,n,e){if(arguments.length>3&&void 0!==arguments[3]&&arguments[3])return t instanceof $?function(r){return t.style(n,e(r))}:function(r){return t.style[n]=e(r)};if(Array.isArray(n)){var r=n.length;return function(i){var u=e(i);if(null==u)for(var o=0;o<r;o++)t[o].removeAttribute(n);else for(var a=0;a<r;a++)t[a].setAttribute(n,u)}}return function(r){var i=e(r);null==i?t.removeAttribute(n):t.setAttribute(n,i)}}(n,r,f,a):null}function tt(t,n,r,i){if(!i||"object"!==e(i))return null;var u=null,o=null;return Array.isArray(i)?o=function(t){if(!t||!t.length)return null;for(var n=0;n<t.length;n++)t[n].e&&(t[n].e=J(t[n].e));return t.sort(W)}(i):(o=i.keys,u=i.data||null),o?X(t,n,r,o,u):null}function nt(t,n,e){if(!e)return null;var r=[];for(var i in e)if(e.hasOwnProperty(i)){var u=tt(t,n,i,e[i]);u&&r.push(u)}return r.length?r:null}function et(t,n){if(!n.settings.duration||n.settings.duration<0)return null;var e,r,i,u,o,a=function(t,n){if(!n)return null;var e=[];if(Array.isArray(n))for(var r=n.length,i=0;i<r;i++){var u=n[i];if(2===u.length){var o=null;if("string"==typeof u[0])o=t.getElementById(u[0]);else if(Array.isArray(u[0])){o=[];for(var a=0;a<u[0].length;a++)if("string"==typeof u[0][a]){var l=t.getElementById(u[0][a]);l&&o.push(l)}o=o.length?1===o.length?o[0]:new $(o):null}if(o){var s=nt(t,o,u[1]);s&&(e=e.concat(s))}}}else for(var f in n)if(n.hasOwnProperty(f)){var c=t.getElementById(f);if(c){var h=nt(t,c,n[f]);h&&(e=e.concat(h))}}return e.length?e:null}(t,n.elements);return a?(e=a,r=n.settings,i=r.duration,u=e.length,o=null,function(t,n){var a=r.iterations||1/0,l=(r.alternate&&a%2==0)^r.direction>0?i:0,s=t%i,f=1+(t-s)/i;n*=r.direction,r.alternate&&f%2==0&&(n=-n);var c=!1;if(f>a)s=l,c=!0,-1===r.fill&&(s=r.direction>0?0:i);else if(n<0&&(s=i-s),s===o)return!1;o=s;for(var h=0;h<u;h++)e[h](s);return c}):null}function rt(t,n){if(Y=n,!t||!t.root||!Array.isArray(t.animations))return null;var e=function(t){for(var n=document.getElementsByTagName("svg"),e=0;e<n.length;e++)if(n[e].id===t.root&&!n[e].svgatorAnimation)return n[e].svgatorAnimation=!0,n[e];return null}(t);if(!e)return null;var r=t.animations.map((function(t){return et(e,t)})).filter((function(t){return!!t}));return r.length?{svg:e,animations:r,animationSettings:t.animationSettings,options:t.options||void 0}:null}function it(t){var n=arguments.length>1&&void 0!==arguments[1]?arguments[1]:null,e=arguments.length>2&&void 0!==arguments[2]?arguments[2]:Number,r=arguments.length>3&&void 0!==arguments[3]?arguments[3]:"undefined"!=typeof BigInt&&BigInt,i="0x"+(t.replace(/[^0-9a-fA-F]+/g,"")||27);return n&&r&&e.isSafeInteger&&!e.isSafeInteger(+i)?e(r(i))%n+n:+i}function ut(t,n,e){return!t||!e||n>t.length?t:t.substring(0,n)+ut(t.substring(n+1),e,e)}function ot(t){var n=arguments.length>1&&void 0!==arguments[1]?arguments[1]:27;return!t||t%n?t%n:[0,1].includes(n)?n:ot(t/n,n)}function at(t,n,e){if(t&&t.length){var r=it(e),i=ot(r)+5,u=ut(t,ot(r,5),i);return u=u.replace(/\x7c$/g,"==").replace(/\x2f$/g,"="),u=function(t,n,e){var r=+("0x"+t.substring(0,4));t=t.substring(4);for(var i=it(n,r)%r+e%27,u=[],o=0;o<t.length;o+=2)if("|"!==t[o]){var a=+("0x"+t[o]+t[o+1])-i;u.push(a)}else{var l=+("0x"+t.substring(o+1,o+1+4))-i;o+=3,u.push(l)}return String.fromCharCode.apply(String,u)}(u=(u=atob(u)).replace(/[\x41-\x5A]/g,""),n,r),u=JSON.parse(u)}}var lt=[{key:"alternate",def:!1},{key:"fill",def:1},{key:"iterations",def:0},{key:"direction",def:1},{key:"speed",def:1},{key:"fps",def:100}],st=function(){function t(n,e){var i=this,u=arguments.length>2&&void 0!==arguments[2]?arguments[2]:null;r(this,t),this._id=0,this._running=!1,this._rollingBack=!1,this._animations=n,this._settings=e,(!u||u<"2022-05-02")&&delete this._settings.speed,lt.forEach((function(t){i._settings[t.key]=i._settings[t.key]||t.def})),this.duration=e.duration,this.offset=e.offset||0,this.rollbackStartOffset=0}return u(t,[{key:"alternate",get:function(){return this._settings.alternate}},{key:"fill",get:function(){return this._settings.fill}},{key:"iterations",get:function(){return this._settings.iterations}},{key:"direction",get:function(){return this._settings.direction}},{key:"speed",get:function(){return this._settings.speed}},{key:"fps",get:function(){return this._settings.fps}},{key:"maxFiniteDuration",get:function(){return this.iterations>0?this.iterations*this.duration:this.duration}},{key:"_apply",value:function(t){for(var n=arguments.length>1&&void 0!==arguments[1]?arguments[1]:{},e=this._animations,r=e.length,i=0,u=0;u<r;u++)n[u]?i++:(n[u]=e[u](t,1),n[u]&&i++);return i}},{key:"_rollback",value:function(t){var n=this,e=1/0,r=null;this.rollbackStartOffset=t,this._rollingBack=!0,this._running=!0;this._id=window.requestAnimationFrame((function i(u){if(n._rollingBack){null==r&&(r=u);var o=Math.round(t-(u-r)*n.speed);if(o>n.duration&&e!==1/0){var a=!!n.alternate&&o/n.duration%2>1,l=o%n.duration;o=(l+=a?n.duration:0)||n.duration}var s=(n.fps?1e3/n.fps:0)*n.speed,f=Math.max(0,o);f<=e-s&&(n.offset=f,e=f,n._apply(f));var c=n.iterations>0&&-1===n.fill&&o>=n.maxFiniteDuration;(o<=0||n.offset<o||c)&&n.stop(),n._id=window.requestAnimationFrame(i)}}))}},{key:"_start",value:function(){var t=this,n=arguments.length>0&&void 0!==arguments[0]?arguments[0]:0,e=-1/0,r=null,i={};this._running=!0;var u=function u(o){null==r&&(r=o);var a=Math.round((o-r)*t.speed+n),l=(t.fps?1e3/t.fps:0)*t.speed;if(a>=e+l&&!t._rollingBack&&(t.offset=a,e=a,t._apply(a,i)===t._animations.length))return void t.pause(!0);t._id=window.requestAnimationFrame(u)};this._id=window.requestAnimationFrame(u)}},{key:"_pause",value:function(){this._id&&window.cancelAnimationFrame(this._id),this._running=!1}},{key:"play",value:function(){if(!this._running)return this._rollingBack?this._rollback(this.offset):this._start(this.offset)}},{key:"stop",value:function(){this._pause(),this.offset=0,this.rollbackStartOffset=0,this._rollingBack=!1,this._apply(0)}},{key:"reachedToEnd",value:function(){return this.iterations>0&&this.offset>=this.iterations*this.duration}},{key:"restart",value:function(){var t=arguments.length>0&&void 0!==arguments[0]&&arguments[0];this.stop(t),this.play(t)}},{key:"pause",value:function(){this._pause()}},{key:"reverse",value:function(){this.direction=-this.direction}}],[{key:"build",value:function(t,n){delete t.animationSettings,t.options=at(t.options,t.root,"5c7f360c"),t.animations.map((function(n){n.settings=at(n.s,t.root,"5c7f360c"),delete n.s,t.animationSettings||(t.animationSettings=n.settings)}));var e=t.version;if(!(t=rt(t,n)))return null;var r=t.options||{},i=new this(t.animations,t.animationSettings,e);return{el:t.svg,options:r,player:i}}},{key:"push",value:function(t){return this.build(t)}},{key:"init",value:function(){var t=this,n=window.__SVGATOR_PLAYER__&&window.__SVGATOR_PLAYER__["5c7f360c"];Array.isArray(n)&&n.splice(0).forEach((function(n){return t.build(n)}))}}]),t}();function ft(t){return d(t)+""}function ct(t){var n=arguments.length>1&&void 0!==arguments[1]?arguments[1]:" ";return t&&t.length?t.map(ft).join(n):""}function ht(t){if(!t)return"transparent";if(null==t.a||t.a>=1){var n=function(t){return 1===(t=parseInt(t).toString(16)).length?"0"+t:t},e=function(t){return t.charAt(0)===t.charAt(1)},r=n(t.r),i=n(t.g),u=n(t.b);return e(r)&&e(i)&&e(u)&&(r=r.charAt(0),i=i.charAt(0),u=u.charAt(0)),"#"+r+i+u}return"rgba("+t.r+","+t.g+","+t.b+","+t.a+")"}function vt(t){return t?"url(#"+t+")":"none"}!function(){for(var t=0,n=["ms","moz","webkit","o"],e=0;e<n.length&&!window.requestAnimationFrame;++e)window.requestAnimationFrame=window[n[e]+"RequestAnimationFrame"],window.cancelAnimationFrame=window[n[e]+"CancelAnimationFrame"]||window[n[e]+"CancelRequestAnimationFrame"];window.requestAnimationFrame||(window.requestAnimationFrame=function(n){var e=Date.now(),r=Math.max(0,16-(e-t)),i=window.setTimeout((function(){n(e+r)}),r);return t=e+r,i},window.cancelAnimationFrame=window.clearTimeout)}();var yt={f:null,i:function(t,n,e){return 0===t?n:1===t?e:{x:q(t,n.x,e.x),y:q(t,n.y,e.y)}},u:function(t,n){return function(e){var r=n(e);t.setAttribute("rx",ft(r.x)),t.setAttribute("ry",ft(r.y))}}},gt={f:null,i:function(t,n,e){return 0===t?n:1===t?e:{width:q(t,n.width,e.width),height:q(t,n.height,e.height)}},u:function(t,n){return function(e){var r=n(e);t.setAttribute("width",ft(r.width)),t.setAttribute("height",ft(r.height))}}};Object.freeze({M:2,L:2,Z:0,H:1,V:1,C:6,Q:4,T:2,S:4,A:7});var dt={},pt=null;function mt(t){var n=function(){if(pt)return pt;if("object"!==("undefined"==typeof document?"undefined":e(document))||!document.createElementNS)return{};var t=document.createElementNS("http://www.w3.org/2000/svg","svg");return t&&t.style?(t.style.position="absolute",t.style.opacity="0.01",t.style.zIndex="-9999",t.style.left="-9999px",t.style.width="1px",t.style.height="1px",pt={svg:t}):{}}().svg;if(!n)return function(t){return null};var r=document.createElementNS(n.namespaceURI,"path");r.setAttributeNS(null,"d",t),r.setAttributeNS(null,"fill","none"),r.setAttributeNS(null,"stroke","none"),n.appendChild(r);var i=r.getTotalLength();return function(t){var n=r.getPointAtLength(i*t);return{x:n.x,y:n.y}}}function bt(t){return dt[t]?dt[t]:dt[t]=mt(t)}function wt(t,n,e,r){if(!t||!r)return!1;var i=["M",t.x,t.y];if(n&&e&&(i.push("C"),i.push(n.x),i.push(n.y),i.push(e.x),i.push(e.y)),n?!e:e){var u=n||e;i.push("Q"),i.push(u.x),i.push(u.y)}return n||e||i.push("L"),i.push(r.x),i.push(r.y),i.join(" ")}function At(t,n,e,r){var i=arguments.length>4&&void 0!==arguments[4]?arguments[4]:1,u=wt(t,n,e,r),o=bt(u);try{return o(i)}catch(t){return null}}function _t(t,n,e){return t+(n-t)*e}function xt(t,n,e){var r=arguments.length>3&&void 0!==arguments[3]&&arguments[3],i={x:_t(t.x,n.x,e),y:_t(t.y,n.y,e)};return r&&(i.a=kt(t,n)),i}function kt(t,n){return Math.atan2(n.y-t.y,n.x-t.x)}function St(t,n,e,r){var i=1-r;return i*i*t+2*i*r*n+r*r*e}function Ot(t,n,e,r){return 2*(1-r)*(n-t)+2*r*(e-n)}function jt(t,n,e,r){var i=arguments.length>4&&void 0!==arguments[4]&&arguments[4],u=At(t,n,null,e,r);return u||(u={x:St(t.x,n.x,e.x,r),y:St(t.y,n.y,e.y,r)}),i&&(u.a=Et(t,n,e,r)),u}function Et(t,n,e,r){return Math.atan2(Ot(t.y,n.y,e.y,r),Ot(t.x,n.x,e.x,r))}function Mt(t,n,e,r,i){var u=i*i;return i*u*(r-t+3*(n-e))+3*u*(t+e-2*n)+3*i*(n-t)+t}function Pt(t,n,e,r,i){var u=1-i;return 3*(u*u*(n-t)+2*u*i*(e-n)+i*i*(r-e))}function It(t,n,e,r,i){var u=arguments.length>5&&void 0!==arguments[5]&&arguments[5],o=At(t,n,e,r,i);return o||(o={x:Mt(t.x,n.x,e.x,r.x,i),y:Mt(t.y,n.y,e.y,r.y,i)}),u&&(o.a=Rt(t,n,e,r,i)),o}function Rt(t,n,e,r,i){return Math.atan2(Pt(t.y,n.y,e.y,r.y,i),Pt(t.x,n.x,e.x,r.x,i))}function Ft(t,n,e){var r=arguments.length>3&&void 0!==arguments[3]&&arguments[3];if(Tt(n)){if(Bt(e))return jt(n,e.start,e,t,r)}else if(Tt(e)){if(qt(n))return jt(n,n.end,e,t,r)}else{if(qt(n))return Bt(e)?It(n,n.end,e.start,e,t,r):jt(n,n.end,e,t,r);if(Bt(e))return jt(n,e.start,e,t,r)}return xt(n,e,t,r)}function Nt(t,n,e){var r=Ft(t,n,e,!0);return r.a=function(t){return arguments.length>1&&void 0!==arguments[1]&&arguments[1]?t+Math.PI:t}(r.a)/m,r}function Tt(t){return!t.type||"corner"===t.type}function Bt(t){return null!=t.start&&!Tt(t)}function qt(t){return null!=t.end&&!Tt(t)}var Dt=new N;var Lt={f:ft,i:B},Ct={f:ft,i:D};function Vt(t,n,e){return t.map((function(t){return function(t,n,e){var r=t.v;if(!r||"g"!==r.t||r.s||!r.v||!r.r)return t;var i=e.getElementById(r.r),u=i&&i.querySelectorAll("stop")||[];return r.s=r.v.map((function(t,n){var e=u[n]&&u[n].getAttribute("offset");return{c:t,o:e=d(parseInt(e)/100)}})),delete r.v,t}(t,0,e)}))}var Gt={gt:"gradientTransform",c:{x:"cx",y:"cy"},rd:"r",f:{x:"x1",y:"y1"},to:{x:"x2",y:"y2"}};function zt(t,n,r,i,u,o,a,l){return Vt(t,0,l),n=function(t,n,e){for(var r,i,u,o=t.length-1,a={},l=0;l<=o;l++)(r=t[l]).e&&(r.e=n(r.e)),r.v&&"g"===(i=r.v).t&&i.r&&(u=e.getElementById(i.r))&&(a[i.r]={e:u,s:u.querySelectorAll("stop")});return a}(t,i,l),function(i){var u=r(i,t,Yt);if(!u)return"none";if("c"===u.t)return ht(u.v);if("g"===u.t){if(!n[u.r])return vt(u.r);var o=n[u.r];return function(t,n){for(var e=t.s,r=e.length;r<n.length;r++){var i=e[e.length-1].cloneNode();i.id=Qt(i.id),t.e.appendChild(i),e=t.s=t.e.querySelectorAll("stop")}for(var u=0,o=e.length,a=n.length-1;u<o;u++)e[u].setAttribute("stop-color",ht(n[Math.min(u,a)].c)),e[u].setAttribute("offset",n[Math.min(u,a)].o)}(o,u.s),Object.keys(Gt).forEach((function(t){if(void 0!==u[t])if("object"!==e(Gt[t])){var n,r="gt"===t?(n=u[t],Array.isArray(n)?"matrix("+n.join(" ")+")":""):u[t],i=Gt[t];o.e.setAttribute(i,r)}else Object.keys(Gt[t]).forEach((function(n){if(void 0!==u[t][n]){var e=u[t][n],r=Gt[t][n];o.e.setAttribute(r,e)}}))})),vt(u.r)}return"none"}}function Yt(t,e,r){if(0===t)return e;if(1===t)return r;if(e&&r){var i=e.t;if(i===r.t)switch(e.t){case"c":return{t:i,v:V(t,e.v,r.v)};case"g":if(e.r===r.r){var u={t:i,s:$t(t,e.s,r.s),r:e.r};return e.gt&&r.gt&&(u.gt=function(t,n,e){var r=n.length;if(r!==e.length)return T(t,n,e);for(var i=new Array(r),u=0;u<r;u++)i[u]=B(t,n[u],e[u]);return i}(t,e.gt,r.gt)),e.c?(u.c=L(t,e.c,r.c),u.rd=q(t,e.rd,r.rd)):e.f&&(u.f=L(t,e.f,r.f),u.to=L(t,e.to,r.to)),u}}if("c"===e.t&&"g"===r.t||"c"===r.t&&"g"===e.t){var o="c"===e.t?e:r,a="g"===e.t?n({},e):n({},r),l=a.s.map((function(t){return{c:o.v,o:t.o}}));return a.s="c"===e.t?$t(t,l,a.s):$t(t,a.s,l),a}}return T(t,e,r)}function $t(t,n,e){if(n.length===e.length)return n.map((function(n,r){return Ut(t,n,e[r])}));for(var r=Math.max(n.length,e.length),i=[],u=0;u<r;u++){var o=Ut(t,n[Math.min(u,n.length-1)],e[Math.min(u,e.length-1)]);i.push(o)}return i}function Ut(t,n,e){return{o:D(t,n.o,e.o||0),c:V(t,n.c,e.c||{})}}function Qt(t){return t.replace(/-fill-([0-9]+)$/,(function(t,n){return"-fill-"+(+n+1)}))}var Ht={fill:zt,"fill-opacity":Ct,stroke:zt,"stroke-opacity":Ct,"stroke-width":Lt,"stroke-dashoffset":{f:ft,i:B},"stroke-dasharray":{f:function(t){var n=arguments.length>1&&void 0!==arguments[1]?arguments[1]:" ";return t&&t.length>0&&(t=t.map((function(t){return d(t,4)}))),ct(t,n)},i:function(t,n,e){var r,i,u,o=n.length,a=e.length;if(o!==a)if(0===o)n=G(o=a,0);else if(0===a)a=o,e=G(o,0);else{var l=(u=(r=o)*(i=a)/function(t,n){for(var e;n;)e=n,n=t%n,t=e;return t||1}(r,i))<0?-u:u;n=z(n,Math.floor(l/o)),e=z(e,Math.floor(l/a)),o=a=l}for(var s=[],f=0;f<o;f++)s.push(d(q(t,n[f],e[f])));return s}},opacity:Ct,transform:function(t,n,r,i){if(!(t=function(t,n){if(!t||"object"!==e(t))return null;var r=!1;for(var i in t)t.hasOwnProperty(i)&&(t[i]&&t[i].length?(t[i].forEach((function(t){t.e&&(t.e=n(t.e))})),r=!0):delete t[i]);return r?t:null}(t,i)))return null;var u=function(e,i,u){var o=arguments.length>3&&void 0!==arguments[3]?arguments[3]:null;return t[e]?r(i,t[e],u):n&&n[e]?n[e]:o};return n&&n.a&&t.o?function(n){var e=r(n,t.o,Nt);return Dt.recomposeSelf(e,u("r",n,B,0)+e.a,u("k",n,L),u("s",n,L),u("t",n,L)).toString()}:function(t){return Dt.recomposeSelf(u("o",t,Ft,null),u("r",t,B,0),u("k",t,L),u("s",t,L),u("t",t,L)).toString()}},r:Lt,"#size":gt,"#radius":yt,_:function(t,n){if(Array.isArray(t))for(var e=0;e<t.length;e++)this[t[e]]=n;else this[t]=n}},Jt=function(t){!function(t,n){if("function"!=typeof n&&null!==n)throw new TypeError("Super expression must either be null or a function");t.prototype=Object.create(n&&n.prototype,{constructor:{value:t,writable:!0,configurable:!0}}),n&&l(t,n)}(o,t);var n,e,i=(n=o,e=s(),function(){var t,r=a(n);if(e){var i=a(this).constructor;t=Reflect.construct(r,arguments,i)}else t=r.apply(this,arguments);return c(this,t)});function o(){return r(this,o),i.apply(this,arguments)}return u(o,null,[{key:"build",value:function(t){var n=h(a(o),"build",this).call(this,t,Ht);if(!n)return null;n.el,n.options,function(t,n,e){t.play()}(n.player)}}]),o}(st);return Jt.init(),Jt}));
(function(s,i,o,w,d,a,b){w[o]=w[o]||{};w[o][s]=w[o][s]||[];w[o][s].push(i);})('5c7f360c',{"root":"e4DQJAzy6Cq1","version":"2022-05-04","animations":[{"elements":{"e4DQJAzy6Cq237":{"transform":{"data":{"o":{"x":136.922287,"y":250.487991,"type":"corner"},"t":{"x":-136.922287,"y":-250.487991}},"keys":{"r":[{"t":0,"v":0},{"t":1500,"v":10},{"t":3000,"v":0}]}}},"e4DQJAzy6Cq243":{"transform":{"data":{"o":{"x":111.575294,"y":236.005501,"type":"corner"},"t":{"x":-111.575294,"y":-236.005501}},"keys":{"r":[{"t":0,"v":0},{"t":1500,"v":10},{"t":3000,"v":0}]}}}},"s":"MNDA1ZGFlNTVJOTdhOGIE1OTRhNzljYTJhMTUC1NmQ2NjYzNjM2MzVmFNTU5NzljYTU5OEM5NQmE3OWNhMlVhMTU1NmSRFNjQ1Zk01NTljYTcY5OGE1OTRSYTc5Y2EyAYTFhNjU1NmRVQzYzNGWY1NTk5OWM5ZlY5ZjLU1NmQ2NDVmNTU5NDlCmYTdBOThhNWExSjk0UYTdJOThFNTU2ZDk5OBTQ5ZmE2OTg1ZjU1YTFZhMzk4VTk4OTdBNTUO2ZDY0NWY1NTk5YTNhRNjU1NmQ2NDYzNjNiMKA|"}],"options":"MJDAxMDg4MmY4MDgxNmSU3ZjgxMmY0N0MyZjcI5N2M2ZTcxVzJmOGE/V"},'__SVGATOR_PLAYER__',window,document)
]]></script>
</svg>
