<svg xmlns:xlink="http://www.w3.org/1999/xlink" width="402" xmlns="http://www.w3.org/2000/svg" height="402" id="screenshot-fbf06378-181e-80bb-8002-69b8390a7343" viewBox="-1 -1 402 402" style="-webkit-print-color-adjust: exact;" fill="none" version="1.1"><g id="shape-fbf06378-181e-80bb-8002-69b8390a7343" rx="0" ry="0" style="fill: rgb(0, 0, 0);"><g id="shape-fbf06378-181e-80bb-8002-69b8390ab08e"><g class="fills" id="fills-fbf06378-181e-80bb-8002-69b8390ab08e"><path fill="#f5f5f500" stroke="#f5f5f500" rx="0" ry="0" d="M43.564,201.980C43.564,289.471,114.490,360.396,201.980,360.396C289.471,360.396,360.396,289.471,360.396,201.980C360.396,114.490,289.471,43.564,201.980,43.564C114.490,43.564,43.564,114.490,43.564,201.980ZZ" style="fill: rgba(245, 245, 245, 0);"/></g><g id="strokes-fbf06378-181e-80bb-8002-69b8390ab08e" class="strokes"><g class="stroke-shape"><path stroke="#f5f5f500" rx="0" ry="0" d="M43.564,201.980C43.564,289.471,114.490,360.396,201.980,360.396C289.471,360.396,360.396,289.471,360.396,201.980C360.396,114.490,289.471,43.564,201.980,43.564C114.490,43.564,43.564,114.490,43.564,201.980ZZ" style="fill: none; stroke-width: 2;"/></g></g></g><g id="shape-fbf06378-181e-80bb-8002-69b8390ab08f"><g class="fills" id="fills-fbf06378-181e-80bb-8002-69b8390ab08f"><path rx="0" ry="0" d="M60.218,311.616C60.218,316.703,124.607,320.828,204.036,320.828C283.464,320.828,347.853,316.703,347.853,311.616C347.853,306.528,283.464,302.404,204.036,302.404C124.607,302.404,60.218,306.528,60.218,311.616ZZ" style="opacity: 0.15; fill: rgb(0, 0, 0);"/></g><g id="strokes-fbf06378-181e-80bb-8002-69b8390ab08f" class="strokes"><g class="stroke-shape"><path rx="0" ry="0" d="M60.218,311.616C60.218,316.703,124.607,320.828,204.036,320.828C283.464,320.828,347.853,316.703,347.853,311.616C347.853,306.528,283.464,302.404,204.036,302.404C124.607,302.404,60.218,306.528,60.218,311.616ZZ" style="opacity: 0.15; fill: none; stroke-width: 2;"/></g></g></g><g id="shape-fbf06378-181e-80bb-8002-69b8390aea59"><g class="fills" id="fills-fbf06378-181e-80bb-8002-69b8390aea59"><path rx="0" ry="0" d="M183.509,267.026L222.099,267.026L222.099,290.182L183.509,290.182Z" style="fill: rgb(255, 255, 255);"/></g><g id="strokes-fbf06378-181e-80bb-8002-69b8390aea59" class="strokes"><g class="stroke-shape"><path rx="0" ry="0" d="M183.509,267.026L222.099,267.026L222.099,290.182L183.509,290.182Z" style="fill: none; stroke-width: 2;"/></g></g></g><g id="shape-fbf06378-181e-80bb-8002-69b8390aea5a"><g class="fills" id="fills-fbf06378-181e-80bb-8002-69b8390aea5a"><path fill="#f5f5f500" rx="0" ry="0" d="M183.509,267.026L222.099,267.026L222.099,278.602L183.509,278.602Z" style="fill: rgba(245, 245, 245, 0);"/></g><g id="strokes-fbf06378-181e-80bb-8002-69b8390aea5a" class="strokes"><g class="stroke-shape"><path rx="0" ry="0" d="M183.509,267.026L222.099,267.026L222.099,278.602L183.509,278.602Z" style="fill: none; stroke-width: 2;"/></g></g></g><g id="shape-fbf06378-181e-80bb-8002-69b8390b2e7f"><g class="fills" id="fills-fbf06378-181e-80bb-8002-69b8390b2e7f"><path fill="none" stroke-linecap="round" stroke-linejoin="round" rx="0" ry="0" d="M183.509,267.026L222.099,267.026L222.099,290.182L183.509,290.182Z" style="fill: none;"/></g><g id="strokes-fbf06378-181e-80bb-8002-69b8390b2e7f" class="strokes"><g class="stroke-shape"><path stroke-linecap="round" stroke-linejoin="round" rx="0" ry="0" d="M183.509,267.026L222.099,267.026L222.099,290.182L183.509,290.182Z" style="fill: none; stroke-width: 2; stroke: rgb(0, 0, 0);"/></g></g></g><g id="shape-fbf06378-181e-80bb-8002-69b8390b2e80"><g class="fills" id="fills-fbf06378-181e-80bb-8002-69b8390b2e80"><path stroke-linecap="round" stroke-linejoin="round" rx="0" ry="0" d="M252.974,305.620L152.634,305.620C152.634,301.523,154.261,297.595,157.158,294.698C160.054,291.802,163.983,290.174,168.079,290.174L237.545,290.174C246.069,290.183,252.974,297.096,252.974,305.620ZZ" style="fill: rgb(255, 255, 255);"/></g><g id="strokes-fbf06378-181e-80bb-8002-69b8390b2e80" class="strokes"><g class="stroke-shape"><path stroke-linecap="round" stroke-linejoin="round" rx="0" ry="0" d="M252.974,305.620L152.634,305.620C152.634,301.523,154.261,297.595,157.158,294.698C160.054,291.802,163.983,290.174,168.079,290.174L237.545,290.174C246.069,290.183,252.974,297.096,252.974,305.620ZZ" style="fill: none; stroke-width: 2; stroke: rgb(0, 0, 0);"/></g></g></g><g id="shape-fbf06378-181e-80bb-8002-69b8390b44f8"><g class="fills" id="fills-fbf06378-181e-80bb-8002-69b8390b44f8"><path rx="0" ry="0" d="M322.440,108.800C322.440,98.144,313.801,89.505,303.145,89.505L102.463,89.505C91.807,89.505,83.168,98.144,83.168,108.800L83.168,236.154L322.440,236.154Z" style="fill: rgb(0, 184, 240);"/></g><g id="strokes-fbf06378-181e-80bb-8002-69b8390b44f8" class="strokes"><g class="stroke-shape"><path rx="0" ry="0" d="M322.440,108.800C322.440,98.144,313.801,89.505,303.145,89.505L102.463,89.505C91.807,89.505,83.168,98.144,83.168,108.800L83.168,236.154L322.440,236.154Z" style="fill: none; stroke-width: 2;"/></g></g></g><g id="shape-fbf06378-181e-80bb-8002-69b8390b44f9"><g class="fills" id="fills-fbf06378-181e-80bb-8002-69b8390b44f9"><path fill="none" stroke-linecap="round" stroke-linejoin="round" rx="0" ry="0" d="M322.440,108.800C322.440,98.144,313.801,89.505,303.145,89.505L102.463,89.505C91.807,89.505,83.168,98.144,83.168,108.800L83.168,236.154L322.440,236.154Z" style="fill: none;"/></g><g id="strokes-fbf06378-181e-80bb-8002-69b8390b44f9" class="strokes"><g class="stroke-shape"><path stroke-linecap="round" stroke-linejoin="round" rx="0" ry="0" d="M322.440,108.800C322.440,98.144,313.801,89.505,303.145,89.505L102.463,89.505C91.807,89.505,83.168,98.144,83.168,108.800L83.168,236.154L322.440,236.154Z" style="fill: none; stroke-width: 2; stroke: rgb(0, 0, 0);"/></g></g></g><g id="shape-fbf06378-181e-80bb-8002-69b8390b44fa"><g class="fills" id="fills-fbf06378-181e-80bb-8002-69b8390b44fa"><path stroke-linecap="round" stroke-linejoin="round" rx="0" ry="0" d="M303.145,267.026C313.801,267.026,322.440,258.387,322.440,247.731L322.440,236.154L83.168,236.154L83.168,247.731C83.168,252.848,85.201,257.756,88.820,261.374C92.438,264.993,97.346,267.026,102.463,267.026Z" style="fill: rgb(255, 255, 255);"/></g><g id="strokes-fbf06378-181e-80bb-8002-69b8390b44fa" class="strokes"><g class="stroke-shape"><path stroke-linecap="round" stroke-linejoin="round" rx="0" ry="0" d="M303.145,267.026C313.801,267.026,322.440,258.387,322.440,247.731L322.440,236.154L83.168,236.154L83.168,247.731C83.168,252.848,85.201,257.756,88.820,261.374C92.438,264.993,97.346,267.026,102.463,267.026Z" style="fill: none; stroke-width: 2; stroke: rgb(0, 0, 0);"/></g></g></g><g id="shape-fbf06378-181e-80bb-8002-69b8390bb297"><g class="fills" id="fills-fbf06378-181e-80bb-8002-69b8390bb297"><path rx="0" ry="0" d="M198.230,251.588C198.230,254.114,200.278,256.162,202.804,256.162C205.330,256.162,207.378,254.114,207.378,251.588C207.378,249.062,205.330,247.014,202.804,247.014C200.278,247.014,198.230,249.062,198.230,251.588ZZ" style="fill: rgb(0, 0, 0);"/></g><g id="strokes-fbf06378-181e-80bb-8002-69b8390bb297" class="strokes"><g class="stroke-shape"><path rx="0" ry="0" d="M198.230,251.588C198.230,254.114,200.278,256.162,202.804,256.162C205.330,256.162,207.378,254.114,207.378,251.588C207.378,249.062,205.330,247.014,202.804,247.014C200.278,247.014,198.230,249.062,198.230,251.588ZZ" style="fill: none; stroke-width: 2;"/></g></g></g><g id="shape-fbf06378-181e-80bb-8002-69b8390bb298"><g class="fills" id="fills-fbf06378-181e-80bb-8002-69b8390bb298"><path stroke-linecap="round" stroke-linejoin="round" rx="0" ry="0" d="M106.364,107.620L299.244,107.620L299.244,134.721L106.364,134.721Z" style="fill: rgb(199, 240, 255);"/></g><g id="strokes-fbf06378-181e-80bb-8002-69b8390bb298" class="strokes"><g class="stroke-shape"><path stroke-linecap="round" stroke-linejoin="round" rx="0" ry="0" d="M106.364,107.620L299.244,107.620L299.244,134.721L106.364,134.721Z" style="fill: none; stroke-width: 2; stroke: rgb(0, 101, 138);"/></g></g></g><g id="shape-fbf06378-181e-80bb-8002-69b8390bf02d"><g class="fills" id="fills-fbf06378-181e-80bb-8002-69b8390bf02d"><path stroke-linecap="round" stroke-linejoin="round" rx="0" ry="0" d="M299.244,236.154L244.986,236.154L244.986,154.309C244.986,152.122,246.759,150.349,248.947,150.349L295.283,150.349C297.470,150.349,299.244,152.122,299.244,154.309Z" style="fill: rgb(128, 221, 255);"/></g><g id="strokes-fbf06378-181e-80bb-8002-69b8390bf02d" class="strokes"><g class="stroke-shape"><path stroke-linecap="round" stroke-linejoin="round" rx="0" ry="0" d="M299.244,236.154L244.986,236.154L244.986,154.309C244.986,152.122,246.759,150.349,248.947,150.349L295.283,150.349C297.470,150.349,299.244,152.122,299.244,154.309Z" style="fill: none; stroke-width: 2; stroke: rgb(0, 101, 138);"/></g></g></g><g id="shape-fbf06378-181e-80bb-8002-69b8390bf02e"><g class="fills" id="fills-fbf06378-181e-80bb-8002-69b8390bf02e"><path stroke-linecap="round" stroke-linejoin="round" rx="0" ry="0" d="M106.364,150.349L226.939,150.349L226.939,177.450L106.364,177.450Z" style="fill: rgb(128, 221, 255);"/></g><g id="strokes-fbf06378-181e-80bb-8002-69b8390bf02e" class="strokes"><g class="stroke-shape"><path stroke-linecap="round" stroke-linejoin="round" rx="0" ry="0" d="M106.364,150.349L226.939,150.349L226.939,177.450L106.364,177.450Z" style="fill: none; stroke-width: 2; stroke: rgb(0, 101, 138);"/></g></g></g><g id="shape-fbf06378-181e-80bb-8002-69b8390bf02f"><g class="fills" id="fills-fbf06378-181e-80bb-8002-69b8390bf02f"><path stroke-linecap="round" stroke-linejoin="round" rx="0" ry="0" d="M176.554,193.081L226.939,193.081L226.939,220.182L176.554,220.182Z" style="fill: rgb(128, 221, 255);"/></g><g id="strokes-fbf06378-181e-80bb-8002-69b8390bf02f" class="strokes"><g class="stroke-shape"><path stroke-linecap="round" stroke-linejoin="round" rx="0" ry="0" d="M176.554,193.081L226.939,193.081L226.939,220.182L176.554,220.182Z" style="fill: none; stroke-width: 2; stroke: rgb(0, 101, 138);"/></g></g></g><g id="shape-fbf06378-181e-80bb-8002-69b8390bf030"><g class="fills" id="fills-fbf06378-181e-80bb-8002-69b8390bf030"><path stroke-linecap="round" stroke-linejoin="round" rx="0" ry="0" d="M106.364,193.081L156.749,193.081L156.749,220.182L106.364,220.182Z" style="fill: rgb(128, 221, 255);"/></g><g id="strokes-fbf06378-181e-80bb-8002-69b8390bf030" class="strokes"><g class="stroke-shape"><path stroke-linecap="round" stroke-linejoin="round" rx="0" ry="0" d="M106.364,193.081L156.749,193.081L156.749,220.182L106.364,220.182Z" style="fill: none; stroke-width: 2; stroke: rgb(0, 101, 138);"/></g></g></g><g id="shape-fbf06378-181e-80bb-8002-69b8390c3dff"><g class="fills" id="fills-fbf06378-181e-80bb-8002-69b8390c3dff"><path stroke-linecap="round" stroke-linejoin="round" rx="0" ry="0" d="M244.895,177.453L345.564,177.453L345.564,305.620L244.895,305.620Z" style="fill: rgb(255, 255, 255);"/></g><g id="strokes-fbf06378-181e-80bb-8002-69b8390c3dff" class="strokes"><g class="stroke-shape"><path stroke-linecap="round" stroke-linejoin="round" rx="0" ry="0" d="M244.895,177.453L345.564,177.453L345.564,305.620L244.895,305.620Z" style="fill: none; stroke-width: 2; stroke: rgb(0, 0, 0);"/></g></g></g><g id="shape-fbf06378-181e-80bb-8002-69b8390c3e00"><g class="fills" id="fills-fbf06378-181e-80bb-8002-69b8390c3e00"><path stroke-linecap="round" stroke-linejoin="round" rx="0" ry="0" d="M256.677,193.869L333.778,193.869L333.778,289.200L256.677,289.200Z" style="fill: rgb(156, 235, 96);"/></g><g id="strokes-fbf06378-181e-80bb-8002-69b8390c3e00" class="strokes"><g class="stroke-shape"><path stroke-linecap="round" stroke-linejoin="round" rx="0" ry="0" d="M256.677,193.869L333.778,193.869L333.778,289.200L256.677,289.200Z" style="fill: none; stroke-width: 2; stroke: rgb(0, 0, 0);"/></g></g></g><g id="shape-fbf06378-181e-80bb-8002-69b8390c3e01"><g class="fills" id="fills-fbf06378-181e-80bb-8002-69b8390c3e01"><path stroke-linecap="round" stroke-linejoin="round" rx="0" ry="0" d="M268.016,205.560L322.436,205.560L322.436,222.661L268.016,222.661Z" style="fill: rgb(204, 247, 173);"/></g><g id="strokes-fbf06378-181e-80bb-8002-69b8390c3e01" class="strokes"><g class="stroke-shape"><path stroke-linecap="round" stroke-linejoin="round" rx="0" ry="0" d="M268.016,205.560L322.436,205.560L322.436,222.661L268.016,222.661Z" style="fill: none; stroke-width: 2; stroke: rgb(56, 140, 0);"/></g></g></g><g id="shape-fbf06378-181e-80bb-8002-69b8390c3e02"><g class="fills" id="fills-fbf06378-181e-80bb-8002-69b8390c3e02"><path stroke-linecap="round" stroke-linejoin="round" rx="0" ry="0" d="M306.301,232.986L322.440,232.986L322.440,277.509L306.301,277.509Z" style="fill: rgb(204, 247, 173);"/></g><g id="strokes-fbf06378-181e-80bb-8002-69b8390c3e02" class="strokes"><g class="stroke-shape"><path stroke-linecap="round" stroke-linejoin="round" rx="0" ry="0" d="M306.301,232.986L322.440,232.986L322.440,277.509L306.301,277.509Z" style="fill: none; stroke-width: 2; stroke: rgb(56, 140, 0);"/></g></g></g><g id="shape-fbf06378-181e-80bb-8002-69b8390c3e03"><g class="fills" id="fills-fbf06378-181e-80bb-8002-69b8390c3e03"><path stroke-linecap="round" stroke-linejoin="round" rx="0" ry="0" d="M268.016,232.986L295.228,232.986L295.228,250.087L268.016,250.087Z" style="fill: rgb(204, 247, 173);"/></g><g id="strokes-fbf06378-181e-80bb-8002-69b8390c3e03" class="strokes"><g class="stroke-shape"><path stroke-linecap="round" stroke-linejoin="round" rx="0" ry="0" d="M268.016,232.986L295.228,232.986L295.228,250.087L268.016,250.087Z" style="fill: none; stroke-width: 2; stroke: rgb(56, 140, 0);"/></g></g></g><g id="shape-fbf06378-181e-80bb-8002-69b8390c5788"><g class="fills" id="fills-fbf06378-181e-80bb-8002-69b8390c5788"><path stroke-linecap="round" stroke-linejoin="round" rx="0" ry="0" d="M268.016,260.408L295.228,260.408L295.228,277.509L268.016,277.509Z" style="fill: rgb(204, 247, 173);"/></g><g id="strokes-fbf06378-181e-80bb-8002-69b8390c5788" class="strokes"><g class="stroke-shape"><path stroke-linecap="round" stroke-linejoin="round" rx="0" ry="0" d="M268.016,260.408L295.228,260.408L295.228,277.509L268.016,277.509Z" style="fill: none; stroke-width: 2; stroke: rgb(56, 140, 0);"/></g></g></g><g id="shape-fbf06378-181e-80bb-8002-69b8390c5789"><g class="fills" id="fills-fbf06378-181e-80bb-8002-69b8390c5789"><path stroke-linecap="round" stroke-linejoin="round" rx="0" ry="0" d="M70.650,213.046L121.145,213.046L121.145,305.620L70.650,305.620Z" style="fill: rgb(255, 255, 255);"/></g><g id="strokes-fbf06378-181e-80bb-8002-69b8390c5789" class="strokes"><g class="stroke-shape"><path stroke-linecap="round" stroke-linejoin="round" rx="0" ry="0" d="M70.650,213.046L121.145,213.046L121.145,305.620L70.650,305.620Z" style="fill: none; stroke-width: 2; stroke: rgb(0, 0, 0);"/></g></g></g><g id="shape-fbf06378-181e-80bb-8002-69b8390c8c0b"><g class="fills" id="fills-fbf06378-181e-80bb-8002-69b8390c8c0b"><path fill="none" stroke-linecap="round" stroke-linejoin="round" rx="0" ry="0" d="M70.650,213.046L121.145,213.046L121.145,305.620L70.650,305.620Z" style="fill: none;"/></g><g id="strokes-fbf06378-181e-80bb-8002-69b8390c8c0b" class="strokes"><g class="stroke-shape"><path stroke-linecap="round" stroke-linejoin="round" rx="0" ry="0" d="M70.650,213.046L121.145,213.046L121.145,305.620L70.650,305.620Z" style="fill: none; stroke-width: 2; stroke: rgb(0, 0, 0);"/></g></g></g><g id="shape-fbf06378-181e-80bb-8002-69b8390c8c0c"><g class="fills" id="fills-fbf06378-181e-80bb-8002-69b8390c8c0c"><path rx="0" ry="0" d="M70.650,223.564L121.145,223.564L121.145,295.097L70.650,295.097Z" style="fill: rgb(255, 134, 110);"/></g><g id="strokes-fbf06378-181e-80bb-8002-69b8390c8c0c" class="strokes"><g class="stroke-shape"><path rx="0" ry="0" d="M70.650,223.564L121.145,223.564L121.145,295.097L70.650,295.097Z" style="fill: none; stroke-width: 2;"/></g></g></g><g id="shape-fbf06378-181e-80bb-8002-69b8390c8c0d"><g class="fills" id="fills-fbf06378-181e-80bb-8002-69b8390c8c0d"><path stroke-linecap="round" stroke-linejoin="round" rx="0" ry="0" d="M110.210,238.020C110.210,240.800,107.957,243.055,105.176,243.057L86.618,243.057C84.785,243.109,83.069,242.160,82.138,240.581C81.206,239.002,81.206,237.041,82.138,235.462C83.069,233.883,84.785,232.935,86.618,232.986L105.176,232.986C106.511,232.986,107.792,233.516,108.736,234.460C109.680,235.404,110.210,236.685,110.210,238.020ZZ" style="fill: rgb(255, 218, 143);"/></g><g id="strokes-fbf06378-181e-80bb-8002-69b8390c8c0d" class="strokes"><g class="stroke-shape"><path stroke-linecap="round" stroke-linejoin="round" rx="0" ry="0" d="M110.210,238.020C110.210,240.800,107.957,243.055,105.176,243.057L86.618,243.057C84.785,243.109,83.069,242.160,82.138,240.581C81.206,239.002,81.206,237.041,82.138,235.462C83.069,233.883,84.785,232.935,86.618,232.986L105.176,232.986C106.511,232.986,107.792,233.516,108.736,234.460C109.680,235.404,110.210,236.685,110.210,238.020ZZ" style="fill: none; stroke-width: 2; stroke: rgb(255, 98, 66);"/></g></g></g><g id="shape-fbf06378-181e-80bb-8002-69b8390ce24a"><g class="fills" id="fills-fbf06378-181e-80bb-8002-69b8390ce24a"><path stroke-linecap="round" stroke-linejoin="round" rx="0" ry="0" d="M81.580,254.297L110.210,254.297L110.210,285.370L81.580,285.370Z" style="fill: rgb(255, 134, 110);"/></g><g id="strokes-fbf06378-181e-80bb-8002-69b8390ce24a" class="strokes"><g class="stroke-shape"><path stroke-linecap="round" stroke-linejoin="round" rx="0" ry="0" d="M81.580,254.297L110.210,254.297L110.210,285.370L81.580,285.370Z" style="fill: none; stroke-width: 2; stroke: rgb(255, 98, 66);"/></g></g></g><g id="shape-fbf06378-181e-80bb-8002-69b8390ce24b"><g class="fills" id="fills-fbf06378-181e-80bb-8002-69b8390ce24b"><path fill="none" stroke-linecap="round" stroke-linejoin="round" rx="0" ry="0" d="M70.650,223.564L121.145,223.564L121.145,295.097L70.650,295.097Z" style="fill: none;"/></g><g id="strokes-fbf06378-181e-80bb-8002-69b8390ce24b" class="strokes"><g class="stroke-shape"><path stroke-linecap="round" stroke-linejoin="round" rx="0" ry="0" d="M70.650,223.564L121.145,223.564L121.145,295.097L70.650,295.097Z" style="fill: none; stroke-width: 2; stroke: rgb(0, 0, 0);"/></g></g></g></g></svg>